STARTFONT 2.1
FONT -CBS-Song-Medium-R-Normal-Fantizi-40-400-75-75-C-400-CNS11643.1992-6
SIZE 40 80 80
FONTBOUNDINGBOX 40 40 0 -6
STARTPROPERTIES 23
FONTNAME_REGISTRY ""
FOUNDRY "CBS"
FAMILY_NAME "Song"
WEIGHT_NAME "Medium"
SLANT "R"
SETWIDTH_NAME "Normal"
ADD_STYLE_NAME "Fantizi"
PIXEL_SIZE 40
POINT_SIZE 400
RESOLUTION_X 75
RESOLUTION_Y 75
SPACING "C"
AVERAGE_WIDTH 400
CHARSET_REGISTRY "CNS11643.1992"
CHARSET_ENCODING "6"
COPYRIGHT "March 1994 by Central Bureau of Standards, Ministry of Economy, ROC"
WEIGHT 19329
RESOLUTION 110
X_HEIGHT 34
QUAD_WIDTH 40
DEFAULT_CHAR 32382
FONT_ASCENT 34
FONT_DESCENT 6
ENDPROPERTIES
CHARS 6389
STARTCHAR 2121
ENCODING 8481
SWIDTH 903 0
DWIDTH 40 0
BBX 40 40 0 -6
BITMAP
0000000000
0000000000
0000000000
0000000c00
0000001e00
3fffffff00
0000000f00
0000000e00
0000000e00
0000000e00
0000000e00
0000000e00
0000000e00
0000000e00
0000000e00
0000000e00
0000000e00
0000000e00
0000000e00
0000000e00
0000000e00
0000000e00
0000000e00
0000000e00
0000000700
0000000700
0000000700
0000000380
0000000380
00000001c0
00000001c0
00000000e0
00000000e0
0000000070
0000000038
000000001c
000000000e
0000000006
0000000000
0000000000
ENDCHAR
STARTCHAR 2122
ENCODING 8482
SWIDTH 903 0
DWIDTH 40 0
BBX 40 40 0 -6
BITMAP
0003000000
0003e00000
0003c00000
0003800000
0003800000
0003800000
0003800000
0003800000
0003800000
0003801800
0003803c00
0003fffe00
0003801e00
0003801c00
0003801c00
0003801c00
0003801c00
0003801c00
0003801c00
0003801c00
0003801c00
0003801c00
0003801c00
0003801e00
0003801ffc
0003800ffe
00038003fe
0003800000
0003800000
0003800000
0003800000
0003800000
0003800000
0003800000
0003800000
0003800000
0003800000
0003800000
0003800000
0003000000
ENDCHAR
STARTCHAR 2123
ENCODING 8483
SWIDTH 903 0
DWIDTH 40 0
BBX 40 40 0 -6
BITMAP
0000000000
0000000000
0000000000
0000000000
0000000000
0000000600
00000007e0
00000007c0
0380000780
00e0000f00
0078000e00
001c001e00
000f001c00
0003803c00
0001c07800
0000f07000
000078f000
00003de000
00001fc000
00000f8000
00000f8000
00001fc000
00003de000
000078f000
0000f07800
0001e03c00
0003c01e00
0007800f00
000f000780
001c0003c0
00780001e0
00e00000e0
0380000060
0e00000000
3800000000
0000000000
0000000000
0000000000
0000000000
0000000000
ENDCHAR
STARTCHAR 2124
ENCODING 8484
SWIDTH 903 0
DWIDTH 40 0
BBX 40 40 0 -6
BITMAP
0000000300
00000003e0
00000003c0
0060000380
007c000380
0078000380
0070000380
0070000380
0070000380
0070000380
0070000380
0070000380
0070000380
0070000380
0070000380
0070000380
0070000380
0070000380
0070000380
0070000380
0070000380
007fffff80
0070000380
0060000380
0000000380
0000000380
0000000700
0000000700
0000000e00
0000000e00
0000001c00
0000003800
0000007000
000000e000
000001c000
0000038000
0000070000
00000e0000
0000380000
0000e00000
ENDCHAR
STARTCHAR 2125
ENCODING 8485
SWIDTH 903 0
DWIDTH 40 0
BBX 40 40 0 -6
BITMAP
0000000000
0018000030
003c000078
7ffe07fffc
001e00003c
001c000038
001c000070
0038000070
00380000e0
00380000c0
00700001c0
0070000380
00e0000300
00e0000700
01c0000e00
01c0001c00
0380001c00
0380003800
0700007000
0e00007000
0e0000e000
1c0000e000
1c0001c000
3800038000
3800038000
7000070000
7000070000
e0000e0000
e0000e0000
e0000e0000
e0008e0001
e0008e0001
e0018e0003
e0018e0003
f0030f0006
780707800e
3fff83ffff
1fff81ffff
07ff007ffe
0000000000
ENDCHAR
STARTCHAR 2126
ENCODING 8486
SWIDTH 903 0
DWIDTH 40 0
BBX 40 40 0 -6
BITMAP
0000300000
00003e0000
18003c0000
1f00380000
1e00380000
1c00380000
1c00380000
1c00380000
1c00380000
1c00380000
1c00380000
1c00380000
1c00380000
1c00380000
1c00380000
1c00380000
1c00380000
1c00380000
1c00380000
1c00380000
1ffff80000
1c00380000
1800380000
0000380000
0000380000
0000380000
0000380000
0000380000
0000380001
0000380001
0000380003
0000380003
0000380006
0000380006
000038000e
00003c001f
00003fffff
00001ffffe
00000ffff8
0000000000
ENDCHAR
STARTCHAR 2127
ENCODING 8487
SWIDTH 903 0
DWIDTH 40 0
BBX 40 40 0 -6
BITMAP
0000000000
0000000000
0000000000
0000000000
0000000000
00000000c0
00000001e0
0ffffffff0
0000000000
0000000000
0000000000
0000000000
0000000000
0000000000
0000000000
0000000000
0000000000
0000000000
0000000000
0000000000
0000000000
0000000000
0000000000
0000000000
0000000000
0000000000
0000000000
0000000000
0000000000
0000000018
000000003c
000000007e
ffffffffff
0000000000
0000000000
0000000000
0000000000
0000000000
0000000000
0000000000
ENDCHAR
STARTCHAR 2128
ENCODING 8488
SWIDTH 903 0
DWIDTH 40 0
BBX 40 40 0 -6
BITMAP
0000000000
0000000000
0000000000
0000000000
0000000000
000000000c
000000001e
ffffffffff
0000000000
0000000000
0000000000
0000000000
0000000000
0000000000
0000000000
0000000000
0000000000
0000000000
0000000000
0000000000
0000000000
0000000000
0000000000
0000000000
0000000000
0000000000
0000000000
0000000000
0000000000
0000000000
00000000c0
00000001e0
0ffffffff0
0000000000
0000000000
0000000000
0000000000
0000000000
0000000000
0000000000
ENDCHAR
STARTCHAR 2129
ENCODING 8489
SWIDTH 903 0
DWIDTH 40 0
BBX 40 40 0 -6
BITMAP
0000000000
0000000000
0000000000
0000000000
0000000000
0000000030
0000000078
3ffffffffc
0000000000
0000000000
0000000000
0000000000
0000000000
0000000000
0000000000
0000000000
0000000000
0000000000
0000000000
0000000000
0000000000
0000000000
0000000000
0000000000
0000000000
0000000000
0000000000
0000000000
0000000000
0000000000
0000000030
0000000078
3ffffffffc
0000000000
0000000000
0000000000
0000000000
0000000000
0000000000
0000000000
ENDCHAR
STARTCHAR 212a
ENCODING 8490
SWIDTH 903 0
DWIDTH 40 0
BBX 40 40 0 -6
BITMAP
0003000000
0003e00000
0003c00000
0003800000
0003800000
0003800000
0003800000
0003800000
0003800000
00038001c0
0003800ff0
0003807ff8
000387fffc
0003ffe000
001ff80000
01ff800000
3f83800000
0003800000
0003800000
0003800000
0003800000
0003800000
0003800000
0003800000
0003800000
0003800000
0003800000
0003800000
0003800002
0003800002
0003800006
0003800006
000380000c
000380000c
0003c0001c
0003fffffe
0001fffffe
00007ffffc
0000000000
0000000000
ENDCHAR
STARTCHAR 212b
ENCODING 8491
SWIDTH 903 0
DWIDTH 40 0
BBX 40 40 0 -6
BITMAP
0000000000
0000000000
0000c00000
0001e00000
fffff00000
1c00f00000
1c00e00000
1c00e00000
1c00e00000
1c00e00000
1c00e00000
1c00e00000
1c00e00000
1c00e00000
1c00e00000
1c00e00040
1c00e00040
1c00e000c0
1c00e000c0
1c00e00180
1c00e00180
1c00f00380
1c00ffffc0
1c007fffc0
1c001fff80
1c00000000
1c00000000
1c00000000
1c00000000
1c00000000
1c00000000
1c00000000
1c00000000
1c00000000
1e00000000
1ffffffffe
0fffffffff
03ffffffff
0000000000
0000000000
ENDCHAR
STARTCHAR 212c
ENCODING 8492
SWIDTH 903 0
DWIDTH 40 0
BBX 40 40 0 -6
BITMAP
0003000000
0003e00000
0003c00000
0003800000
0003800000
0003800000
0003800000
0003800000
0003800180
00038003c0
0003ffffe0
00038001e0
00038001c0
00038001c0
00038001c0
00038001c0
00038001c0
00038001c0
00038001c0
00038001c0
00038001c0
00038001c0
00038001c0
0003800180
0003800000
0003800000
0003800000
0003800000
0003800000
0003800000
0003800000
0003800000
0003800000
0003800000
0003800000
0003800000
0003800000
0003800000
0003800000
0003000000
ENDCHAR
STARTCHAR 212d
ENCODING 8493
SWIDTH 903 0
DWIDTH 40 0
BBX 40 40 0 -6
BITMAP
0000000000
0000000030
0000000078
3ffffffffc
000038007c
0000380078
0000380070
00003800e0
00003800c0
0000380180
0000380180
0000380300
0000380200
0000380000
0000380000
0000380000
0000380000
0000380000
0000380000
0000380000
0000380000
0000380000
0000380000
0000380000
0000380000
0000380000
0000380000
0000380000
0000380000
0000380000
0000380000
0000380000
0000380000
0000380000
0000380000
0000380000
000038000c
000038001e
ffffffffff
0000000000
ENDCHAR
STARTCHAR 212e
ENCODING 8494
SWIDTH 903 0
DWIDTH 40 0
BBX 40 40 0 -6
BITMAP
0000000000
0000000018
000000003c
7ffffffffe
07000e0000
07000e0000
07000e0000
07000e0000
07000e0000
0e000e0000
0e001c0000
0e001c0000
0e001c0000
1c001c0000
1c00380000
1c00380060
1c003800f0
3ffffffff8
1800700078
0000700070
0000700070
0000700070
0000e00070
0000e00070
0001c00070
0001c00070
0003800070
0003800070
0007000070
000e000070
001c000070
0038000070
00700000f0
00e00000f0
01c00001e0
03800003e0
07000fffc0
0e00007f80
3800000f00
e000000e00
ENDCHAR
STARTCHAR 212f
ENCODING 8495
SWIDTH 903 0
DWIDTH 40 0
BBX 40 40 0 -6
BITMAP
0000000000
0000000c00
00c0001e00
00ffffff00
00e0000f00
00e0000e00
00e0000e00
00e0000e00
00e0000e00
00e0000e00
00e0000e00
00e0000e00
00e0000e00
00e0000e00
00e0000e00
00e0000e00
00e0000e00
00e0000e00
00e0000e00
00e0000e00
00e0000e00
00e0000e00
00e0000e00
00e0000e00
00e0000e00
00e0000e00
00e0000e00
00e0000e00
00e0000e00
00e0000e00
00e0000e00
00e0000e00
00e0000e00
00e0000e00
00e0000e00
00e0000e0c
00e0000e1e
ffffffffff
0000000000
0000000000
ENDCHAR
STARTCHAR 2130
ENCODING 8496
SWIDTH 903 0
DWIDTH 40 0
BBX 40 40 0 -6
BITMAP
0000300000
00003e0000
00003c0000
0000380000
0000380000
0000380000
0000380000
0000380000
0600380300
0700380780
07ffffffc0
0700380000
0700380000
0700380000
0700380000
0e00380000
0e00380000
0e00380000
0e00380000
1c00380000
1c00380018
1c0038003c
3ffffffffe
1800380000
0000380000
0000380000
0000380000
0000380000
0000380000
0000380000
0000380000
0000380000
0000380000
0000380000
0000380000
0000380000
0000380000
0000380000
0000380000
0000300000
ENDCHAR
STARTCHAR 2131
ENCODING 8497
SWIDTH 903 0
DWIDTH 40 0
BBX 40 40 0 -6
BITMAP
0006000000
0007c00000
0007800000
0007000000
0007000000
0007000000
0007000000
0007000000
0007000000
0007001800
0007003c00
1ffffffe00
0007001e00
0007001c00
0007001c00
0007001c00
00c7001c00
0077001c00
001f001c00
000f001c00
0007801c00
0007c01c00
0007f01c00
0007781c00
000e3c1c00
000e1c1c00
000e0c1c00
001c001c00
001c001c00
0038001c00
0038001c01
0070001c01
0070001c03
00e0001c03
01c0001c06
0380001e0e
0700001fff
0e00000fff
38000007fe
e000000000
ENDCHAR
STARTCHAR 2132
ENCODING 8498
SWIDTH 903 0
DWIDTH 40 0
BBX 40 40 0 -6
BITMAP
0000000000
0000001800
0000003c00
1ffffffe00
0007001e00
0007001c00
0007001c00
0007001c00
0007001c00
0007001c00
0007001c00
0007001c00
0007001c00
0007001c00
0007001c00
0007001c00
0007801c00
0007e01c00
0007781c00
00073c1c00
00071e1c00
00070f1c00
0007071c00
000e031c00
000e001c00
000e001c00
000e001c00
001c001c00
001c001c00
0038001c00
0038001c01
0070001c01
0070001c03
00e0001c03
01c0001c06
0380001e0e
0700001fff
0e00000fff
38000007fe
e000000000
ENDCHAR
STARTCHAR 2133
ENCODING 8499
SWIDTH 903 0
DWIDTH 40 0
BBX 40 40 0 -6
BITMAP
0000000000
000000f000
00000ffc00
0000fffe00
001ff00000
03fc000000
3f1c000000
001c000000
001c000000
001c000000
001c000000
001c003000
001c007800
7ffffffc00
001c007c00
001c007800
001c007000
001c00e000
001c00e000
001c01c018
001c01c03c
001c03fffe
001c01801e
001c00001c
003800001c
003800001c
007000001c
007000001c
00e000001c
00e000001c
01c000001c
01c000003c
0380000038
0700000078
06000000f8
0c0003fff0
1800000fe0
30000001c0
6000000180
c000000000
ENDCHAR
STARTCHAR 2134
ENCODING 8500
SWIDTH 903 0
DWIDTH 40 0
BBX 40 40 0 -6
BITMAP
0000000000
000000000c
000000001e
ffffffffff
0000000000
0000600000
00007c0000
0000780000
0000700000
0000700000
0000700000
0000700000
0000700000
0000700000
0000700000
0000780000
0000e80000
0000ec0000
0000e40000
0001c60000
0001c60000
0001c30000
0003830000
0003838000
0007018000
000701c000
000e00e000
000e00e000
001c007000
0038003800
0038003c00
0070001e00
00e0000f00
01c00007c0
03800003f0
07000001ff
0e000000ff
1c0000003c
380000000c
6000000000
ENDCHAR
STARTCHAR 2135
ENCODING 8501
SWIDTH 903 0
DWIDTH 40 0
BBX 40 40 0 -6
BITMAP
0000300000
00003e0000
00003c0000
0000380000
00007c0000
0000760000
0000e30000
0001c18000
000380e000
0007007800
000e003c00
001c001f00
00383007e0
00e03e03ff
03803c00ff
0e0038003c
380038000c
e000380000
0000380000
0000380000
0000380000
0000380000
0000380000
0000380000
0000380000
0000380000
0000380000
0000380000
0000380000
0000380000
0000380000
0000380000
0000380000
0000380000
0000380000
0000780000
007ff80000
0007f00000
0000e00000
0000c00000
ENDCHAR
STARTCHAR 2136
ENCODING 8502
SWIDTH 903 0
DWIDTH 40 0
BBX 40 40 0 -6
BITMAP
0003000000
0001800000
0000c00000
0000e00000
0000600000
0000300000
0000380000
0000180000
00001c0000
00000c0000
00001e0000
00001e0000
00003b0000
00003b0000
0000738000
0000718000
0000e1c000
0000e0e000
0001c0e000
0003807000
0003803800
0007003c00
000e001e00
001c000f00
0038000780
00700003c0
00e00001e0
01c00000f8
038000007f
070000003f
0c0000001c
380000000c
e000000000
0000000000
0000000000
0000000030
0000000078
3ffffffffc
0000000000
0000000000
ENDCHAR
STARTCHAR 2137
ENCODING 8503
SWIDTH 903 0
DWIDTH 40 0
BBX 40 40 0 -6
BITMAP
0000180000
00000c0000
00000c0000
00000e0000
0000060000
0000060000
0000060000
0000070000
0000030000
0000030000
0000030000
0018038000
001f038000
001e038000
001c01c000
001c01c000
001c01c000
003800e000
003800e00c
003800e01e
ffffffffff
0070007000
0070007000
0070003800
00e0003800
00e0003c00
00e0001c00
01c0001e00
01c0000e00
0380000f00
0380000780
07000007c0
06000003e0
0e000001f0
0c000001fc
18000000ff
300000007f
600000003c
c00000001c
0000000000
ENDCHAR
STARTCHAR 2138
ENCODING 8504
SWIDTH 903 0
DWIDTH 40 0
BBX 40 40 0 -6
BITMAP
0000000000
0000000030
0000000078
3ffffffffc
000070003c
0000700038
0000700038
0000700038
0000700038
0000700038
0000700038
0000700038
0000700038
0000700038
0060700038
0038700038
001c700038
000ee00038
0007e00038
0003e00038
0001e00038
0000f00038
0000f80038
0000fc0038
0000ee0038
0001c70038
0001c78038
0003838038
0003818038
0007000078
0007000070
000e000070
001c0000f0
00380000e0
00700003e0
00e007ffc0
01c0007f80
0700000f00
1c00000e00
7000000000
ENDCHAR
STARTCHAR 2139
ENCODING 8505
SWIDTH 903 0
DWIDTH 40 0
BBX 40 40 0 -6
BITMAP
0180000000
01f0000000
01e0000000
01c0000000
01c0000000
01c0000000
01c0000000
0380000000
0380000000
0380000000
0700000000
0700000000
0e00000030
0e00000078
1ffffffffc
0c0070003c
0000700038
0000700038
0000700038
0000700038
0000700038
0000e00038
0000e00038
0000e00038
0001c00038
0001c00038
0003800038
0003800038
0007000038
0007000038
000e000038
001c000038
0038000078
0070000070
00e00000f0
01c007ffe0
0380003fc0
0e00000780
3800000700
e000000000
ENDCHAR
STARTCHAR 213a
ENCODING 8506
SWIDTH 903 0
DWIDTH 40 0
BBX 40 40 0 -6
BITMAP
0000600000
00007c0000
0000780000
0000700000
0000700000
0000700000
0600700000
07c0700000
0780700000
0700700060
07007000f0
07fffffff8
0e00700078
0e00700070
1c00700070
1c00700070
3800700070
3000f00070
6000e00070
c000e00070
0000e00070
0001e00070
0001c00070
0001c00070
0001c00070
0003800070
0003800070
0007000070
0007000070
000e000070
000e000070
001c0000f0
00380000f0
00700000e0
00e00001e0
01c00003e0
03800fffc0
0700007f80
1c00000f00
7000000e00
ENDCHAR
STARTCHAR 213b
ENCODING 8507
SWIDTH 903 0
DWIDTH 40 0
BBX 40 40 0 -6
BITMAP
0000000000
0000000030
0000000078
07fffffffc
0070000e00
0070000e00
0070000e00
0070000e00
0070000e00
0070000e00
0070000e00
0070000e00
0070000e00
0070000e00
0070000e00
0070000e00
0070000e00
0070000e00
0070000e00
0070000e00
0070000e00
0070000e00
0070000e00
007001fe00
00700f8e00
00707c0e00
0073f00e00
007f800e00
007e000e00
007c000e00
0070000e00
0030000e00
0000000e00
0000000e00
0000000e00
0000000e00
0000000e00
0000000e00
0000000e00
0000000c00
ENDCHAR
STARTCHAR 213c
ENCODING 8508
SWIDTH 903 0
DWIDTH 40 0
BBX 40 40 0 -6
BITMAP
0000000000
000000000c
000000001e
ffffffffff
0000000000
0000600000
00007c0000
0000780000
0000700000
0000700000
0000700000
0000700000
0000e00000
0000e00000
0000e00000
0001c00000
0001c00000
0001c00000
0003800000
0003800000
0007000000
0007006000
000e003000
000e001800
001c000c00
001c000e00
0038000700
0038000380
0070000380
00e00001c0
00e00001e0
01c000ffe0
03807f80f0
07fffe00f0
07ff8000f0
03fc000070
00e0000030
0060000000
0000000000
0000000000
ENDCHAR
STARTCHAR 213d
ENCODING 8509
SWIDTH 903 0
DWIDTH 40 0
BBX 40 40 0 -6
BITMAP
0000000000
0000000000
0000000000
0000000000
000c00c000
001e00f800
ffff00f000
000f00e000
000e00e000
000e00e000
000e00e000
000e00e000
000e00e000
000e01c000
000e01c000
000e01c000
000e01c100
000e038180
000e0380c0
000e0380e0
000e070060
000e070070
000e0e0038
000e0e0038
000e1c03f8
000e1c3f38
000e3ff038
000e3f8018
000e1e0001
000e0e0001
000e000001
000e000003
000e000003
000e000006
000f00000e
000fffffff
0007ffffff
0001fffffe
0000000000
0000000000
ENDCHAR
STARTCHAR 213e
ENCODING 8510
SWIDTH 903 0
DWIDTH 40 0
BBX 40 40 0 -6
BITMAP
0000000000
0000000000
0000000060
00000000f0
03fffffff8
0000000078
0000000070
0000000070
0000000070
0000000070
0000000070
0000000070
0000000070
0000000070
0000000070
0000000070
00c0000070
00e0000070
00fffffff0
00e0000070
00e0000060
00e0000000
00e0000000
00e0000000
00e0000000
00e0000000
00e0000000
00e0000000
01c0000000
01c0000000
01c0000000
0380000000
0380000000
0700000000
0700000000
0e00000000
0c00000000
1800000000
3000000000
6000000000
ENDCHAR
STARTCHAR 213f
ENCODING 8511
SWIDTH 903 0
DWIDTH 40 0
BBX 40 40 0 -6
BITMAP
001800c000
001f00f800
001e00f000
001c00e000
001c00e000
001c00e000
001c00e000
001c00e000
001c00e000
001c00e000
001c00e000
001c00e000
001c00e000
001c00e018
001c00e03c
fffffffffe
001c00e000
001c00e000
001c00e000
001c00e000
001c00e000
001c00e000
001c00e000
001c00e000
003800e000
003800e000
003800e000
003000e000
007000e000
007000e000
006000e000
00e000e000
00c000e000
01c000e000
018000e000
030000f000
060000fffe
0c00007fff
1800001fff
3000000000
ENDCHAR
STARTCHAR 2140
ENCODING 8512
SWIDTH 903 0
DWIDTH 40 0
BBX 40 40 0 -6
BITMAP
0003000000
0003e00000
0003c0e000
0003803800
0003801e00
0003800f00
0003800780
0003800380
0003800180
0003800000
0003800000
0003800000
0003800018
000380003c
7ffffffffe
0003800000
0003800000
0003800000
0003800000
0003800000
0003800000
0003800000
0003800000
0003800000
0003800000
0003800000
0003800000
0003800000
0001c00000
0001c00000
0001c00000
0000e00000
0000f00000
0000780000
00003f0000
00001ffffc
000007fffe
000000fffe
0000000000
0000000000
ENDCHAR
STARTCHAR 2141
ENCODING 8513
SWIDTH 903 0
DWIDTH 40 0
BBX 40 40 0 -6
BITMAP
0000000000
0000003000
0600003c00
0380007800
01c0007000
00e000e000
007001c000
0038018000
001c03000c
000c06001e
ffffffffff
0007000000
0007000000
0007000000
000e000000
000e000000
001c000000
001c000000
0038000600
0038000f00
007fffff80
0030000780
0000000700
0000000700
0000000700
0000000700
0000000700
0000000700
0000000700
0000000700
0000000700
0000000700
0000000f00
0000000e00
0000001e00
0000003c00
0001fff800
000007f000
000001e000
000001c000
ENDCHAR
STARTCHAR 2142
ENCODING 8514
SWIDTH 903 0
DWIDTH 40 0
BBX 40 40 0 -6
BITMAP
0000000c00
00c0001e00
00ffffff00
00e0000f00
00e0000e00
00e0000e00
00e0000e00
00e0000e00
00e0000e00
00e0000e00
00e0000e00
00e0000e00
00e0000e00
00e0000e00
00e0000e00
00e0000e00
00e0000e00
00e0000e00
00fffffe00
00e0000e00
00e0000e00
00e0000e00
00e0000e00
00e0000e00
00e0000e00
00e0000e00
00e0000e00
00e0000e00
00e0000e00
00e0000e00
00e0000e00
00e0000e00
00e0000e00
00e0000e00
00e0000e00
00e0000e0c
00e0000e1e
ffffffffff
0000000000
0000000000
ENDCHAR
STARTCHAR 2143
ENCODING 8515
SWIDTH 903 0
DWIDTH 40 0
BBX 40 40 0 -6
BITMAP
0000000000
0000000e00
0000003f00
000000ff80
00000fe000
0180fe0000
01cfe00000
01fe000000
01c0000000
01c0000000
01c0000000
01c0000000
01c000c000
01c001e000
01fffff000
01c000f000
01c000e000
01c000e000
01c001c000
01c001c000
01c0038180
01c00383c0
01c007ffe0
01c00301e0
01c00001c0
01c00001c0
01c0000380
01c0000380
01c0000380
01c0000700
01c0000700
01c0000e00
01c0000e00
01c0000e00
01c0001c00
01c0001c0c
01c0001c1e
ffffffffff
0000000000
0000000000
ENDCHAR
STARTCHAR 2144
ENCODING 8516
SWIDTH 903 0
DWIDTH 40 0
BBX 40 40 0 -6
BITMAP
0000000000
0000001800
0000003c00
3ffffffe00
0038003e00
0038003800
0038003800
0038003800
0038003800
0038107000
0038387000
003ffc7000
003800e000
003800e018
003800e03c
003801fffe
003800c01e
003800001c
003803001c
003807801c
003fffc01c
007003c01c
007003801c
007003801c
007003801c
007003801c
00e003801c
00e003801c
00e003801c
01c1ff801c
01c03f001c
03800e001c
03800c003c
0700000038
0e00000078
0c0003fff0
1800001fe0
30000003c0
6000000380
c000000000
ENDCHAR
STARTCHAR 2145
ENCODING 8517
SWIDTH 903 0
DWIDTH 40 0
BBX 40 40 0 -6
BITMAP
0000000000
0000000380
0000000fc0
0000007fe0
000003f000
00003f0000
0003fc0000
007e1c0000
0fc01c0000
00001c0000
00001c0000
00001c0000
00001c0000
00001c0000
00001c0000
00001c0030
00001c003e
00001c003c
00001c0038
0ffffc0038
00001c0038
00001c0038
00001c0038
00001c0038
00001c0038
00001c0038
00001c0038
00001c0038
00001c0038
00001c0038
00001c0038
00001c0038
00001c0038
00001c0038
00001c0038
00001c0038
7ffffffff8
0000000038
0000000030
0000000000
ENDCHAR
STARTCHAR 2146
ENCODING 8518
SWIDTH 903 0
DWIDTH 40 0
BBX 40 40 0 -6
BITMAP
0c00000300
0f800003e0
0f000003c0
0e00030380
0e0003e380
0e0003c380
0e18038380
0e1f038380
0e1e038380
0e1c038380
0e1c038380
0e1c038380
0e1c038380
0e1c038380
0e1c038380
0e1c038380
0e1c038380
0e1c038380
0e1c038380
0e1c038380
0e1c038380
0e1fff8380
0e1c038380
0e18038380
0e00038380
0e00038380
0e00038380
0e00038380
0e00038380
0e000383c0
1c000381c1
1c000381c1
1c000381c3
18000381e3
38000380e6
3000038076
700003007e
600000003e
c00000001e
800000000e
ENDCHAR
STARTCHAR 2147
ENCODING 8519
SWIDTH 903 0
DWIDTH 40 0
BBX 40 40 0 -6
BITMAP
0000003e00
000007ff00
0000ffff80
003ffc0000
07fc380000
0000380000
0000380000
0000380000
0000380000
0000380000
0000380000
0000380000
0000380018
000038003c
7ffffffffe
0000780000
0000780000
0000f80000
0000f80000
0001b80000
0003b80000
0003380000
0007380000
000e380000
000e380000
001c380000
0038380000
0070380000
00e0380000
01c0380000
0380380000
0700380000
0e00380000
1c00380000
7000380000
c000380000
0000380000
0000380000
0000380000
0000300000
ENDCHAR
STARTCHAR 2148
ENCODING 8520
SWIDTH 903 0
DWIDTH 40 0
BBX 40 40 0 -6
BITMAP
0300000600
03e00007c0
03c0600780
03807c0700
0380780700
0380700700
0380700700
0380700700
0380780700
0380780700
03807c0700
0380740700
0380760700
0380760700
0380730700
0380730700
0380730700
0380718700
0380718700
038070c700
038070e700
0380706700
0380707700
0380703f00
0380701f00
0380700f00
0380700780
03807007c0
03807007f0
070070077f
070070073f
070070070e
0e0071e706
0e00778700
0c007e0700
1c007c0700
3800700700
3000300700
6000000700
c000000600
ENDCHAR
STARTCHAR 2149
ENCODING 8521
SWIDTH 903 0
DWIDTH 40 0
BBX 40 40 0 -6
BITMAP
0000060000
00000e0000
00001f8000
00001ffc00
00001c0000
00001c0000
00001c0000
00001c0000
00001c0000
00001c0000
00001c0000
00001c0000
00001c0000
00001c0000
00001c0000
06001c0000
0c001c0000
18001c0000
30001c0000
e0001c0000
ffffffffff
78001c0000
30001c0000
00001c0000
00001c0000
00001c0000
00001c0000
00001c0000
00001c0000
00001c0000
0000380000
0000700000
0001c00000
0007000000
001c000000
0070000000
01e0000000
01fffffffc
00f0000000
0060000000
ENDCHAR
STARTCHAR 214a
ENCODING 8522
SWIDTH 903 0
DWIDTH 40 0
BBX 40 40 0 -6
BITMAP
0000000000
0000000060
00000000f0
1ffffffff8
0000000000
0000000000
0000000000
0000000300
00000003e0
00000003c0
0000000780
0070000700
001c000f00
0007001e00
0003803c00
0000e07800
000070f000
000039e000
00001fc000
00000f8000
00000f8000
00001fe000
00003cf000
0000787c00
0001f01e00
0003c00f00
0007000780
001e0003c0
00780001e0
01e00000f0
0780000070
1e00000030
7800000000
0000000000
0000000000
000000000c
000000001e
ffffffffff
0000000000
0000000000
ENDCHAR
STARTCHAR 214b
ENCODING 8523
SWIDTH 903 0
DWIDTH 40 0
BBX 40 40 0 -6
BITMAP
0030000000
003e000018
003c00003c
0078fffffe
007000003e
0070000078
00e00000e0
00e00001c0
01c0000380
01c0000e00
03c0003800
03c0003800
07c0003800
07c0003800
0fc0003800
0fc0003800
1dc0003800
39c0003800
31c0003800
61c0003800
c1c0003800
01c0003800
01c0003800
01c0003800
01c0003800
01c0003800
01c0003800
01c0003800
01c0003800
01c0003800
01c0003800
01c0003800
01c0003800
01c0003800
01c0003800
01c0007800
01c03ff800
01c003f000
01c000e000
018000c000
ENDCHAR
STARTCHAR 214c
ENCODING 8524
SWIDTH 903 0
DWIDTH 40 0
BBX 40 40 0 -6
BITMAP
0000060000
0000078000
30000f0000
3e000f0000
3c001d8000
380038c000
3800706000
3800e03000
3801c01800
3803800e00
3807000780
380e0003e0
381c0001f8
38380000ff
387000003f
39c000001e
3f00000006
3800000000
3800000000
3800000000
3800000000
3800000180
38000003c0
3fffffffe0
3800000000
3800000000
3800000000
3800000000
3800000000
3800000000
3800000000
3800000000
3800000000
3800000000
3800000000
3c00000000
3ffffffffc
1ffffffffe
0ffffffffe
0000000000
ENDCHAR
STARTCHAR 214d
ENCODING 8525
SWIDTH 903 0
DWIDTH 40 0
BBX 40 40 0 -6
BITMAP
0000000000
00000000c0
01800001e0
01fffffff0
01c0000000
01c0000000
01c0000000
01c0000000
01c0000000
01c0000000
01c0000000
01c0000000
01c0000000
01c0000000
01c0000060
01c00000f0
03fffffff8
0180000000
0000000000
0018003000
001f003e00
001e003c00
001c003800
001c003800
001c003800
001c003800
001c003800
001c003800
001c003800
0038003800
0038003801
0070003801
0070003803
00e0003803
01c0003806
0380003c0e
0700003fff
0e00001fff
38000007fe
e000000000
ENDCHAR
STARTCHAR 214e
ENCODING 8526
SWIDTH 903 0
DWIDTH 40 0
BBX 40 40 0 -6
BITMAP
0000300000
0000180000
00000c0000
0000060000
0000070000
0018030000
001f018000
001e00c000
003c00e000
0038007000
0070003800
00e0001e00
01c0000f00
03800007e0
07003003ff
0e001800ff
1c000c007c
380006001c
e000060000
0000070000
0018030000
001f038000
001e038000
001c018000
001c01c000
003800c000
003800e000
0070007000
0070007000
00e0003800
00e0003c00
01c0001e00
0180000f00
03800007c0
07000003e0
0e000001ff
1c000000ff
3800000078
7000000038
c000000000
ENDCHAR
STARTCHAR 214f
ENCODING 8527
SWIDTH 903 0
DWIDTH 40 0
BBX 40 40 0 -6
BITMAP
0000000000
3000000030
3800000078
3ffffffffc
380000003c
3800000038
3800000038
3800000038
3830003038
3838007838
383ffffc38
3838003c38
3838003838
3838003838
3838003838
3838003838
3838003838
3838003838
3838003838
3838003838
3838003838
3838003838
3838003838
3838003838
3838003838
3838003838
3838003838
3838003838
3838003838
3838003838
3838003838
3838003838
3838003838
3830003038
3800000038
3800000038
3800000ff8
38000001f8
3800000070
3000000060
ENDCHAR
STARTCHAR 2150
ENCODING 8528
SWIDTH 903 0
DWIDTH 40 0
BBX 40 40 0 -6
BITMAP
0000300000
00003e0000
00003c0000
00003c0000
0000380000
0000380000
0000380000
0000380000
3000380030
3800380078
3ffffffffc
380038003c
3800380038
3800380038
3800380038
3800780038
38007c0038
3800ec0038
3800e60038
3800e70038
3801c30038
3801c38038
380381c038
380381e038
380700f038
380e007838
381c003c38
3838001fb8
3870000fb8
38e0000738
39c0000338
3b00000038
3800000038
3800000038
3800000038
3800000078
3800003ff8
38000007f8
38000000f0
30000000e0
ENDCHAR
STARTCHAR 2151
ENCODING 8529
SWIDTH 903 0
DWIDTH 40 0
BBX 40 40 0 -6
BITMAP
0000600000
00007c0000
0000780000
0000f00000
0000e00000
0001c00000
0061800600
0073000f00
007fffff80
0070000780
0070000700
0070000700
0070000700
0070000700
0070000700
0070000700
0070000700
0070000700
0070000700
007000070c
007000071e
ffffffffff
0070000700
0070000700
0070000700
0070000700
00e0000700
00e0000700
00e0000700
00c0000700
01c0000700
0180000700
0380000700
0300000700
0700000700
0600000f00
0c0007ff00
1800007e00
3000001c00
6000001800
ENDCHAR
STARTCHAR 2152
ENCODING 8530
SWIDTH 903 0
DWIDTH 40 0
BBX 40 40 0 -6
BITMAP
0600000000
07c0000000
0780000000
0700001f00
070000ff80
07001fffc0
0703ff0000
07ff000000
0700000000
0700000000
0700000000
0700000000
0700000000
0780000000
07fffffff8
03fffffffc
00fffffffc
0000000000
0000000000
0000000000
0018003000
001c007800
001ffffc00
001c003c00
001c003800
001c003800
001c003800
001c003800
001c003800
001c003800
0038003801
0038003801
0070003803
00e0003803
01c0003806
0380003c0e
0700003fff
0e00001fff
38000007fe
e000000000
ENDCHAR
STARTCHAR 2153
ENCODING 8531
SWIDTH 903 0
DWIDTH 40 0
BBX 40 40 0 -6
BITMAP
0000000000
3000000030
3e0000003e
3c0030003c
38003e0038
38003c0038
3800380038
3800380038
3800380038
3800380038
3800380038
3800380038
3800380038
3800380038
3800380c38
3800381e38
39ffffff38
3800380038
3800380038
3800380038
3800380038
3800380038
3800380038
3800380038
3800380038
3800380038
3800380038
3800380038
3800380038
3800380038
3800380038
3800380038
3800300038
3800000038
3800000038
3800000038
3800000038
7ffffffff8
3000000038
0000000030
ENDCHAR
STARTCHAR 2154
ENCODING 8532
SWIDTH 903 0
DWIDTH 40 0
BBX 40 40 0 -6
BITMAP
0000000000
3000000030
3e0000003e
3c0030003c
38003e0038
38003c0038
3800380038
3800380038
3800380038
3800380038
3800700038
3800700038
3800700038
3800e00038
3800e00038
3800e00038
3801c00038
3801c00038
3803818038
380380c038
3807006038
3807007038
380e003838
381c003838
381c001c38
3838001c38
38701ffe38
39fff80e38
39ffc00e38
38fe000e38
3870000638
3830000038
3800000038
3800000038
3800000038
3800000038
7ffffffff8
3000000038
0000000038
0000000030
ENDCHAR
STARTCHAR 2155
ENCODING 8533
SWIDTH 903 0
DWIDTH 40 0
BBX 40 40 0 -6
BITMAP
0000000000
0003000000
0007800000
ffffc01800
0703c01f00
0703801e00
0703801c00
0703801c00
0703801c00
0703801c00
0703801c00
0703803800
0703803800
0703803800
0703803800
0703807000
0703807000
0703807000
0703807000
070380e000
070380e000
070380e000
070381c000
070381c000
070381c000
0703838000
07038380c0
0e03838060
0e03870030
0e03870038
0e038e0018
1c038e001c
1c071c03fe
18073ffe0e
380f3ff00f
33fe1f8007
70fc0e0007
6038060003
c030000000
8000000000
ENDCHAR
STARTCHAR 2156
ENCODING 8534
SWIDTH 903 0
DWIDTH 40 0
BBX 40 40 0 -6
BITMAP
0600000060
07c000007c
0780000078
0700000070
0700000070
0700018070
070001f070
070001e070
070001c070
070001c070
070001c070
070001c070
07c001c070
077001c070
073801c070
071c01c070
070e01c070
070701c070
070381c070
0701c1c070
0701e1c070
0700e1c070
070061c070
070001c070
070001c070
070001c070
070001c070
070001c070
070001c070
0700018070
0700000070
0700000070
0700000070
0700000070
0700000070
07000000f0
0700003ff0
07000007e0
07000001c0
0600000180
ENDCHAR
STARTCHAR 2157
ENCODING 8535
SWIDTH 903 0
DWIDTH 40 0
BBX 40 40 0 -6
BITMAP
1800000000
1f00000000
1e00000018
1c0000003c
1c01fffffe
1c0003801e
1c0003801c
1c0003801c
1c0003801c
1c0003801c
1c0003801c
1c0003801c
1f0003801c
1dc003801c
1ce003801c
1c7003801c
1c3803801c
1c1c03801c
1c0e03801c
1c0f03801c
1c0707001c
1c0707001c
1c0307001c
1c0007001c
1c000e001c
1c000e001c
1c000e001c
1c001c001c
1c001c001c
1c0038003c
1c00380038
1c00700038
1c00700078
1c00e00070
1c00e000f0
1c01c001e0
1c0381ffc0
1c07001f80
1c0e000700
1838000600
ENDCHAR
STARTCHAR 2158
ENCODING 8536
SWIDTH 903 0
DWIDTH 40 0
BBX 40 40 0 -6
BITMAP
0300003000
03e0003e00
03c0003c00
0380003800
0380003800
0380003800
0380003800
0380003800
0380003800
0380003800
038180380c
0383c0381e
7fffe7ffff
0381e0380f
0381c0380e
0381c0380e
0381c0380e
0381c0380e
0381c0380e
0381c0380e
0381c0380e
0381c0380e
0381c0380e
0381c0380e
0381c0380e
0381c0380e
0381c0380e
0381c0380e
0381c0380e
0701c0700e
0701c0700e
0701c0601c
0e01c0e01c
0e03c0c03c
1c0381c038
1807838078
39ff031ff0
307e0607e0
601c0c01c0
c018180180
ENDCHAR
STARTCHAR 2159
ENCODING 8537
SWIDTH 903 0
DWIDTH 40 0
BBX 40 40 0 -6
BITMAP
0000000000
0000000000
0000000c00
00c0000f00
0070001e00
003c001c00
001e003800
000f007000
0007806000
000380c000
000181800c
000003001e
ffffffffff
00e0000000
00e0000000
00e0000000
00e0000000
00e0000000
00e0000000
00e0000000
00e0000000
00e0000000
00e0000000
00e0000000
00e0000000
00e0000000
00e0000000
00e0000000
00e0000000
00e0000000
00e0000000
00e0000000
00e0000000
00e0000000
00f0000000
00fffffff8
007ffffffc
003ffffffc
0000000000
0000000000
ENDCHAR
STARTCHAR 215a
ENCODING 8538
SWIDTH 903 0
DWIDTH 40 0
BBX 40 40 0 -6
BITMAP
0018003000
001f003e00
001e003c00
001c003800
001c003800
001c003800
001c003800
001c003800
001c003800
001c003800
001c003800
001c003800
001c003800
001c00380c
001c00381e
ffffffffff
001c003800
001c003800
001c003800
001c003800
001c003800
001c003800
001c003800
001c003800
001c003800
001c003800
001c003800
001c003800
001c003800
001c003800
001c003800
001c03f800
001c1f3800
001df83800
003f803800
03fc003800
03f0003800
01c0003800
00c0003800
0000003000
ENDCHAR
STARTCHAR 215b
ENCODING 8539
SWIDTH 903 0
DWIDTH 40 0
BBX 40 40 0 -6
BITMAP
0000000000
30000c0018
3e000e003c
3c000ffffe
38000e001e
38000e001c
38000e001c
38000e001c
38000e001c
38000e001c
38000e001c
38000e001c
38000e001c
38080e001c
381c0e001c
3ffe0e001c
38000e001c
38000e001c
38000e001c
38000e001c
38000e001c
38000e001c
38000e001c
38000e001c
38000e001c
38000e001c
38000e003c
38000e7ffc
38000e03f8
38010e0070
38010e0060
38030e0000
38030e0000
38060e0000
3c0e0e0000
3fff0e0000
1fff0e0000
0ffe0e0000
00000e0000
00000c0000
ENDCHAR
STARTCHAR 215c
ENCODING 8540
SWIDTH 903 0
DWIDTH 40 0
BBX 40 40 0 -6
BITMAP
0000c00000
0000f80000
0000f00000
0000e00000
0000e00000
0000e00000
0c00e00c00
0e00e01e00
0fffffff00
0e00e00f00
0e00e00e00
0e00e00e00
0e00e00e00
0e00e00e00
0e00e00e00
0e00e00e00
0e00e00e00
0e00e00e00
0e00e00e00
0e01c00e00
0e01c00e00
0e01c00e00
0e03800e00
0e03800e00
0e070c0e00
0e07060e00
0e0e030e00
0e0c038e00
0e1c018e00
0e383fce00
0e7ff1ce01
1c7f81ce01
1c3c00ce03
181c000e03
3800000e06
3000000f0e
7000000fff
60000007ff
c0000001fe
8000000000
ENDCHAR
STARTCHAR 215d
ENCODING 8541
SWIDTH 903 0
DWIDTH 40 0
BBX 40 40 0 -6
BITMAP
0000c00000
0000f80000
0000f00000
0000e00000
0000e00000
0c00e00000
0f80e00000
0f00e00000
0e00e00c00
0e00e01e00
ffffffff00
0e00e00f00
0e00e00e00
0e00e00e00
0e00e00e00
0e00e00e00
0e00e00e00
0e00e00e00
0e00e00e00
0e01c00e00
0e01c00e00
0e01c00e00
0e03800e00
0e03800e00
0e070c0e00
0e07060e00
0e0e030e00
0e0c038e00
0e1c018e00
0e383fce00
0e7ff1ce01
1c7f81ce01
1c3c00ce03
181c000e03
3800000e06
3000000f0e
7000000fff
60000007ff
c0000001fe
8000000000
ENDCHAR
STARTCHAR 215e
ENCODING 8542
SWIDTH 903 0
DWIDTH 40 0
BBX 40 40 0 -6
BITMAP
0000000c00
0000000f80
0000000f00
0006000e00
000f000e00
7fff800e00
0007800e00
0007180e00
00071f0e00
30071e0e00
18071c0e00
180e1c0e00
0c0e1c0e00
0c0e1c0e00
060e1c0e00
061c1c0e00
031c1c0e00
031c1c0e00
01bc1c0e00
01b81c0e00
00f81c0e00
00f01c0e04
00701c0e0e
00f03fffff
00f8180e00
00f8000e00
01dc000e00
01de000e00
038e000e00
038f000e00
0707000e00
0707000e01
0e03000e01
1c00000e03
3800000e03
3000000f06
6000000fff
c0000007ff
00000001fe
0000000000
ENDCHAR
STARTCHAR 215f
ENCODING 8543
SWIDTH 903 0
DWIDTH 40 0
BBX 40 40 0 -6
BITMAP
0000000000
0000000300
0000000780
03ffffffc0
0060000fc0
0030000f00
0018001e00
000c001e00
000e003c00
0007007800
000380f000
0001c1e000
0000e3c000
0000778000
00003f0000
00003f0000
00007fc000
0001f3f000
0003e0fe00
000f803fc0
003e000fff
00f80003ff
03e18000fc
1f01f0003c
f801e00000
0003c00000
0003800000
0007800000
0007000000
000e000c00
001c000700
0038000380
00700001c0
00e00000e0
01c01ffff0
07fff80078
07ff800038
03fc000018
01e0000000
00e0000000
ENDCHAR
STARTCHAR 2160
ENCODING 8544
SWIDTH 903 0
DWIDTH 40 0
BBX 40 40 0 -6
BITMAP
0006000000
0007c00000
0007800000
0007000000
0007000000
0007003000
0007007800
3ffffffc00
000e003c00
000e003801
001c003801
001c003803
0038003803
0070003806
00e0003c0e
01c0003fff
0700001fff
1c000007fe
f000000000
0000000600
0000000f00
03ffffff80
0060000f80
0030000f00
0018001e00
000c003c00
0007007800
000380f000
0001c1e000
0000e3c000
00007f8000
00003f0000
00007f8000
0001f3e000
0007c0fc00
001f007f80
007c001fff
03f00007ff
1f800001f8
fc00000078
ENDCHAR
STARTCHAR 2161
ENCODING 8545
SWIDTH 903 0
DWIDTH 40 0
BBX 40 40 0 -6
BITMAP
0000000000
0000003000
0000007800
0ffffffc00
0038007c00
0038007000
0038007000
003800e000
003800e000
003800e000
003801c000
003801c000
0038038300
0038038780
003807ffc0
00740307c0
0076000700
0076000700
0073000f00
0073000e00
00e1800e00
00e1c01c00
00e0c01c00
00e0603800
01c0703800
01c0387000
01c01ce000
03800fe000
03800fc000
0300078000
07000fc000
06001ee000
0e003c7800
0c00783e00
1c01e01f80
1803c007ff
300f0003ff
603c0000fc
c0f000003c
07c0000000
ENDCHAR
STARTCHAR 2162
ENCODING 8546
SWIDTH 903 0
DWIDTH 40 0
BBX 40 40 0 -6
BITMAP
0018000000
001f000018
001e00003c
601c3ffffe
7c1c04001e
781c04001c
701c04001c
701c04001c
701c06001c
701c06001c
701c020038
701c020038
701c030038
701c030038
701c010070
701c018070
701c018070
701c0080e0
701c00c0e0
701f80c0e0
701e0041c0
707c0061c0
71dc006380
7f1c003380
7c1c003700
381c001f00
181c001e00
001c001e00
0038003e00
0038003f00
0070007380
007000e3c0
00e001c1e0
01c00380f0
03800700f8
07000e007c
0e001c003f
1c0038001f
3800e0000e
e003800006
ENDCHAR
STARTCHAR 2163
ENCODING 8547
SWIDTH 903 0
DWIDTH 40 0
BBX 40 40 0 -6
BITMAP
0000000000
0003000000
0007800000
7fffc00000
0007c00000
000f000000
000e300018
001c38003c
003c3ffffe
003838001e
007038001c
007038001c
00e038001c
01e038001c
01c038001c
038038001c
038038001c
070038001c
0e0038001c
0e0038001c
1c0038001c
1c0038001c
380038001c
380038001c
700038001c
700038001c
70003ffffc
e00038001c
e000380018
e000300000
e000000001
e000000001
e000000003
e000000003
f000000006
7c0000000e
3fffffffff
1fffffffff
07fffffffc
0000000000
ENDCHAR
STARTCHAR 2164
ENCODING 8548
SWIDTH 903 0
DWIDTH 40 0
BBX 40 40 0 -6
BITMAP
0000000000
0000000000
0600000180
07000003c0
07ffffffe0
07000001e0
07000001c0
07000001c0
07000001c0
07000001c0
07000001c0
07000001c0
07000001c0
07000001c0
07070001c0
0701c001c0
07007001c0
07003c01c0
07001e01c0
07000f01c0
07000781c0
070003c1c0
070001c1c0
070000c1c0
07000001c0
07000001c0
07000001c0
07000001c0
07000001c0
07000001c0
07000001c0
07000001c0
07000001c0
07000001c0
07ffffffc0
07000001c0
07000001c0
0600000180
0000000000
0000000000
ENDCHAR
STARTCHAR 2165
ENCODING 8549
SWIDTH 903 0
DWIDTH 40 0
BBX 40 40 0 -6
BITMAP
0000000000
3000000030
3800000078
3ffffffffc
380000003c
3800000038
3800000038
3800006038
380000f038
383ffff838
380000f838
380001e038
3800038038
38000e0038
38001c0038
3800700038
3800e00038
3803800038
3807000038
380e000038
381c000038
3838000038
3870000038
3870000138
38e0000138
38e0000338
38e0000338
38e0000638
38f0000e38
387fffff38
383fffff38
380ffffe38
3800000038
3800000038
3800000038
3800000038
3ffffffff8
3800000038
3800000030
3000000000
ENDCHAR
STARTCHAR 2166
ENCODING 8550
SWIDTH 903 0
DWIDTH 40 0
BBX 40 40 0 -6
BITMAP
0000000000
3000000030
3800000078
3ffffffffc
380000003c
3800000038
3800000038
3800000038
3800003038
3800007838
39fffffc38
3800003c38
3800003838
3800003838
3800003838
3800003838
3800003838
3800003838
3800003838
3800003838
3800003838
3800003838
3800003838
3800003838
3800003838
3800001c38
3800001c38
3800001c38
3800000e38
3800000e38
3800000738
38000003b8
38000001b8
3800000038
3800000038
3800000038
3ffffffff8
3800000038
3800000030
3000000000
ENDCHAR
STARTCHAR 2167
ENCODING 8551
SWIDTH 903 0
DWIDTH 40 0
BBX 40 40 0 -6
BITMAP
0000600000
00007c0000
0000780000
0000700000
0000700000
0000700000
0000700000
0000700600
0000700f00
0fffffff80
0000700780
0000700700
0000700700
0000700700
0000700700
0000700700
0000700700
0000700700
0000e00700
0000e0070c
0000e0071e
ffffffffff
0000e00000
0000e00000
0001c00000
0781c00000
00fb800000
001f800000
0007800000
000fe00000
000e780000
001c1e0000
003807c000
007001f800
00e0007f00
01c0001fff
07800007ff
0e000000f8
3800000038
e000000000
ENDCHAR
STARTCHAR 2168
ENCODING 8552
SWIDTH 903 0
DWIDTH 40 0
BBX 40 40 0 -6
BITMAP
0000300000
00003e0000
00003c0000
0000380000
0000380000
0000380000
0000380000
0000380000
0000380000
0000380000
0000380018
000038003c
7ffffffffe
0000380000
0000380000
00003c0000
0000740000
0000740000
0000760000
0000760000
0000e20000
0000e30000
0000e30000
0001c18000
0001c1c000
000380c000
000380e000
0007006000
000e067000
000fff3800
001c001c00
0038000e00
0070000780
00e00003c0
01c00001f0
03800000ff
070000007f
0e0000003c
380000001c
e000000000
ENDCHAR
STARTCHAR 2169
ENCODING 8553
SWIDTH 903 0
DWIDTH 40 0
BBX 40 40 0 -6
BITMAP
0001800000
0000e00000
0000700000
0000380000
0c00380300
0e00180780
0fffffffc0
0e000003c0
0e00000380
0e00000380
0e00000380
0e00000380
0e00000380
0ec0001b80
0e30006380
0e0c018380
0e06030380
0e03060380
0e03060380
0e1fffc380
0e318c6380
0e618c3380
0e618c3380
0e618c3380
0e618c3380
0e618c3380
0e618c3380
0e618c3380
0e618c3380
0e3f07e1c1
1c1e03c1c1
1c000001c3
1c000001e3
38000000e6
3800000076
300000007e
600000003e
600000001f
c00000000f
8000000006
ENDCHAR
STARTCHAR 216a
ENCODING 8554
SWIDTH 903 0
DWIDTH 40 0
BBX 40 40 0 -6
BITMAP
0000001800
0000001f00
0000001e00
0000001c00
0300001c00
03e0001c00
03c0001c00
0380001c00
0380001c00
0380001c0c
0380001c1e
ffffffffff
0380001c00
0380001c00
0380001c00
0380001c00
0380001c00
0380001c00
0300001c00
0000001c00
0000001c00
0018001c00
000e001c00
0007001c00
0003801c00
0001c01c00
0000e01c00
0000e01c00
0000601c00
0000001c00
0000001c00
0000001c00
0000001c00
0000001c00
0000001c00
0000003c00
00001ffc00
000001f800
0000007000
0000006000
ENDCHAR
STARTCHAR 216b
ENCODING 8555
SWIDTH 903 0
DWIDTH 40 0
BBX 40 40 0 -6
BITMAP
0000000000
000000000c
000000001e
ffffffffff
0000300000
00003e0000
00003c0000
0000380000
0000380000
0000380000
0000380000
0000380000
0000380000
00c0380000
00f8383000
00f0381800
00e0380e00
00e0380700
00e0380380
01c03801c0
01c03800e0
01c0380070
0380380078
038038003c
070038001c
060038001e
0e0038000e
1c0038000e
3800380006
3000380000
6000380000
c000380000
0000380000
0000380000
0000380000
0000780000
003ff80000
0007f00000
0000e00000
0000c00000
ENDCHAR
STARTCHAR 216c
ENCODING 8556
SWIDTH 903 0
DWIDTH 40 0
BBX 40 40 0 -6
BITMAP
0000300000
00003e0000
00003c0000
0000380000
0000380000
0000380000
0000380060
000038007c
0000380078
0000380070
0000380070
0300380070
03e0380070
03c0380070
0380380070
0380380070
0380380070
0380380070
0380380070
0380380070
0380380070
03803ffff0
0380380070
0380380060
0380380000
0380380000
0380380000
0380380000
07fff80000
0300380000
0000380000
0000380000
0000380000
0000380000
0000380000
0000380000
000038000c
000038001e
ffffffffff
0000000000
ENDCHAR
STARTCHAR 216d
ENCODING 8557
SWIDTH 903 0
DWIDTH 40 0
BBX 40 40 0 -6
BITMAP
0000000000
0000000000
0000000000
0000000000
0000000000
0030030030
003e03e03e
003c03c03c
0038038038
0038038038
0070070070
0070070070
0060060060
00e00e00e0
00c00c00c0
01c01c01c0
0180180180
0300300300
0600600604
0c00c00c0e
ffffffffff
0c00c00c00
0600600600
0300300300
0180180180
01c01c01c0
00e00e00e0
0070070070
0078078078
0038038038
003c03c03c
001c01c01c
001e01e01e
000e00e00e
000e00e00e
0006006006
0000000000
0000000000
0000000000
0000000000
ENDCHAR
STARTCHAR 216e
ENCODING 8558
SWIDTH 903 0
DWIDTH 40 0
BBX 40 40 0 -6
BITMAP
0000000000
0000000030
0000000078
3ffffffffc
0003800000
0003800000
0003800000
0003800000
0003800000
0003800000
0003800000
0003800000
0003800000
0003800000
0003800000
0003800000
0003800000
0003800000
0003800300
0003800780
0003ffffc0
0003800000
0003800000
0003800000
0003800000
0003800000
0003800000
0003800000
0003800000
0003800000
0003800000
0003800000
0003800000
0003800000
0003800000
0003800018
000380003c
7ffffffffe
0000000000
0000000000
ENDCHAR
STARTCHAR 216f
ENCODING 8559
SWIDTH 903 0
DWIDTH 40 0
BBX 40 40 0 -6
BITMAP
0000000000
0000000030
0000000078
3ffffffffc
0003800000
0003800000
0003800000
0003800000
0003800000
0003800000
0003800000
0003800000
0003800000
0003800000
0003800000
0003800000
0003800000
0003800600
0003800f00
0003ffff80
0003800780
0003800700
0003800700
0003800700
0003800700
0003800700
0003800700
0003800700
0003800700
0003800700
0003800700
0003800700
0003800700
0003800700
0003800700
0003800708
000380071c
7ffffffffe
0000000000
0000000000
ENDCHAR
STARTCHAR 2170
ENCODING 8560
SWIDTH 903 0
DWIDTH 40 0
BBX 40 40 0 -6
BITMAP
0000000000
0000000060
00000000f0
1ffffffff8
0000380000
0000380000
0000380000
0000380000
00003ffe00
0000380380
00003801c0
00003800e0
00003800e0
0000380070
0000380070
0000380070
00003800e0
00003800e0
00003801c0
0000380380
01fffffe00
0700380000
0e00380000
1c00380000
1c00380000
3800380000
3800380000
1c00380000
1c00380000
0e00380000
0700380000
01fff80000
0000380000
0000380000
0000380000
000038000c
000038001e
ffffffffff
0000000000
0000000000
ENDCHAR
STARTCHAR 2171
ENCODING 8561
SWIDTH 903 0
DWIDTH 40 0
BBX 40 40 0 -6
BITMAP
0000000000
0000000060
00000000f0
1ffffffff8
0000380000
0000380000
0000380000
0000380000
0000380000
0000380000
0000380000
0000380000
0000380000
0000380000
0000380000
000038000c
000038001e
ffffffffff
0380000000
0380000000
0380000000
0380000000
0380000000
0380000000
0380000000
0380000000
0380000000
0380000000
0380000000
0380000004
0380000004
038000000c
038000000c
0380000018
03c0000038
03fffffffc
01fffffffc
00fffffff8
0000000000
0000000000
ENDCHAR
STARTCHAR 2172
ENCODING 8562
SWIDTH 903 0
DWIDTH 40 0
BBX 40 40 0 -6
BITMAP
0000000000
0000c00000
0000f00000
0001e00000
0001c00000
0003800000
0007000000
000e00c000
001c00f800
003801f000
00e003c000
00f0078000
003c0e0000
000f1c0000
0003b80000
0001f00000
0001e00000
0003c06000
0007003800
000e001c00
003c000e00
0070000700
01e00fff80
07fffe03c0
07fff001c0
03fc7001c0
01c07000c0
00c0700000
0000700000
0000700000
0000700000
0000700000
0000700000
0000700000
0000700000
0000700000
0000700000
0000700000
0000700000
0000600000
ENDCHAR
STARTCHAR 2173
ENCODING 8563
SWIDTH 903 0
DWIDTH 40 0
BBX 40 40 0 -6
BITMAP
0000000000
0000000018
000000003c
fffffffffe
000000001e
000000001c
000600001c
000780001c
000f00001c
000e00001c
001c00001c
003800001c
007006001c
00e007c01c
01c00f801c
07001e001c
07803c001c
01e070001c
0078e0001c
001dc0001c
000f80001c
000f00001c
001e03001c
003801c01c
007000e01c
01e000701c
038000381c
0f007ffc1c
3ffff01e1c
3fff800e1c
1fe0000e1c
0e00000638
0600000038
0000000038
0000000070
00000000f0
000001ffe0
0000000fc0
0000000380
0000000300
ENDCHAR
STARTCHAR 2174
ENCODING 8564
SWIDTH 903 0
DWIDTH 40 0
BBX 40 40 0 -6
BITMAP
0060001800
007c001f00
0078001e00
0070001c00
0070001c00
0070001c00
0070001c00
0070001c00
0070001c00
0070001c00
0070001c00
0070001c00
0070001c00
0071001c0c
0073801c1e
ffffc7ffff
0070001c00
0070001c00
0070001c00
0070001c00
0070001c00
0070001c00
0070001c00
0070001c00
0070001c00
0070001c00
0070001c00
0070001c00
00e0001c00
00e0001c00
00e0001c00
01c0001c00
01c0001c00
0180001c00
0380001c00
0300001c00
0600001c00
0c00001c00
1800001c00
3000001800
ENDCHAR
STARTCHAR 2175
ENCODING 8565
SWIDTH 903 0
DWIDTH 40 0
BBX 40 40 0 -6
BITMAP
0018003000
001f003e00
001e003c00
001c003800
001c003800
001c003800
001c003800
001c003800
001c003800
001c003800
001c003800
001c003800
001c003800
001c00380c
001c00381e
ffffffffff
001c003800
001c003800
001c003800
001c003800
001c003800
001c003800
061c003800
039c003800
01f8003800
0078003800
003c003800
003f003800
0077803800
0073c03800
0061c03800
00e0c03800
00c0003800
01c0003800
0180003800
0300003800
0600003800
0c00003800
1800003800
3000003000
ENDCHAR
STARTCHAR 2176
ENCODING 8566
SWIDTH 903 0
DWIDTH 40 0
BBX 40 40 0 -6
BITMAP
0000003000
0000003e00
0000003cc0
0000003870
000000383c
000000381c
000000380c
0000003800
ffffffffff
0000003800
0000003800
0300003800
03e0003800
03c0003800
0380003800
0380003800
0700003800
0700003800
0700003800
0e00003800
0e000c1c00
0e001e1c00
1fffff1c00
0c000f1c00
00000e1c00
00000e0e00
00000e0e00
00000e0e00
00000e0700
00000e0700
00000e0701
00000e0381
00001c0381
00001c01c3
00003c01e3
00007800f6
003ff0007e
0007e0003f
0001c0001f
000180000e
ENDCHAR
STARTCHAR 2177
ENCODING 8567
SWIDTH 903 0
DWIDTH 40 0
BBX 40 40 0 -6
BITMAP
0000000000
0000000c00
0000001e00
03ffffff00
0000000f00
0000000e00
0000000e00
0000000e00
0000000e00
00fffffe00
0000000e00
0000000e00
0000000e00
0000000e0c
0000000e1e
ffffffffff
0007000000
0007000000
0007000000
000e000000
000e0000c0
001c0001e0
003ffffff0
00180000f0
00000000e0
00000000e0
00000000e0
00000000e0
00000000e0
00000000e0
00000000e0
00000000e0
00000001c0
00000001c0
00000003c0
0000000780
00001fff00
0000007e00
0000001c00
0000001800
ENDCHAR
STARTCHAR 2178
ENCODING 8568
SWIDTH 903 0
DWIDTH 40 0
BBX 40 40 0 -6
BITMAP
0000000000
0000000300
0000000780
0fffffffc0
00000003c0
0000000380
0000000380
0000000380
0000000380
0000000380
0300000380
03ffffff80
0380000380
0380000300
0700000000
0700000000
0e00000000
0e000000c0
0e000001e0
1ffffffff0
0c000000f0
00000000e0
00000000e0
00000000e0
00300000e0
001c0000e0
000e0000e0
00070000e0
00038000e0
0001c000e0
0001c000e0
0000c001c0
00000001c0
0000000380
0000000780
0000000f00
00001ffe00
000000fc00
0000003800
0000003000
ENDCHAR
STARTCHAR 2179
ENCODING 8569
SWIDTH 903 0
DWIDTH 40 0
BBX 40 40 0 -6
BITMAP
0000000000
0000000300
0000000780
0fffffffc0
00000003c0
0000000380
0000000380
0000000380
0000000380
0000000380
0300000380
03ffffff80
0380000380
0380000300
0700000000
0700000000
0e00000000
0e000000c0
0e000001e0
1ffffffff0
0c000000f0
00000000e0
00000000e0
00000000e0
00000000e0
00000060e0
000000f0e0
7ffffff8e0
00000000e0
00000000e0
00000000e0
00000001c0
00000001c0
0000000380
0000000780
0000000f00
00001ffe00
000000fc00
0000003800
0000003000
ENDCHAR
STARTCHAR 217a
ENCODING 8570
SWIDTH 903 0
DWIDTH 40 0
BBX 40 40 0 -6
BITMAP
0000000000
0000000300
0000000780
0fffffffc0
00007003c0
0000700380
0000700380
0000700380
0000700380
0000700380
0000700380
0300700380
03ffffff80
0380000380
0380000300
0700000000
0700000000
0700000000
0e00000000
0e000000c0
0e000001e0
1ffffffff0
0c000000f0
00000000e0
00000000e0
00000000e0
00000000e0
00000000e0
00000000e0
00000001e0
00000001c0
00000001c0
00000003c0
0000000380
0000000780
0000000f00
00001ffe00
000000fc00
0000003800
0000003000
ENDCHAR
STARTCHAR 217b
ENCODING 8571
SWIDTH 903 0
DWIDTH 40 0
BBX 40 40 0 -6
BITMAP
0000000000
0000000300
0000000780
0fffffffc0
00000003c0
0000000380
0000000380
0000000380
0000000380
0000000380
0000000380
0300000380
03ffffff80
0380070380
0380070300
0700070000
0700070000
0700070000
0e00070000
0e000700c0
0e000701e0
1ffffffff0
0c000000f0
00000000e0
00000000e0
00000000e0
00000000e0
00000000e0
00000000e0
00000001e0
00000001c0
00000001c0
00000003c0
0000000380
0000000780
0000000f00
00001ffe00
000000fc00
0000003800
0000003000
ENDCHAR
STARTCHAR 217c
ENCODING 8572
SWIDTH 903 0
DWIDTH 40 0
BBX 40 40 0 -6
BITMAP
0000000300
000000c3e0
000001e3c0
0ffffff380
0000000380
0000000380
0000000380
0000000380
0000000380
0000000380
0300000380
03ffffff80
0380000380
0380000300
0700000000
0700000000
0700000000
0e00000000
0e000000c0
0e000001e0
1ffffffff0
0c000000f0
00000000e0
00000000e0
00000000e0
00000000e0
00000000e0
00000000e0
00000000e0
00000001c0
00000001c0
00000001c0
0000000380
0000000380
0000000700
0000000f00
00001ffe00
000000fc00
0000003800
0000003000
ENDCHAR
STARTCHAR 217d
ENCODING 8573
SWIDTH 903 0
DWIDTH 40 0
BBX 40 40 0 -6
BITMAP
0030060000
003c07c000
0078078000
0070070000
00e0070000
01c0070000
0380070000
0700070000
0600070000
0c00070000
1818070000
301f070000
601e070000
003c070000
0038070000
0070070000
00f0070000
00e0070000
01c0070000
03c0070000
07c0070000
0fc0070000
0dc0070000
19c0070000
31c0070000
61c0070000
c1c0070000
01c0070000
01c0070001
01c0070001
01c0070003
01c0070003
01c0070006
01c0070006
01c007000e
01c007801f
01c007ffff
01c003fffe
01c001fff8
0180000000
ENDCHAR
STARTCHAR 217e
ENCODING 8574
SWIDTH 903 0
DWIDTH 40 0
BBX 40 40 0 -6
BITMAP
0003000000
0003e00000
0003c00000
0003800000
0003800000
0003800000
0003800000
0003800000
00038c0600
0083860300
0083830180
00838381c0
018381c0e0
018381c0e0
038380e070
038380f078
0703807038
0f03807038
0f03803018
0e03800000
0c03800000
0003800000
0003800000
0003800000
0003800000
0003800000
0003800000
0003800000
0003800000
0003800000
0003800000
0003800000
0003800000
0003800000
0003800000
0003800000
0003800000
0003800000
0003800000
0003000000
ENDCHAR
STARTCHAR 2221
ENCODING 8737
SWIDTH 903 0
DWIDTH 40 0
BBX 40 40 0 -6
BITMAP
0180060000
01f007c000
01e0078000
01c0070000
01c0070000
01c0070000
01c0070000
01c0070000
01c0070000
01e0070000
09f0070000
09d8070000
19dc070000
19ce070000
39ce070000
31c7070000
71c7070000
e1c3070000
e1c0070000
c1c0070000
01c0070000
01c0070000
01c0070000
01c0070000
01c0070000
01c0070000
01c0070000
01c0070000
01c0070002
01c0070002
01c0070006
01c0070006
01c007000c
01c007000c
01c007001c
01c007803e
01c007fffe
01c003fffc
01c000fff0
0180000000
ENDCHAR
STARTCHAR 2222
ENCODING 8738
SWIDTH 903 0
DWIDTH 40 0
BBX 40 40 0 -6
BITMAP
0000003000
0000003e00
0000003c00
0000603800
0000f03800
0ffff83800
0000783800
0000703800
0000703800
0000703800
0000703800
0000703800
0000703800
0000703800
0000703800
0000703800
0000703800
0000703800
0ffff03800
0000703800
0000603800
0000003800
0000003800
000000380c
000000381e
ffffffffff
0000003800
0000003800
0000003800
0000003800
0000003800
0000003800
0000003800
0000003800
0000003800
0000003800
0000003800
0000003800
0000003800
0000003000
ENDCHAR
STARTCHAR 2223
ENCODING 8739
SWIDTH 903 0
DWIDTH 40 0
BBX 40 40 0 -6
BITMAP
0000000000
00000007e0
000003fff0
0303fffff8
03fff80000
0380000000
0380000000
0380018000
038001f000
038001e000
038001c000
038001c000
038001c000
038001c000
038001c000
038001c000
038001c00c
038001c01e
03ffffffff
038001c000
038001c000
038001c000
038001c000
038001c000
038001c000
070001c000
070001c000
070001c000
070001c000
060001c000
0e0001c000
0e0001c000
0c0001c000
1c0001c000
180001c000
380001c000
300001c000
600001c000
c00001c000
0000018000
ENDCHAR
STARTCHAR 2224
ENCODING 8740
SWIDTH 903 0
DWIDTH 40 0
BBX 40 40 0 -6
BITMAP
0000000000
0c00000600
0700000f00
0381ffff80
01c0000780
01c0000700
00c0000700
0000000700
0000000e00
0008000e00
0008000e00
c018001c00
7010001c0c
3830001c1e
1c30003fff
1c6000180f
0c6000000e
006000000e
00c000000e
00c000000e
01c000000e
018000000e
038000000e
030000000e
070000000e
070000000e
0e0000000e
1e0000000e
fe0000000e
3c0000001e
1c0000001c
1c0000001c
0e0000003c
0e00000038
0f00000078
0f000000f0
0f0001ffe0
0f00000fc0
0600000380
0000000300
ENDCHAR
STARTCHAR 2225
ENCODING 8741
SWIDTH 903 0
DWIDTH 40 0
BBX 40 40 0 -6
BITMAP
0000000000
0000000600
0180000f00
01ffffff80
01c0000780
01c0000700
01c0000700
01c0000700
01c0000700
01c0000700
01c0000700
01c0000700
01c0000700
01c0000700
01c0000700
01ffffff00
0180000700
0000000700
0000000700
0000000700
0000000700
0000000700
0180000700
01ffffff00
01c0000700
01c0000700
01c0000700
01c0000700
01c0000700
01c0000700
01c0000700
01c0000700
01c0000700
01c0000700
01c0000700
01c0000700
03ffffff00
0180000700
0000000700
0000000600
ENDCHAR
STARTCHAR 2226
ENCODING 8742
SWIDTH 903 0
DWIDTH 40 0
BBX 40 40 0 -6
BITMAP
0000000000
0000000030
0000000078
7ffffffffc
0000380000
0000380000
0000380000
0000380000
0000380000
0000380000
0000380000
0000380000
0000380000
0000380000
0000380000
0000380000
0000380000
0000380180
00003803c0
0fffffffe0
0000380000
0000380000
0000380000
0000380000
0000380000
0000380000
0000380000
0000380000
0000380000
0000380000
0000380000
0000380000
0000380000
0000380000
0000380018
000038003c
fffffffffe
0000000000
0000000000
0000000000
ENDCHAR
STARTCHAR 2227
ENCODING 8743
SWIDTH 903 0
DWIDTH 40 0
BBX 40 40 0 -6
BITMAP
0000000000
000000000c
000000001e
ffffffffff
0000380000
0000380000
0000380000
0000380000
0000380000
0000380000
00c0380c00
00f8380f80
00f0380f00
00e0380e00
00e0380e00
00e0380e00
00e0380e00
00e0380e00
00e0380e00
00e0380e00
00e0380e00
00e0380e00
00e0380e00
00e0380e00
00e0380e00
01c0380e00
01c0380e00
01c0380e00
0180380e01
0380380e01
0300380e03
0700380e03
0600380f06
0c00380fff
18003807ff
30003803fe
6000380000
c000380000
0000380000
0000300000
ENDCHAR
STARTCHAR 2228
ENCODING 8744
SWIDTH 903 0
DWIDTH 40 0
BBX 40 40 0 -6
BITMAP
0000000000
0000000000
0c00000030
0e00000078
0ffffffffc
0e0380e03c
0e0380e038
0e0380e038
0e0380e038
0e0380e038
0e0380e038
0e0380e038
0e0380e038
0e0380e038
0e0380e038
0e0380e038
0e0380e038
0e0380e038
0e0380e038
0e0380e038
0e0380e038
0e0380e038
0e0380e038
0e0380e038
0e0380e038
0e0380e038
0e0380e038
0e0380e038
0e0380e038
0e0380e038
0e0380e038
0e0380e038
0e0380e038
0e0380e038
0e0380e038
0e0380e078
0e0380eff8
0e0300c0f0
0e000000e0
0c000000c0
ENDCHAR
STARTCHAR 2229
ENCODING 8745
SWIDTH 903 0
DWIDTH 40 0
BBX 40 40 0 -6
BITMAP
0000000000
0000000000
3000000030
3800000078
3ffffffffc
380701c03c
380701c038
380701c038
380701c038
380701c038
380701c038
380701c038
380701c038
380701c038
380701c038
380e01c038
380e01c038
380e01c0b8
380e01c0b8
381c01c0b8
381c01c1b8
381801e338
383801ffb8
383000ffb8
3870007f38
3860000038
38c0000038
3980000038
3b00000038
3e00000038
3800000038
3800000038
3800000038
3800000038
3800000038
3800000078
3800000ff8
38000001f8
3800000070
3000000060
ENDCHAR
STARTCHAR 222a
ENCODING 8746
SWIDTH 903 0
DWIDTH 40 0
BBX 40 40 0 -6
BITMAP
0000000000
0000000000
0000000000
0000000300
0000000780
03ffffffc0
00000003c0
0000000380
000c000380
0007000380
0003800380
0001e00380
0000f00380
0000780380
0000380380
0000180380
0000000380
0000000384
000000038e
ffffffffff
0000000380
0000000380
0000000380
000c000380
0007000380
0003c00380
0001e00380
0000f00380
0000780380
0000380380
0000180380
0000000380
0000000380
0000000380
0000000380
03ffffff80
0000000380
0000000300
0000000000
0000000000
ENDCHAR
STARTCHAR 222b
ENCODING 8747
SWIDTH 903 0
DWIDTH 40 0
BBX 40 40 0 -6
BITMAP
0000000000
00000000c0
00000001e0
1ffffffff0
0018000000
001e018000
003c00e000
0038003800
0070001e00
00e0000f00
01c0000780
0380000380
0700000180
0c0000000c
000000001e
ffffffffff
0007000000
0007000000
0007000000
000e000000
000e000000
001c000600
001c000f00
003fffff80
0018000780
0000000700
0000000700
0000000700
0000000700
0000000700
0000000700
0000000700
0000000f00
0000000e00
0000001e00
0000003c00
0001fff800
000007f000
000001e000
000001c000
ENDCHAR
STARTCHAR 222c
ENCODING 8748
SWIDTH 903 0
DWIDTH 40 0
BBX 40 40 0 -6
BITMAP
0000000000
0018006000
001f007c00
001e007800
001c007000
001c007000
001c007000
001c007000
001c007000
001c007000
001c007000
001c007000
001c007018
001c00703c
7ffc007ffe
001c007000
001c007000
001c007000
001c007000
001c007000
001c007000
001c007000
001c007000
001c007000
001c007000
001c007000
001c007000
001c007000
001c007000
001c007000
001c007000
001c007000
001c007000
001c007000
001c007000
001c00700c
001c00701e
ffffffffff
0000000000
0000000000
ENDCHAR
STARTCHAR 222d
ENCODING 8749
SWIDTH 903 0
DWIDTH 40 0
BBX 40 40 0 -6
BITMAP
0000000000
0600000180
07c00001f0
07800001e0
07000001c0
07000001c0
07000001c0
07000001c0
07000001c0
07000001c0
07000001c0
07ffffffc0
07000001c0
07000001c0
07000001c0
07000001c0
07000001c0
070e0001c0
07038001c0
0700e001c0
07007801c0
07003c01c0
07001e01c0
07000f01c0
07000781c0
07000381c0
07000181c0
07000001c0
07000001c0
07000001c0
07000001c0
07000001c0
07000001c0
07000001c0
07000001c0
07ffffffc0
07000001c0
0700000180
0600000000
0000000000
ENDCHAR
STARTCHAR 222e
ENCODING 8750
SWIDTH 903 0
DWIDTH 40 0
BBX 40 40 0 -6
BITMAP
0000000000
0000001e00
000001ff80
00001fffc0
0007f80000
07fe380000
0000380600
00003807c0
0000380780
01c0380f00
0070380e00
0038381c00
001c381800
000c383018
000038203c
7ffffffffe
0000700000
0000700000
0000e00000
0000e00000
0001c00060
0001c000f0
0003fffff8
0001800078
0000000070
0000000070
0000000070
0000000070
0000000070
0000000070
0000000070
0000000070
0000000070
00000000f0
00000000e0
00000001e0
000001ffc0
0000001f80
0000000700
0000000600
ENDCHAR
STARTCHAR 222f
ENCODING 8751
SWIDTH 903 0
DWIDTH 40 0
BBX 40 40 0 -6
BITMAP
0000300000
00003e0000
00003c0000
0000380000
0000380e00
000038ff00
00003fff80
0003ff8000
007ff80000
0ff0380000
0000380000
0000380000
00003800c0
00003801e0
0ffffffff0
0000380000
0000380000
0000380000
000038000c
000038001e
ffffffffff
0000780000
0000f80000
0000f80000
0001b80000
0003b80000
0007380000
000e380000
001c380000
0038380000
0070380000
00e0380000
01c0380000
0380380000
0e00380000
3800380000
e000380000
0000380000
0000380000
0000300000
ENDCHAR
STARTCHAR 2230
ENCODING 8752
SWIDTH 903 0
DWIDTH 40 0
BBX 40 40 0 -6
BITMAP
0000000000
0000000700
0000003f80
000001ffc0
00001fe000
0003fe0000
003e380000
07e0380000
0000380000
0000380000
0000380000
00003800c0
00003801e0
0ffffffff0
0000380000
0000380000
0000380000
0000380000
0000380000
0000380018
000038003c
7ffffffffe
0000740000
0000760000
0000e60000
0000e30000
0001c30000
0001c18000
000380c000
0007007000
000e003800
001c001c00
0038000f00
00700007c0
00e00003f0
01c00000ff
038000007f
0e0000001e
3800000006
e000000000
ENDCHAR
STARTCHAR 2231
ENCODING 8753
SWIDTH 903 0
DWIDTH 40 0
BBX 40 40 0 -6
BITMAP
0000000000
0000001f00
000001ffc0
00007fffe0
000ffe0000
1ffc000000
0018000000
001e018000
003c00e000
0038003800
0070001e00
00e0000f00
01c0000780
0380000380
0700000180
0c0000000c
000000001e
ffffffffff
0007000000
0007000000
000e000000
000e000000
001c000600
001c000f00
003fffff80
0018000780
0000000700
0000000700
0000000700
0000000700
0000000700
0000000700
0000000f00
0000000e00
0000001e00
0000003c00
0001fff800
000007f000
000001e000
000001c000
ENDCHAR
STARTCHAR 2232
ENCODING 8754
SWIDTH 903 0
DWIDTH 40 0
BBX 40 40 0 -6
BITMAP
0018003000
001f003e00
001e003c00
001c003800
001c00380c
001c00381e
ffffffffff
001c003800
001c003800
001c003800
001c003800
001c003800
001c003800
001ffff800
0018003000
0000000000
00c0000000
00f8000000
00f0000000
00e0000000
00e0000000
00e0000000
00e0000000
00e0000000
00e0000000
00e0000000
00e0000000
00e0000000
00e0000010
00e0000010
00e0000030
00e0000030
00e0000060
00e0000060
00e00000e0
00f00001f0
00fffffff0
007fffffe0
003fffff80
0000000000
ENDCHAR
STARTCHAR 2233
ENCODING 8755
SWIDTH 903 0
DWIDTH 40 0
BBX 40 40 0 -6
BITMAP
0000018000
000001f000
000001e000
000021c000
000071c000
fffff9c000
000001c000
000001c000
000001c000
0c30c1c000
0f3cf1c000
0e38e1c000
0e38e1c000
0e38e1c000
0e38e1c000
0e38e1c000
1c30c1c000
1c71c1c000
1c71c1c000
1c6181c000
38e381c000
30c381c000
30c301c000
618601c000
618601c000
30c301c000
38e381c000
186181c000
1c71c1c000
1c71c1c000
1c71c1c001
0e38e1c001
0e38e1c003
0e38e1c003
0e38e1c006
0e38e1e00e
0e38e1ffff
0c30c0ffff
0000007ffe
0000000000
ENDCHAR
STARTCHAR 2234
ENCODING 8756
SWIDTH 903 0
DWIDTH 40 0
BBX 40 40 0 -6
BITMAP
0030000000
003e180018
003c1f001f
00781e001e
00701c181c
00701c1e1c
00e01c1c1c
00e01c1c1c
01c01c1c1c
01c01c1c1c
03c01c1c1c
03c01c1c1c
07c01c1c1c
07c01c1c1c
0fc01c1c1c
0fc01c1c1c
1dc01c1c1c
39c01c1c1c
31c01c1c1c
61c01c1c1c
c1c01c1c1c
01c01c1c1c
01c01c1c1c
01c01c1c1c
01c01c1c1c
01c0381c1c
01c0381c1c
01c0381c1c
01c0381c1c
01c0301c1c
01c0701c1c
01c0701c1c
01c0601c1c
01c0e01c1c
01c0c0181c
01c1c0001c
01c180001c
01c300001c
01c600001c
018c000018
ENDCHAR
STARTCHAR 2235
ENCODING 8757
SWIDTH 903 0
DWIDTH 40 0
BBX 40 40 0 -6
BITMAP
0000180000
00001e0000
00003c0000
00007a0000
0000f30000
0001c1c000
000380e000
000e007800
001c001e00
00700007c0
00effffdff
038000007f
0e0000003c
380000030c
e000000780
03ffffffc0
00000007c0
0000001e00
000fc07000
001871c000
00381e0000
0038738000
001fc07800
0000000e00
0000000e00
000001fc00
00001f8000
0001f00000
000f000000
001fffffc0
0000000780
0000000e00
0000003800
000000e000
0000038000
00000e0000
0000380000
0000e00000
0001fffff8
0000000000
ENDCHAR
STARTCHAR 2236
ENCODING 8758
SWIDTH 903 0
DWIDTH 40 0
BBX 40 40 0 -6
BITMAP
0060000000
007c000060
00798000f0
0071fffff8
00f1c00078
00e1c0c070
00e1c0f870
01c1c0f070
01c1c0e070
0381c0e070
0381c0e070
0781c0e070
0781c0e070
0f81c0e070
0f81c0e070
1f81c0e070
3b81c0e070
3381c0e070
6381c0e070
c381c0e070
0381c0e070
0381c0e070
0381c0e070
0381c0e070
0381c0e070
0381c0e070
0381c0e070
0381c0e070
0381c0e070
038180e070
038380e039
038380e039
038300e039
038700e01d
038600e01f
038e00e00f
038c00e007
039800e003
03b000e000
030000c000
ENDCHAR
STARTCHAR 2237
ENCODING 8759
SWIDTH 903 0
DWIDTH 40 0
BBX 40 40 0 -6
BITMAP
0000e00000
0000380000
00001c0000
0000370000
0000738000
0000e1c000
0001c0e000
0003807800
000f003e00
001c000f80
00700007e0
01c00001ff
03980000ff
0e1f000038
381e000018
e01c000080
00380001c0
003fffffe0
0070000000
00e0000000
01c0003000
0380007800
073ffffc00
0e00007c00
180001e000
0000038000
00000e0000
0000380000
0000e00000
0003800000
000e000008
001c000008
0038000018
0070000018
0070000030
0078000070
007ffffff8
003ffffff8
000ffffff0
0000000000
ENDCHAR
STARTCHAR 2238
ENCODING 8760
SWIDTH 903 0
DWIDTH 40 0
BBX 40 40 0 -6
BITMAP
0000000000
3000000030
3800000078
3ffffffffc
380000003c
3800000038
3801800038
3800e00038
3800700038
3800380038
3800380038
38001c0038
38001c0638
38000c0f38
3bffffffb8
3838000038
3838000038
3838000038
3838000038
3838000038
3838000038
3838000038
3838000038
3838000038
3838000038
3838000038
3838000038
383c000038
383ffffc38
381ffffe38
3807fffe38
3800000038
3800000038
3800000038
3800000038
3800000078
3800003ff8
38000003f0
38000000e0
30000000c0
ENDCHAR
STARTCHAR 2239
ENCODING 8761
SWIDTH 903 0
DWIDTH 40 0
BBX 40 40 0 -6
BITMAP
0000000000
1800000060
1c000000f0
1ffffffff8
1c0701c078
1c0701c070
1c0701c070
1c0701c070
1c0701c070
1c0701c070
1c0701c070
1c0701c070
1c0701c070
1c0701c070
1c0701c070
1c0701c070
1c0701c070
1c0701c070
1c0701c070
1ffffffff0
1c0701c070
1c0701c070
1c0701c070
1c0701c070
1c0701c070
1c0701c070
1c0701c070
1c0701c070
1c0701c070
1c0701c070
1c0701c070
1c0701c070
1c0701c070
1c0701c070
1c0701c070
1c0701c0f0
1c0701dff0
1c0701c7e0
1c060181c0
1800000180
ENDCHAR
STARTCHAR 223a
ENCODING 8762
SWIDTH 903 0
DWIDTH 40 0
BBX 40 40 0 -6
BITMAP
0000000000
3000000030
3800000078
3ffffffffc
380000003c
3800000038
3800060038
386007c038
387c078038
3878070038
3870070038
3870070038
3870070038
3870078038
38700ec038
38700ec038
38700c6038
38701c7038
3870183838
3870303c38
3870701e38
3870600ff8
3870c007f8
38718003b8
38730001b8
3876000038
3870000038
3870000038
3878000038
387ffffe38
383fffff38
380fffff38
3800000038
3800000038
3800000038
3800000078
3800003ff8
38000003f0
38000000e0
30000000c0
ENDCHAR
STARTCHAR 223b
ENCODING 8763
SWIDTH 903 0
DWIDTH 40 0
BBX 40 40 0 -6
BITMAP
0000000000
0800000008
080000001c
180000003e
1fffffffff
380000001f
380000001c
7000000018
f000000030
e000000020
c000000000
001800c000
001c01e000
001ffff000
001c00f000
001c00e000
001c00e000
001c00e000
001c00e000
001d80e000
001ce0e000
001c70e000
001c38e000
001c38e000
001c1ce000
001c1ce000
001c0ce000
001c00e000
001c00e000
003800e000
003800e001
007000e001
007000e003
00e000e003
01c000e006
038000f00e
070000ffff
0e00007fff
3800001ffe
e000000000
ENDCHAR
STARTCHAR 223c
ENCODING 8764
SWIDTH 903 0
DWIDTH 40 0
BBX 40 40 0 -6
BITMAP
0018000000
001f000000
001e000000
001c000000
001c000600
0038000f00
003fffff80
0070000f80
0078001e00
00f8001c00
01cc003800
0186007000
030300e000
060181c000
0c00c38000
1800770000
30003e0000
00003e0000
0000770000
0001e3c000
000380f000
000f007e00
001c001fe0
0070e007ff
01c03801ff
07001e007e
3c000f000e
e000078000
0000038000
0000018000
0000000000
0000000000
0000000000
000001f800
00001f8000
0001fc0000
001fe00000
001f800000
000e000000
0006000000
ENDCHAR
STARTCHAR 223d
ENCODING 8765
SWIDTH 903 0
DWIDTH 40 0
BBX 40 40 0 -6
BITMAP
0000000000
000000000c
000000001e
ffffffffff
0000000000
0000000000
0000000000
0000000000
180c060180
1c1e0703c0
1fff07ffe0
1c0f0701e0
1c0e0701c0
1c0e0701c0
1c0e0701c0
1c0e0701c0
1c0e0701c0
1c0e0701c0
1c0e0701c0
1c0e0701c0
1c0e0701c0
1c0e0701c0
1c0e0701c0
1c0e0701c0
1c0e0701c0
1c0e0701c0
1c0e0701c0
1c0e7701c0
1c0fe701c0
1c0f8701c0
1c0f0e01c0
1c0e0e01c1
38060e01c1
38001c01c3
30001c01c3
70003801e6
60007001ff
6000e000ff
c001c0007e
8007000000
ENDCHAR
STARTCHAR 223e
ENCODING 8766
SWIDTH 903 0
DWIDTH 40 0
BBX 40 40 0 -6
BITMAP
0000000000
00000000c0
00000001e0
0ffffffff0
0000380000
0000380000
0000380000
0000380000
0000380000
0000380000
0000380000
0000380000
0000380000
000038000c
000038001e
ffffffffff
0000380000
0000380000
0000380000
0000380000
0000380000
0600380180
07c03801f0
07803801e0
07003801c0
07003801c0
07003801c0
07003801c0
07003801c0
07003801c0
07003801c0
07003801c0
07003801c0
07003801c0
07003801c0
07003801c0
07003801c0
0fffffffc0
06000001c0
0000000180
ENDCHAR
STARTCHAR 223f
ENCODING 8767
SWIDTH 903 0
DWIDTH 40 0
BBX 40 40 0 -6
BITMAP
0000000000
0000300000
00003e0000
00003c0000
0000380000
0000380000
0000380000
0000383800
000039fc00
00003ffe00
00fff80000
0000380000
3000380030
3e0038003e
3c0038003c
3800380038
3800380038
3800380038
3800380038
3800380c38
3800381e38
39ffffff38
3800380038
3800380038
3800380038
3800380038
3800380038
3800380038
3800380038
3800380038
3800380038
3800380038
3800380038
3800300038
3800000038
3800000038
3800000038
7ffffffff8
3000000038
0000000030
ENDCHAR
STARTCHAR 2240
ENCODING 8768
SWIDTH 903 0
DWIDTH 40 0
BBX 40 40 0 -6
BITMAP
0000000018
003000001f
001c00001e
000e00001c
000700001c
180706181c
1c030f1f1c
1fffff9e1c
1c00001c1c
1c00001c1c
1c00001c1c
1c00001c1c
1c00001c1c
1c00001c1c
1c00001c1c
1c00001c1c
1c00001c1c
1c00001c1c
1c00001c1c
1c00001c1c
1c00001c1c
1c00001c1c
1c00001c1c
1c00001c1c
1c00001c1c
1c00001c1c
1c00001c1c
1c00001c1c
1c00001c1c
1c0000181c
380000001c
380000001c
380000001c
300000001c
700000001c
600000003c
6000000ffc
c0000001f8
8000000070
0000000060
ENDCHAR
STARTCHAR 2241
ENCODING 8769
SWIDTH 903 0
DWIDTH 40 0
BBX 40 40 0 -6
BITMAP
0000000000
0000000000
0000000000
000000000c
000000001e
0000ffffff
000001c00f
000001c00e
000c01c00e
001e01c00e
7fff01c00e
01c001c00e
01c001c00e
01c001c00e
01c001c00e
01c001c00e
01c001c00e
01c001c00e
01c001c00e
01c001c00e
01c003800e
01c003800e
01c003800e
01c003800e
01c003800e
01c007000e
01c007000e
01cf87000e
01f80e000e
0fc00e001e
fe001c001c
f8001c001c
700038003c
3000700038
0000e00078
0001c000f0
000380ffe0
0007000fc0
001c000380
0070000300
ENDCHAR
STARTCHAR 2242
ENCODING 8770
SWIDTH 903 0
DWIDTH 40 0
BBX 40 40 0 -6
BITMAP
0000000018
000000001f
000000001e
000000001c
000000001c
300180601c
3803c07c1c
3fffe0781c
3801e0701c
3801c0701c
3801c0701c
3801c0701c
3801c0701c
3801c0701c
3801c0701c
3801c0701c
3801c0701c
3801c0701c
3801c0701c
3801c0701c
3801c0701c
3801c0701c
3801c0701c
3801c0701c
3801c0701c
3801c0701c
3801c0701c
3fffc0701c
3801c0701c
3801c0601c
380180001c
300000001c
000000001c
000000001c
000000001c
000000003c
0000001ffc
00000001f8
0000000070
0000000060
ENDCHAR
STARTCHAR 2243
ENCODING 8771
SWIDTH 903 0
DWIDTH 40 0
BBX 40 40 0 -6
BITMAP
0000000000
0003800000
0007c00000
001fe0000c
00fe00001e
07f01fffff
7e7000e00f
007000e00e
007000e00e
007000e00e
007000e00e
007000e00e
007000e00e
007000e00e
007020e00e
007070e00e
fffff8e00e
007000e00e
007000e00e
007000e00e
007001c00e
007001c00e
007001c00e
00e001c00e
00e001c00e
00e003800e
00e003800e
01c003800e
01c007000e
01c007001e
03800e001c
03800e001c
07001c003c
0700380038
0e00700078
0c00e000f0
1801c07fe0
3003800fc0
600e000380
c038000300
ENDCHAR
STARTCHAR 2244
ENCODING 8772
SWIDTH 903 0
DWIDTH 40 0
BBX 40 40 0 -6
BITMAP
0000000018
018000001f
01f000001e
01e000001c
01c000001c
01c000301c
01c0003e1c
01c0c03c1c
01c0f0381c
01c0e0381c
01c0e0381c
01c0e6381c
ffffff381c
0380e0381c
0380e0381c
0380e0381c
0380e0381c
0380e0381c
0700e0381c
0701c0381c
0701c0381c
0701c0381c
0e0380381c
0e0380381c
1e0700381c
1f8700381c
03ee00381c
007e00381c
001f00381c
003bc0301c
0071e0001c
00e0f0001c
01c070001c
038030001c
070000001c
0e0000003c
1c00000ffc
38000001f8
6000000070
0000000060
ENDCHAR
STARTCHAR 2245
ENCODING 8773
SWIDTH 903 0
DWIDTH 40 0
BBX 40 40 0 -6
BITMAP
0000000018
000000001f
000000001e
060c18001c
07cf9f001c
078f1e181c
070e1c1f1c
070e1c1e1c
070e1c1c1c
070e1c1c1c
0e1c381c1c
0e1c381c1c
0e1c381c1c
1c38701c1c
1c38701c1c
1830601c1c
3070e01c1c
3060c01c1c
60c1801c1c
c183001c1c
c183001c1c
60c1801c1c
3060c01c1c
3870e01c1c
1c38e01c1c
1c38701c1c
0e1c301c1c
0e1c381c1c
0e1c381c1c
070e1c181c
070e1c001c
070e1c001c
03870e001c
03870e001c
03870e001c
018306003c
0000000ffc
00000001f8
0000000070
0000000060
ENDCHAR
STARTCHAR 2246
ENCODING 8774
SWIDTH 903 0
DWIDTH 40 0
BBX 40 40 0 -6
BITMAP
0060000000
007c000000
0078000000
0070000000
00f0000000
00e0000000
00e00000c0
01e00001e0
01fffffff0
01c00000e0
03800000e0
03800000e0
07000000e0
06000600e0
0e000f00e0
1cffff80e0
18000780e0
30000700e0
60000700e0
c0000700e0
00000700e0
00000700e0
00c00700e0
00e00700e0
00ffff01e0
00e00601c0
00e00003c0
00e000ff80
00e0003f00
00e0000e01
00e0000c01
00e0000003
00e0000003
00e0000006
00e0000006
00f000000e
00ffffffff
007fffffff
001ffffffe
0000000000
ENDCHAR
STARTCHAR 2247
ENCODING 8775
SWIDTH 903 0
DWIDTH 40 0
BBX 40 40 0 -6
BITMAP
0180000000
01f0000000
01e0000000
01c0000000
03c0000000
0380000018
038000003c
07fffffffe
070000001e
070000001c
0e0000001c
0e0000601c
1c0000f01c
18fffff81c
380070001c
300070001c
600070001c
400070001c
000070001c
000070001c
000070061c
0000700f1c
0fffffff9c
000070001c
000070001c
000070001c
000070001c
000070001c
000070001c
000070001c
000070003c
0000700038
0000700038
0000700078
0000700070
00007000f0
000073ffe0
0000603fc0
0000000780
0000000700
ENDCHAR
STARTCHAR 2248
ENCODING 8776
SWIDTH 903 0
DWIDTH 40 0
BBX 40 40 0 -6
BITMAP
0180000000
01f0000000
01e0000000
01c0000000
03c0000000
0380000018
038000003c
07fffffffe
070000001e
070000001c
0e0600001c
0e07c0001c
1c0780001c
180700001c
380e00001c
300e0c001c
601c0f801c
40380f001c
00701e001c
00e03c001c
00f838001c
000e70001c
0003e0001c
0001c0001c
000383001c
000701c01c
000e00e01c
001c00701c
003800701c
00e07ff81c
03ffe0383c
03fe003838
01e0003838
00e0001878
0000000070
00000001f0
000003ffe0
0000003fc0
0000000780
0000000700
ENDCHAR
STARTCHAR 2249
ENCODING 8777
SWIDTH 903 0
DWIDTH 40 0
BBX 40 40 0 -6
BITMAP
0006018000
0007c1f000
000781e000
000701c000
000701c000
000701c000
000701c000
000701c000
000701c000
000701c000
000701c000
000701c000
000701c000
000701c000
000701c018
000701c03c
7fff01fffe
000701c000
000701c000
000701c000
000701c000
000701c000
000701c000
000701c000
000701c000
000701c000
000701c000
000701c000
000701c000
000701c001
000701c001
000701c003
000701c003
0007f1c006
007e01e00e
07f001ffff
ff8000ffff
fc00007ffe
7000000000
3000000000
ENDCHAR
STARTCHAR 224a
ENCODING 8778
SWIDTH 903 0
DWIDTH 40 0
BBX 40 40 0 -6
BITMAP
0600000000
07c0000000
0780000000
0700000000
07000000c0
07000001e0
07fffffff0
0700000000
0700000000
0700000000
0700000000
0700000000
0780000000
07fffffff8
03fffffffc
00fffffffc
0000000000
0000000000
0000000000
0000000000
000000000c
000000001e
ffffffffff
000701c000
000701c000
000701c000
000701c000
000e01c000
000e01c000
001c01c000
001c01c001
003801c001
007001c003
00e001c003
01c001c006
038001e00e
070001ffff
0e0000ffff
3800007ffe
e000000000
ENDCHAR
STARTCHAR 224b
ENCODING 8779
SWIDTH 903 0
DWIDTH 40 0
BBX 40 40 0 -6
BITMAP
0000600000
00007c0000
0000780000
0000700000
0000700000
00007000c0
00007001e0
00007ffff0
0000700000
0000700000
0000700000
0000700000
0000700000
000070000c
000070001e
ffffffffff
0000000000
0000000000
0000300000
00003e0000
00003c0000
0000380000
0000380000
0000380000
00003800c0
00003801e0
1ffffffff0
0000380000
0000380000
0000380000
0000380000
0000380000
0000380000
0000380000
0000380000
0000380000
0000380000
0000380000
0000380000
0000300000
ENDCHAR
STARTCHAR 224c
ENCODING 8780
SWIDTH 903 0
DWIDTH 40 0
BBX 40 40 0 -6
BITMAP
1800000000
1f00000018
1e0000003c
1c00fffffe
1c0000e01e
1c0000e01c
1c0000e01c
1c0000e01c
1c0000e01c
1c0000e01c
1c0000e01c
1c0000e01c
1c00c0e01c
1f0060e01c
1d8030e01c
1cc038e01c
1ce01ce01c
1c701ee01c
1c780ee01c
1c380fc01c
1c3c07c01c
1c1c01c01c
1c1c01c01c
1c0c01c01c
1c0003801c
1c0003801c
1c0003801c
1c0007001c
1c0007001c
1c000e001c
1c001c001c
1c001c001c
1c0038003c
1c00700038
1c00e00078
1c01c000f0
1c0380ffe0
1c07000fc0
1c0e000380
1838000300
ENDCHAR
STARTCHAR 224d
ENCODING 8781
SWIDTH 903 0
DWIDTH 40 0
BBX 40 40 0 -6
BITMAP
0000000000
0c0000000c
0e0000001e
0fffffffff
0e00000000
0e00180000
0e001f0000
0e001e0000
0e001c0000
0e001c0000
0e001c0060
0e001c00f0
0ffffffff8
0e001c0078
0e001c0070
0e001c0070
0e001c0070
0e001c0070
0e001c0070
0e001c0070
0e001c0070
0e001c0070
0e001c0070
0ffffffff0
0e001c0070
0e001c0060
0e001c0000
0e001c0000
0e001c0000
0e001c0000
1c001c0001
1c001c0001
1c001c0003
38001c0003
38001c0006
30001e000e
60001fffff
60000fffff
c00003fffe
8000000000
ENDCHAR
STARTCHAR 224e
ENCODING 8782
SWIDTH 903 0
DWIDTH 40 0
BBX 40 40 0 -6
BITMAP
0000000380
0000001fe0
000001fff8
06003ffffc
0707fe0000
07ffc00000
0700000000
0700000000
0700000000
0700000000
0700000300
0700000780
071fffffc0
07038003c0
0703800380
07038c0380
0703870380
070383c380
070381e380
070380e380
0703806380
0703800380
0703800380
0703800780
070383ff80
0703803f00
0703800e00
0e03800c00
0e03800001
0e03800001
1c03800001
1c03800003
1803800003
3803800006
3003800006
7003c0000e
6003ffffff
c001ffffff
80007ffffe
0000000000
ENDCHAR
STARTCHAR 224f
ENCODING 8783
SWIDTH 903 0
DWIDTH 40 0
BBX 40 40 0 -6
BITMAP
0000000000
180000000c
1c0000001e
1fffffffff
1c00000000
1c00000000
1c00000000
1c00000180
1c000003c0
1c0fffffe0
1c000003e0
1c00000780
1c00000e00
1c00001c00
1c00003000
1c00006000
1c0001c000
1c0001c000
1c0001c000
1c0001c000
1c0001c00c
1c0001c01e
1cffffffff
1c0001c000
1c0001c000
1c0001c000
1c0001c000
1c0001c000
1c0001c000
380001c000
380001c000
380001c000
300001c000
300001c000
600001c000
600003c000
4000ffc000
c0001f8000
8000070000
0000060000
ENDCHAR
STARTCHAR 2250
ENCODING 8784
SWIDTH 903 0
DWIDTH 40 0
BBX 40 40 0 -6
BITMAP
0000000000
180000000c
1c0000001e
1fffffffff
1c00000000
1c00000000
1c00018000
1c0001f000
1c0001e000
1c0601c000
1c07c1c000
1c0781c000
1c0701c000
1c0701c000
1c0701c030
1c0701c0f8
1c0701cffc
1c0703fc7c
1c073fc070
1c07f1c070
1c3f01c070
1ce701c070
1c0701c0e0
1c0701c0e0
1c0701c0e0
1c0701c0c0
1c0701c1c0
1c0701c180
1c0701c100
380701c000
380701c002
3807018002
3007000006
3007000006
600700000c
600780001c
4007fffffe
c003fffffe
8000fffffc
0000000000
ENDCHAR
STARTCHAR 2251
ENCODING 8785
SWIDTH 903 0
DWIDTH 40 0
BBX 40 40 0 -6
BITMAP
0003000000
0003e00000
0003c00000
0007800000
0007000000
000e000000
001c003000
0038001c00
0070000e00
00e0000700
01c00fff80
07fffc03c0
07fe0001c0
03c03001c0
01c03e00c0
00003c0000
0000380000
0000380000
0000380000
0000380180
00003803c0
07ffffffe0
0000380000
0000380000
0000380000
0000380000
0000380000
000038000c
000038001e
ffffffffff
0000380000
0000380000
0000380000
0000380000
0000380000
0000380000
0000380000
0000380000
0000380000
0000300000
ENDCHAR
STARTCHAR 2252
ENCODING 8786
SWIDTH 903 0
DWIDTH 40 0
BBX 40 40 0 -6
BITMAP
0000000000
3000180000
3e001f0000
3c001e0000
38001c0000
3800380000
3800380000
3800700000
3800700000
3800e00180
3801c000e0
3803800070
3807000038
380e007ffc
383fffe01e
383ff0000e
381e01800e
380e01f006
380001e000
380001c000
380001c000
380001c000
380003a000
380003a000
3800073000
3800071800
38000e0c00
38001c0e00
3800380700
3800700380
3800e001e0
3801c000fe
380700007e
383c000038
38f0000018
3800000000
3800000000
7fffffffff
3000000000
0000000000
ENDCHAR
STARTCHAR 2253
ENCODING 8787
SWIDTH 903 0
DWIDTH 40 0
BBX 40 40 0 -6
BITMAP
0018000000
001f000000
001e000060
001c0000f0
001c7ffff8
001c040078
001c040070
301c040070
181c040070
0c1c060070
0e1c0600e0
071c0600e0
079c0600e0
039c0300e0
039c0300e0
019c0301c0
001c0301c0
001c0181c0
001c018380
001c018380
001c00c380
001c00c700
001c006700
007c006e00
01dc003e00
079c003c00
1e1c003c00
fc1c007e00
f81c007600
701c00e700
301c00e300
001c01c380
001c0381c0
001c0701e0
001c0e00f8
001c1c007f
001c38003f
001c70001c
001ce0000c
0019800000
ENDCHAR
STARTCHAR 2254
ENCODING 8788
SWIDTH 903 0
DWIDTH 40 0
BBX 40 40 0 -6
BITMAP
0000000000
3006000000
380f000030
3fff800078
3807bffffc
380702003c
3807020038
3807020038
3807020038
3b07030038
3987030070
39c7030070
38e7030070
38e7018070
3877018070
38770180e0
38370180e0
380700c0e0
380700c1c0
380700c1c0
38070061c0
3807006380
3807003380
3807003700
3807001f00
380f001e00
3bff001e00
387e003e00
381c003f00
3818007700
3800007380
380000e1c0
380001c1e0
38000380f0
380007007c
38000e003f
38001c001f
380038000e
3800700006
3000c00000
ENDCHAR
STARTCHAR 2255
ENCODING 8789
SWIDTH 903 0
DWIDTH 40 0
BBX 40 40 0 -6
BITMAP
0000000000
0300000030
0380000078
03fffffffc
0380000000
0380000000
0380000000
0380000180
03800003c0
039fffffe0
0380000000
0380000000
0380000000
0380000000
0380000180
03800003c0
038fffffe0
03810003e0
0381000380
0381800380
0380800700
0380c00700
0380600e00
0380601c00
0380303800
0380183800
03801c7000
03800ee000
070007c000
070007c000
07000fe000
06001cf000
0e00383c00
0c00701f00
1c01c00fe0
18038003ff
300e0000ff
603800003e
c0e000000e
0780000000
ENDCHAR
STARTCHAR 2256
ENCODING 8790
SWIDTH 903 0
DWIDTH 40 0
BBX 40 40 0 -6
BITMAP
0000300000
00003e0000
00003c0000
0000380000
0600380180
07003803c0
07ffffffe0
07003801e0
07003801c0
07003801c0
07003801c0
07003801c0
07003801c0
070038ffc0
0700380fc0
0700380380
0600380300
0000380000
0000380000
0000380c00
0000301e00
03ffffff00
0010001f00
0018001c00
000c003c00
000e003800
0007007000
000380e000
0001c1c000
0000f38000
00007f0000
00003e0000
00007f8000
0000f3e000
0003c0f800
000f003f80
003c000fff
01f00003ff
0f8000007e
f80000000e
ENDCHAR
STARTCHAR 2257
ENCODING 8791
SWIDTH 903 0
DWIDTH 40 0
BBX 40 40 0 -6
BITMAP
0000000000
0000000600
00000007c0
0300000780
01c0000f00
00e0000e00
0070001c00
0038003800
001c007000
000e006000
000f00c000
0007018000
0603030180
07000003c0
07ffffffe0
07000001e0
07000001c0
07000001c0
07000001c0
07000001c0
07000001c0
07000001c0
07000001c0
07000001c0
07000001c0
07000001c0
07000001c0
07000001c0
07000001c0
07000001c0
07000001c0
07000001c0
07000001c0
07000001c0
07000001c0
07000001c0
07ffffffc0
07000001c0
0700000180
0600000000
ENDCHAR
STARTCHAR 2258
ENCODING 8792
SWIDTH 903 0
DWIDTH 40 0
BBX 40 40 0 -6
BITMAP
0000000000
0000000300
0000000780
03ffffffc0
0060000fc0
0030000f00
0018001e00
000c003c00
0007007800
000380f000
0001e1e000
0000f78000
00003f0000
00007f8000
0001f7f000
0003e1ff00
000f803ffe
003e000ffe
01f80003f8
0fc0000078
7e00000000
0000000000
0300000180
03800003c0
03ffffffe0
03800001e0
03800001c0
03800001c0
03800001c0
03800001c0
03800001c0
03800001c0
03800001c0
03800001c0
03800001c0
03800001c0
03800001c0
03ffffffc0
03800001c0
0300000180
ENDCHAR
STARTCHAR 2259
ENCODING 8793
SWIDTH 903 0
DWIDTH 40 0
BBX 40 40 0 -6
BITMAP
0000000000
0180000600
01c0000f00
01ffffff80
01c0000780
01c0000700
01c0000700
01c0000700
01c0000700
01c0000700
01c0000700
01c0000700
01c0000700
01c0000700
01c0000700
01c0000700
01c0000700
01ffffff00
01c0000700
0180000600
0000000000
0000000000
0000000000
0000000000
0000000300
0000000780
03ffffffc0
0000000000
0000000000
0000000000
0000000000
0000000000
0000000000
0000000000
0000000000
000000000c
000000001e
ffffffffff
0000000000
0000000000
ENDCHAR
STARTCHAR 225a
ENCODING 8794
SWIDTH 903 0
DWIDTH 40 0
BBX 40 40 0 -6
BITMAP
0000000000
0000000030
0000000078
0003fffffc
000038003c
6030380038
7078380038
7ffc380038
703c380038
7038380038
7038380038
7038380038
7038380078
703838fff8
70383803f0
70383800e0
70383800c0
7038380000
7038380000
7038380000
703838000c
703838001e
70383fffff
703838000f
703830000e
703800000e
703800000e
703800000e
7ff800000e
703800000e
703000000e
700000000e
600000000e
000000001e
000000001c
000000003c
000001fff8
00000007f0
00000000e0
00000000c0
ENDCHAR
STARTCHAR 225b
ENCODING 8795
SWIDTH 903 0
DWIDTH 40 0
BBX 40 40 0 -6
BITMAP
0000000300
00000003e0
00000003c0
0000000380
0000000380
6060300380
70f03e0380
7ff83c0380
7078380380
7070380380
7070380380
7070380380
7070380380
7070380380
7070380380
7070380380
7070380380
7070380380
7070380380
7070380380
7070380380
7070380380
7070380380
7070380380
7070380384
707038038e
70707fffff
7070300380
7ff0000380
7070000380
7060000380
7000000380
6000000380
0000000380
0000000380
0000000380
0000000380
0000000380
0000000380
0000000300
ENDCHAR
STARTCHAR 225c
ENCODING 8796
SWIDTH 903 0
DWIDTH 40 0
BBX 40 40 0 -6
BITMAP
0000000c00
0000000f80
0000000f00
0000000e00
0000000e00
6030300e00
70783e0e00
7ffc3c0e00
703c380e00
7038380e00
7038380e00
7038380e00
7038380e00
7038380e00
7038380e00
7038380e00
7038380e00
7038380e00
7038380e00
7038380e00
7038380e00
7038380e00
7038380e00
7038380e00
7038380e00
7038380e00
70387ffe00
7038300e00
7ff8000e00
7038000e00
7030000e01
7000000e01
6000000e03
0000000e03
0000000e06
0000000f0e
0000000fff
00000007ff
00000001fe
0000000000
ENDCHAR
STARTCHAR 225d
ENCODING 8797
SWIDTH 903 0
DWIDTH 40 0
BBX 40 40 0 -6
BITMAP
0018000000
001f000000
001e000000
001c000000
001c006000
001c00f000
003ffff800
003800f800
003800f000
007000e000
007000e000
00e001c000
00c001c000
01c0018000
0380038000
0300030000
0600070000
0c00060180
18000c03c0
37ffffffe0
67000001e0
07000001c0
07000001c0
07000001c0
07000001c0
07000001c0
07000001c0
07000001c0
07000001c0
07000001c0
07000001c0
07000001c0
07000001c0
07000001c0
07000001c0
07000001c0
07ffffffc0
07000001c0
0700000180
0600000000
ENDCHAR
STARTCHAR 225e
ENCODING 8798
SWIDTH 903 0
DWIDTH 40 0
BBX 40 40 0 -6
BITMAP
0000000000
0000000c00
0000000f80
0380001f00
00e0001e00
0038003c00
000e007800
000780f000
0001e1e000
0000f3c000
00007f8000
00003f0000
00007f8000
0000fbe000
0001e0f800
0007803f00
000f000fe0
003c0003ff
00f00000ff
03c000003c
1e0000000c
f000000000
0180000300
01c0000780
01ffffffc0
01c00003c0
01c0000380
01c0000380
01c0000380
01c0000380
01c0000380
01c0000380
01c0000380
01c0000380
01c0000380
01c0000380
01c0000380
01ffffff80
01c0000380
0180000300
ENDCHAR
STARTCHAR 225f
ENCODING 8799
SWIDTH 903 0
DWIDTH 40 0
BBX 40 40 0 -6
BITMAP
0006018000
0007c1f000
000781e000
000701c000
000701c000
000701c000
000701c000
000701c000
000701c000
300701c030
380701c078
3ffffffffc
380701c03c
380701c038
380701c038
380701c038
380701c038
380701c038
380e01c038
380e01c038
380c01c038
381c01c038
381801c038
383801e038
383001fff8
386000fff8
38c0003ff8
3980000038
3b00000038
3e00000038
3800000038
3800000038
3800000038
3800000038
3800000038
3800000038
3800000038
3ffffffff8
3800000038
3000000030
ENDCHAR
STARTCHAR 2260
ENCODING 8800
SWIDTH 903 0
DWIDTH 40 0
BBX 40 40 0 -6
BITMAP
0000003000
0300003e00
03e0003c00
03c0003800
0380003800
0380003800
0380003800
0380003800
0380003800
0380003800
038c003800
fffe003800
0380003800
0380003800
038000380c
038000381e
0381ffffff
0380003800
0380003800
0380003800
0380003800
0380003800
0380003800
0380003800
0380003800
0380003800
0380003800
0380003800
038e003800
03f8003800
03e0003800
0f80003800
fe00003800
fc00003800
7000003800
3000003800
0000003800
0000003800
0000003800
0000003000
ENDCHAR
STARTCHAR 2261
ENCODING 8801
SWIDTH 903 0
DWIDTH 40 0
BBX 40 40 0 -6
BITMAP
0001800000
0001f00000
0001e00000
0001c00000
0001c00000
0001c00000
0003800018
000380003c
7ffffffffe
0007000000
0007000000
0007030000
000e03e000
000e03c000
001c038000
001c038000
0038038000
0038038000
0070038000
00e0038000
01c0038060
03800380f0
073ffffff8
0e00038000
1c00038000
3800038000
7000038000
c000038000
0000038000
0000038000
0000038000
0000038000
0000038000
0000038000
0000038000
0000038018
000003803c
03fffffffe
0000000000
0000000000
ENDCHAR
STARTCHAR 2262
ENCODING 8802
SWIDTH 903 0
DWIDTH 40 0
BBX 40 40 0 -6
BITMAP
0000000000
0000000060
00000000f0
3ffffffff8
0000e00078
0000e00070
0000e00070
0000e00070
0001c00070
0001c00070
0001c00070
0003800070
0003800070
0007000070
00070000f0
000e0000e0
001c0001e0
003801ffc0
0070001f80
00e0000700
01c0000600
0380300000
0e003e0000
38003c0000
0000380000
0000380000
000038000c
000038001e
ffffffffff
0000380000
0000380000
0000380000
0000380000
0000380000
0000380000
0000380000
00003800c0
00003801e0
0ffffffff0
0000000000
ENDCHAR
STARTCHAR 2263
ENCODING 8803
SWIDTH 903 0
DWIDTH 40 0
BBX 40 40 0 -6
BITMAP
0006000000
0007c00000
0007800000
000f000000
000e001800
001e003c00
001ffffe00
0038003e00
0070007c00
00f800f800
01ce01e000
038383c000
0701ef8000
1c007f0000
7000ffc000
0003e7fc00
000f80ffff
007e001fff
03f00003f8
1f00000078
f80c006000
000f807c00
000f007800
000e007000
000e007000
000e007000
000e007000
000e007000
000e007000
000e007000
000e007000
001c007000
001c007000
001c007000
0038007000
0070007000
00e0007000
01c0007000
0380007000
0600006000
ENDCHAR
STARTCHAR 2264
ENCODING 8804
SWIDTH 903 0
DWIDTH 40 0
BBX 40 40 0 -6
BITMAP
00c0006000
00f8007c00
00f0007800
00e0007000
00e0007000
00e0007000
00e0007000
01c060700c
01c0f0701e
01fff87fff
01c078700f
038078700e
038070700e
038070700e
070070700e
070070700e
0f00e0700e
0e00e0700e
1f80e0700e
1ce0e0700e
3879c0700e
703dc0700e
601fc0700e
c00f80700e
800380700e
000780700e
000700700e
000f00700e
000e00700e
001c00700e
003c00700c
0038007000
0070007000
00e0007000
01c0007000
0380007000
0700007000
0e00007000
3800007000
e000006000
ENDCHAR
STARTCHAR 2265
ENCODING 8805
SWIDTH 903 0
DWIDTH 40 0
BBX 40 40 0 -6
BITMAP
0000000000
0c00000180
0e000003c0
0fffffffe0
0e000001e0
0e000001c0
0e018001c0
0e01f001c0
0e01e001c0
0e01c001c0
0e01c001c0
0e0380c1c0
0e0381e1c0
0e03fff1c0
0e0700f1c0
0e0700e1c0
0e0700e1c0
0e0e00e1c0
0e0e00e1c0
0e1c00e1c0
0e1f01c1c0
0e39c1c1c0
0e30f1c1c0
0e607b81c0
0ec03b81c0
0e001f01c0
0e000701c0
0e000e01c0
0e000e01c0
0e001c01c1
0e003801c1
1c007000e1
1c00e000e3
1801c000e3
3803800076
300700007e
700e00003e
603800001f
c0e000000f
8000000006
ENDCHAR
STARTCHAR 2266
ENCODING 8806
SWIDTH 903 0
DWIDTH 40 0
BBX 40 40 0 -6
BITMAP
0000300000
00003e0000
00003c0000
0000380000
0000380000
000038000c
000038001e
ffffffffff
0000380000
0000380000
00c0380000
00f8381c00
00f0380700
01e03803c0
01c03801e0
03803800f0
0700380078
0e00380038
1c003c0018
3800740000
6000760000
0000760000
0000730000
0000e30000
0000e18000
0001c18000
0001c0c000
0003806000
0003807000
0007003800
000e001c00
001c000e00
0038000780
00700003c0
00e00001f0
01c00000ff
038000007f
0e0000003c
380000000c
e000000000
ENDCHAR
STARTCHAR 2267
ENCODING 8807
SWIDTH 903 0
DWIDTH 40 0
BBX 40 40 0 -6
BITMAP
00000c0000
03000f8000
03e00f0000
03c00e0000
03800e0000
03800e0000
03800e0000
038c0e0000
038e0e0000
038e0e0000
03bf8e0000
fffe0e0000
ff0e0e0000
670e0e000c
070e0e001e
070e0fffff
070e0e0000
070e0e0000
0e0e0e0000
0e0e0e0000
0e1c0e0000
0e1c0e0000
1c1c0e0000
1c1c0e0000
1c380e0000
1f380e0000
07f00e0000
01f00e0000
00f80e0000
01fc0e0000
01de0e0001
038f0e0001
07070e0003
0e030e0003
1c000e0006
38000f000e
70000fffff
c00007ffff
000001fffe
0000000000
ENDCHAR
STARTCHAR 2268
ENCODING 8808
SWIDTH 903 0
DWIDTH 40 0
BBX 40 40 0 -6
BITMAP
0000000000
0000000180
00000003c0
0fffffffe0
00000007e0
0000000f80
0000001e00
0000003c00
0000007000
000001c000
0000038000
00000e0000
00001c0000
00001c0000
00001c0000
00001c000c
00001c001e
ffffffffff
00001c0000
00001c0000
00001c0000
00001c0010
00001c0038
00001ffffc
00001c0000
00001c0000
00001c0000
00001c0010
00001c0038
00001ffffc
00001c0000
00001c0000
00001c0000
00001c0000
00001c0000
00003c0000
001ffc0000
0001f80000
0000700000
0000600000
ENDCHAR
STARTCHAR 2269
ENCODING 8809
SWIDTH 903 0
DWIDTH 40 0
BBX 40 40 0 -6
BITMAP
0000000000
0000000180
00000003c0
0fffffffe0
00000007e0
0000000f80
0000001e00
0000003c00
0000007000
000001e000
0000038000
00000e0000
0000380000
0000380000
0000380000
0000380000
0000380000
0000380000
000038000c
000038001e
ffffffffff
0000380000
0000380000
0000380000
0060380000
007c383000
0078381c00
00f0380e00
00e0380780
01c03803c0
03803801e0
03003800f0
0600380078
0c00380078
1800380038
3000780018
607ff80000
0003f00000
0000e00000
0000c00000
ENDCHAR
STARTCHAR 226a
ENCODING 8810
SWIDTH 903 0
DWIDTH 40 0
BBX 40 40 0 -6
BITMAP
0000000000
0000000060
00000000f0
3ffffffff8
0000000000
0000600000
00007c0000
0000783000
0000701c00
0000700f00
0000700780
0000700380
0000700180
0000700000
0000700018
000070003c
7ffffffffe
0000700000
0000700000
0000760000
000077c000
0000e78000
0000e70000
0000e70000
0001c70000
0001c70000
0003870000
0003870000
0007070000
000e070001
000e070001
001c070003
0038070003
0070070006
00e007800e
01c007ffff
038003ffff
0e0000fffe
3800000000
e000000000
ENDCHAR
STARTCHAR 226b
ENCODING 8811
SWIDTH 903 0
DWIDTH 40 0
BBX 40 40 0 -6
BITMAP
0300000000
03e0000180
03c00003c0
03801fffe0
03800201e0
03800201c0
03800201c0
03800201c0
03800301c0
0381030380
0383830380
ffffc10380
039c018380
039c018700
039c018700
039c018700
039c00ce00
039c00ce00
039c005c00
039c007c00
039c007800
039c003800
071c007800
071c007c00
071c00ec00
071c00ce00
071c01c700
0e1c038380
0e1c0703e0
0e1c0e01f8
0c1c1c00f9
1c1c380071
1c1c700033
181dc00003
381c000006
301e00000e
701fffffff
600fffffff
c007fffffe
8000000000
ENDCHAR
STARTCHAR 226c
ENCODING 8812
SWIDTH 903 0
DWIDTH 40 0
BBX 40 40 0 -6
BITMAP
0000000000
0180000180
01c00003c0
01ffffffe0
01c00001e0
01c00001c0
01c00001c0
01c00001c0
01c00001c0
01c00001c0
01c00001c0
01c00001c0
01c00001c0
01c00001c0
01c00001c0
01ffffffc0
01c00001c0
01c0000180
01c0030000
01c003e000
01c003c000
01c0038000
01c0038000
01c0038000
01c0038000
01c0038000
01c0074000
01c0076000
03800e3000
03800e3800
03801c1c00
07001c0e00
0700380700
0e00700380
0c00e001e0
1c01c000ff
380380007f
300700003c
601c00000c
c070000000
ENDCHAR
STARTCHAR 226d
ENCODING 8813
SWIDTH 903 0
DWIDTH 40 0
BBX 40 40 0 -6
BITMAP
0000300000
00003e0000
00003c0000
0c003800c0
0f803800f8
0f003800f0
0e003800e0
0e003800e0
0e003800e0
0e003800e0
0e003800e0
1fffffffe0
0c003800e0
00003800c0
0000380000
0000380000
0000380000
0000380040
00003800e0
0ffffffff0
0000380000
0000380000
0000380000
0000380000
0000380000
000038000c
000038001e
ffffffffff
0000380000
0000380000
0000380000
0000380000
0000380000
0000380000
0000380000
0000380000
0000380000
0000380000
0000380000
0000300000
ENDCHAR
STARTCHAR 226e
ENCODING 8814
SWIDTH 903 0
DWIDTH 40 0
BBX 40 40 0 -6
BITMAP
0000000000
0180000000
01f00c0030
01e00e0078
01c00ffffc
01c00e003c
01c00e0038
01c00e0038
01c00e0038
61c60e0038
79c78e0038
71c70e0038
71c70e0038
71c70e0038
71c70e0038
71c70e0038
71c70e0038
71c70e0038
71c70e0038
71c70e0038
71c70e0038
71c70e0038
71c70e0078
71c70e3ff8
71c70e03f0
71c70e00e0
71c70e00c0
71c70e0000
71c70e0000
71c70e0000
ffff0e0001
60070e0001
00060e0003
00000e0003
00000e0006
00000f000e
00000fffff
000007ffff
000003fffe
0000000000
ENDCHAR
STARTCHAR 226f
ENCODING 8815
SWIDTH 903 0
DWIDTH 40 0
BBX 40 40 0 -6
BITMAP
0000300000
00003e0000
0c003c00c0
0f803800f8
0f003800f0
0e003800e0
0e003800e0
0e003800e0
0e003800e0
0e003800e0
1fffffffe0
0c000000e0
00000000c0
0000000000
0300000600
0380000f00
03ffffff80
0380000780
0380000700
0380000700
0380000700
0380000700
0380000700
0380000700
0380000f00
0380ffff00
038001fe00
0380003c00
0380003800
0380000000
0380000008
0380000008
0380000018
0380000018
0380000030
03c0000070
03fffffff8
01fffffff8
00fffffff0
0000000000
ENDCHAR
STARTCHAR 2270
ENCODING 8816
SWIDTH 903 0
DWIDTH 40 0
BBX 40 40 0 -6
BITMAP
0000000000
0300000030
03e0000078
03c0fffffc
038000003c
0380180038
03801f0038
03801e0038
03801c0038
638c1c0038
738f1c0038
638e1c0038
638e1c0038
638e1c0078
638e1cfff8
638e1c07f0
638e1c00e0
638e1c00c0
638e1c0000
638e1c0000
638e1c000c
638e1c001e
638e1fffff
638e1c000f
638e18000e
638e00000e
638e00000e
638e00000e
638e00000e
638e00000e
fffe00000e
600e00000e
000c00000e
000000001e
000000001c
000000003c
0000007ff8
0000000ff0
00000001e0
00000001c0
ENDCHAR
STARTCHAR 2271
ENCODING 8817
SWIDTH 903 0
DWIDTH 40 0
BBX 40 40 0 -6
BITMAP
0000000000
0600000180
07c00001f0
07800001e0
07000001c0
07000001c0
07000001c0
07000001c0
07000001c0
07000001c0
07000001c0
07000001c0
07000001c0
0fffffffc0
06000001c0
0000000180
0000300000
00003e0000
00003c0000
0000380000
0000380000
0000380000
0c003800c0
0f803800f8
0f003800f0
0e003800e0
0e003800e0
0e003800e0
0e003800e0
0e003800e0
0e003800e0
0e003800e0
0e003800e0
0e003800e0
0e003800e0
0e003800e0
1fffffffe0
0c000000e0
00000000c0
0000000000
ENDCHAR
STARTCHAR 2272
ENCODING 8818
SWIDTH 903 0
DWIDTH 40 0
BBX 40 40 0 -6
BITMAP
0018000000
001f000000
001e000000
001c000000
001c000c00
0038001e00
003fffff00
0070001f00
0070001c00
00e0003800
00c0003800
01c0007000
0380006000
030000c000
0600018000
0c00030000
1800060000
3000000000
0000300000
00003e0000
00003c0000
0000380000
0000380000
0c003800c0
0f803800f8
0f003800f0
0e003800e0
0e003800e0
0e003800e0
0e003800e0
0e003800e0
0e003800e0
0e003800e0
0e003800e0
0e003800e0
0e003800e0
1fffffffe0
0c000000e0
00000000c0
0000000000
ENDCHAR
STARTCHAR 2273
ENCODING 8819
SWIDTH 903 0
DWIDTH 40 0
BBX 40 40 0 -6
BITMAP
0000000000
0018006000
001f007c00
001e007800
001c007000
001c007000
001c007000
001c007000
001c007000
001c007000
001c007001
001c007001
0038007003
0038007003
0070007006
00e000780e
01c0007fff
0380003fff
0e00000ffe
3800300000
e0003e0000
00003c0000
0000380000
0000380000
0c003800c0
0f803800f8
0f003800f0
0e003800e0
0e003800e0
0e003800e0
0e003800e0
0e003800e0
0e003800e0
0e003800e0
0e003800e0
0e003800e0
1fffffffe0
0c000000e0
00000000c0
0000000000
ENDCHAR
STARTCHAR 2274
ENCODING 8820
SWIDTH 903 0
DWIDTH 40 0
BBX 40 40 0 -6
BITMAP
00000007e0
000007fff0
0c07fffff8
0fffe00000
0e00000000
0e00000000
0e00000000
0e00000000
0e00000060
0e180000f0
0e1ffffff8
0e1c000078
0e1c000070
0e1c000070
0e1c000070
0e1c000070
0e1c000070
0e1c000070
0e1c000070
0e1c000070
0e1c000070
0e1c000070
0e1c000070
0e1ffffff0
0e1c000060
0e1c000000
0e1c000000
0e1c000000
0e1c000000
1c1c000000
1c1c000004
1c1c000004
181c00000c
381c00000c
301c000018
301e000038
601ffffffc
c00ffffffc
8007fffff8
0000000000
ENDCHAR
STARTCHAR 2275
ENCODING 8821
SWIDTH 903 0
DWIDTH 40 0
BBX 40 40 0 -6
BITMAP
0000000000
000000000c
000000001e
ffffffffff
0030380000
007c380000
00f0380000
01c0380000
0380380000
0700380000
0e003800c0
38003801e0
effffffff0
0e003800f0
0e003800e0
0e003800e0
0e003800e0
0e003800e0
0e003800e0
0e003800e0
0e003800e0
0e003800e0
0e003800e0
0e003800e0
0e003800e0
0e003800e0
0e003800e0
0e003800e0
0e003800e0
0e003800e0
0e003801e0
0e0038ffe0
0e00380fc0
0e00380380
0c00380300
0000380000
0000380000
0000380000
0000380000
0000300000
ENDCHAR
STARTCHAR 2276
ENCODING 8822
SWIDTH 903 0
DWIDTH 40 0
BBX 40 40 0 -6
BITMAP
0006000000
000f800000
001e000000
0038003000
0070001c00
00e0000e00
01c0000780
038001ffc0
0fffff81e0
0fff0000e0
0780300060
03803e0000
00003c0000
0000380000
00003800c0
0c003801e0
0ffffffff0
0e003800f0
0e003800e0
0e003800e0
0e003800e0
0e003800e0
0e003800e0
0e003800e0
0e003800e0
0e003800e0
0e003800e0
0e003800e0
0e003800e0
0e003800e0
0e003800e0
0e003800e0
0e003801e0
0e0039ffe0
0e00380fc0
0e00380380
0c00380300
0000380000
0000380000
0000300000
ENDCHAR
STARTCHAR 2277
ENCODING 8823
SWIDTH 903 0
DWIDTH 40 0
BBX 40 40 0 -6
BITMAP
0000000000
0180000300
01f0000700
01e0000fc0
03c0001ffc
0380001e00
0380001c00
0700001c00
0700001c00
0e00001c00
0c00001c00
1c00001c00
180c001c00
380f801c00
701f001c00
781e001c00
3c3c001c00
0e38001c00
0778001c00
03f0001c00
01f0001c00
00e0001c00
01c0001c00
01c0001c00
0380001c00
0700001c00
0718001c00
0e0c001c00
1c06001c00
1c07003800
383f807000
71f380e000
ff8381c000
fc01838000
7000070000
30001c0000
00003fffff
00001e0000
00000c0000
0000000000
ENDCHAR
STARTCHAR 2278
ENCODING 8824
SWIDTH 903 0
DWIDTH 40 0
BBX 40 40 0 -6
BITMAP
0000000000
0000300000
00007c0000
0000f80000
0001e00000
0003800000
000f006000
003c00f800
003801f000
000f078000
0003de0000
0000f80000
0001e00000
0003800c00
000f000700
003c0003c0
01f007ffe0
0fffff81e0
0fffc000e0
0780000060
0180c00000
0000f80000
0000f00000
0000e00000
0000e00060
0000e000f0
3ffffffff8
0001c00078
0001c00070
0003800070
0007000070
000e000070
001c000070
00380000f0
00700000e0
00e00001e0
038003ffc0
0700001f80
1c00000700
f000000600
ENDCHAR
STARTCHAR 2279
ENCODING 8825
SWIDTH 903 0
DWIDTH 40 0
BBX 40 40 0 -6
BITMAP
0000300000
00003e0000
00007c0000
0000780000
0000f60000
0001e30000
0003c1c000
000780e000
000f007800
001e003c00
0038001f00
00700007e0
01c00003ff
07800000ff
0e0000003e
381800300e
e01f003e00
001e003c00
001c003800
001c003800
001c003800
001c003800
001c00380c
001c00381e
ffffffffff
001c003800
001c003800
001c003800
001c003800
0038003800
0038003800
0038003800
0070003800
0070003800
00e0003800
01c0003800
0380003800
0700003800
0e00003800
1800003000
ENDCHAR
STARTCHAR 227a
ENCODING 8826
SWIDTH 903 0
DWIDTH 40 0
BBX 40 40 0 -6
BITMAP
0000000000
0000000300
0000000780
0fffffffc0
00000003c0
0000000380
0000000380
0000000380
0000000380
0000000380
0300000380
03ffffff80
0380000380
0380000300
0700000000
0700000000
0e00000000
0e000000c0
0e000001e0
1ffffffff0
0c000000f0
00000000e0
00000c00e0
00001e00e0
03ffff00e0
00000000e0
00000000e0
00000000e0
00000000e0
00000060e0
000000f0e0
7ffffff9c0
00000001c0
0000000380
0000000780
0000000f00
00001ffe00
000000fc00
0000003800
0000003000
ENDCHAR
STARTCHAR 227b
ENCODING 8827
SWIDTH 903 0
DWIDTH 40 0
BBX 40 40 0 -6
BITMAP
0000000000
0000000300
0000000780
0fffffffc0
00000003c0
0000000380
0000000380
0300000380
03ffffff80
0380000000
0380000000
0700000000
0700000300
0700000780
0fffffffc0
06000003c0
0000000380
0000000380
0000000380
0300000380
03ffffff80
0380000300
0380000000
0700000000
07000000c0
07000001e0
0ffffffff0
06000000f0
00000000e0
00000000e0
00000000e0
00000000e0
00000001e0
00000001c0
00000003c0
0000000780
00000fff00
0000007e00
0000001c00
0000001800
ENDCHAR
STARTCHAR 227c
ENCODING 8828
SWIDTH 903 0
DWIDTH 40 0
BBX 40 40 0 -6
BITMAP
0000000000
0030000030
0078000078
fffc1ffffc
003c00003c
0038000038
0038000038
0038040038
0038040038
0038040038
0038060070
3038060070
3ff8020070
38300200e0
38000300e0
38000100e0
38000181c0
70000181c0
70180081c0
703c00c380
fffe00c380
601e00c700
001c006600
001c006e00
001c003c00
001c003c00
001c003800
001c007c00
001c007c00
001c00ee00
001c01c700
001c038780
003c0703c0
00380e01e0
00781c00f8
00f038007f
ffe070003f
0fc0e0001c
038380000c
030e000000
ENDCHAR
STARTCHAR 227d
ENCODING 8829
SWIDTH 903 0
DWIDTH 40 0
BBX 40 40 0 -6
BITMAP
0000000000
0000000180
00000003c0
3fffffffe0
00003801e0
00003801c0
00003801c0
00003801c0
00003801c0
00003801c0
00003801c0
18003801c0
1fffffffc0
1c003801c0
1c00380180
1c00380000
3800380000
3800380000
3800380018
380038003c
7ffffffffe
300078001e
000078001c
0000f8001c
0001f8001c
0001b8001c
0003b8001c
000738001c
000e38003c
001c380038
0038380078
0070387ff0
00e03807e0
01c03801c0
0380380180
0e00380000
3800380000
e000380000
0000380000
0000300000
ENDCHAR
STARTCHAR 227e
ENCODING 8830
SWIDTH 903 0
DWIDTH 40 0
BBX 40 40 0 -6
BITMAP
0000030000
003003e000
007803c000
fffc038000
003c038000
0038038000
0038038000
0038038000
0038038000
0038038180
00380383c0
3038ffffe0
3ff80381e0
38300381c0
38000381c0
38000381c0
38000381c0
70000381c0
70180381c0
703c0381c0
fffe0381c0
601e0381c0
001c0381c0
001c0701c0
001c0701c0
001c0701c0
001c0701c0
001c0e01c0
001c0e01c0
001c0e01c0
001c1c01c0
001c1c01c1
003c3801c1
00383801c3
00787001c3
00f06001e6
ffe0c001ff
0fc18000ff
038300007e
0306000000
ENDCHAR
STARTCHAR 2321
ENCODING 8993
SWIDTH 903 0
DWIDTH 40 0
BBX 40 40 0 -6
BITMAP
0000006000
0030007c00
0078007800
fffc007000
003c007000
0038007000
0038007000
0038007000
0038007000
0038007000
0038007000
3038007000
3ff8007000
3830007000
3800007000
3800007000
380000f800
700000e800
701800e800
703c00e800
fffe00ec00
601e01cc00
001c01c400
001c01c600
001c038600
001c038600
001c038300
001c070300
001c070380
001c0e0180
001c0e01c0
001c1c00c0
003c1c00e0
0038380070
0078700078
00f0e0003c
ffe1c0003f
0fc380001f
038700000e
031c000006
ENDCHAR
STARTCHAR 2322
ENCODING 8994
SWIDTH 903 0
DWIDTH 40 0
BBX 40 40 0 -6
BITMAP
0000000000
0000001e00
000001ff00
00001fff80
0007fc0000
0ffc380000
0000380000
0000380000
0000380180
00003803c0
1fffffffe0
00003801e0
00003801c0
00003801c0
00003801c0
0c003801c0
0fffffffc0
0e00380180
0e00380000
0e00380000
1c00380000
1c00380018
1c0038003c
3ffffffffe
180038001e
000038001c
000038001c
000038001c
000038001c
000038001c
000038001c
000038003c
0000387ff8
00003803f0
00003800e0
00003800c0
0000380000
0000380000
0000380000
0000300000
ENDCHAR
STARTCHAR 2323
ENCODING 8995
SWIDTH 903 0
DWIDTH 40 0
BBX 40 40 0 -6
BITMAP
0000300000
00003c0000
0000780000
0000f60000
0001e30000
0003c1c000
000780e000
000f007800
001c003e00
0078000fc0
00e00003ff
03800000ff
0e00000e3e
39ffffff0e
e000000e00
0000000e00
0000000e00
0000000e00
00c0000e00
00fffffe00
00e0000c00
01c0000000
01c0000000
0380000300
0380000780
07ffffffc0
03000003c0
0000000380
0000000380
0000000380
0000000380
0000000380
0000000700
0000000700
0000000e00
0000001e00
0000fffc00
000001f800
0000007000
0000006000
ENDCHAR
STARTCHAR 2324
ENCODING 8996
SWIDTH 903 0
DWIDTH 40 0
BBX 40 40 0 -6
BITMAP
0000000000
0003000018
000780001e
ffffc0003c
0703c00038
0703800070
07038000e0
07038001c0
0703800380
0707000700
0707000e00
0707003800
070700e000
070e000018
070e18001e
070e3c003c
071ffe0038
070c1e0070
07001c00e0
07001c01c0
07001c0380
07001c0700
07001c0e00
07001c1c00
07001c7000
07001dc00c
0e001c000f
0e001c001e
0e001c001c
0e001c0038
0e003c0070
1c003800e0
1c003801c0
1800780380
3800700700
3001f00e00
60ffe01c00
600fc07000
c00381c000
8003070000
ENDCHAR
STARTCHAR 2325
ENCODING 8997
SWIDTH 903 0
DWIDTH 40 0
BBX 40 40 0 -6
BITMAP
0000000000
0000001800
0000003c00
7ffffffe00
00e0003e00
00e0003800
00e0003800
00e0007000
00e0007000
00e0007000
00e000e000
00e000e018
00e000e03c
00e001fffe
00e000c01e
00e006001c
00e00f001c
00e01e001c
00e038001c
00e0e0301c
00e3807c1c
01ce00f81c
01c001e01c
01c007801c
01c01e001c
01c0780c1c
01c1e01f1c
038f003e1c
038000f81c
038003c01c
07000f001c
07003c003c
0600f00038
0e07800078
0c3e0000f8
1c0003fff0
1800001fe0
30000003c0
6000000380
c000000000
ENDCHAR
STARTCHAR 2326
ENCODING 8998
SWIDTH 903 0
DWIDTH 40 0
BBX 40 40 0 -6
BITMAP
0300000000
03e0000000
03c0300030
0380380078
03803ffffc
038038003c
0380380038
0380380038
0380380038
03c0380038
13e0380038
13b0380038
33b8380038
339c380038
739c380038
738c380038
e380380038
e380380038
c380380038
0380380038
0380380038
0380380038
0380380078
0380383ff8
03803803f0
03803800e0
03803800c0
0380380000
0380380000
0380380000
0380380001
0380380001
0380380003
0380380003
0380380006
03803c000e
03803fffff
03801fffff
03800ffffe
0300000000
ENDCHAR
STARTCHAR 2327
ENCODING 8999
SWIDTH 903 0
DWIDTH 40 0
BBX 40 40 0 -6
BITMAP
0000000780
0000007fc0
00000fffe0
00c1ff8000
00ffc00000
00e0000000
00e0000000
00e0000060
00e00000f0
00fffffff8
00e0000078
00e0000070
00e0000070
00e0000070
00e0000070
00e0000070
00e0000070
00e0000070
00e0000070
00fffffff0
00e0006000
00e0007c00
00e0007800
00e0007000
00e0007000
01c0007000
01c0007000
01c0007000
01c0007000
0180007001
0380007001
0380007001
0300007003
0700007003
0600007006
0e0000780e
0c00007fff
1800003fff
3000000ffe
6000000000
ENDCHAR
STARTCHAR 2328
ENCODING 9000
SWIDTH 903 0
DWIDTH 40 0
BBX 40 40 0 -6
BITMAP
0000000000
000000fc00
000007ff00
00003fff80
0007f80000
07fc380000
0000380000
0000380000
0000380000
0000380060
00003800f0
1ffffffff8
0000380000
0000380000
0000380000
0000380000
000038000c
000038001e
ffffffffff
0000700000
0000700000
0000700000
0000e03000
0000e07800
0000fffc00
0001c03c00
0001c03800
0003803800
0003803800
0007003801
000e003801
001c003801
0038003803
0070003803
00e0003806
01c0003c0e
0780003fff
0e00001fff
38000007fe
e000000000
ENDCHAR
STARTCHAR 2329
ENCODING 9001
SWIDTH 903 0
DWIDTH 40 0
BBX 40 40 0 -6
BITMAP
0180000000
01f000000c
01e000001e
01c0ffffff
01c0070000
01c0070000
01c0070000
01c0070000
01c00e0000
01c60e0000
ffff0e0000
01c01c0000
01c01c0018
01c01c003c
01c03ffffe
01c018001e
01c000001c
01c000001c
01c700001c
01fc00001c
03f000001c
1fc000001c
ffc000001c
fdc000001c
71c000001c
31c000001c
01c000001c
01c000001c
01c000003c
01c0000038
01c0000038
01c0000078
01c0000070
01c00000f0
01c00001e0
03c00003c0
ffc00fff80
1f80007f00
0700001e00
0600001c00
ENDCHAR
STARTCHAR 232a
ENCODING 9002
SWIDTH 903 0
DWIDTH 40 0
BBX 40 40 0 -6
BITMAP
0180000000
01f0000000
01e0000060
01c000007c
01c0000078
01c0000070
01c0100070
01c0100070
01c0100070
01c6180070
ffff0800e0
01c00c00e0
01c00c00e0
01c00c00e0
01c00601c0
01c00601c0
01c00603c0
01c0030380
01c7030380
01fc038700
03f0018700
1fc001ce00
ffc001ce00
fdc000dc00
71c000fc00
31c0007800
01c000f800
01c000fc00
01c001dc00
01c001ce00
01c0038700
01c0038780
01c00703c0
01c00e01e0
01c01c00f8
03c038007f
ffc070003f
1f80e0001c
0701c0000c
0607000000
ENDCHAR
STARTCHAR 232b
ENCODING 9003
SWIDTH 903 0
DWIDTH 40 0
BBX 40 40 0 -6
BITMAP
0000000000
000000000c
000000001e
ffffffffff
0000000000
0000000000
0000000000
0000000000
0000000180
03000003c0
03ffffffe0
03800001e0
03800001c0
03800001c0
03800001c0
03800001c0
03800001c0
03800001c0
03800001c0
03800001c0
03800001c0
03800001c0
03ffffffc0
03800001c0
03800001c0
03800001c0
03800001c0
03800001c0
03800001c0
03800001c0
03800001c0
03800001c0
03800001c0
03800001c0
03800001c0
03ffffffc0
03800001c0
0380000180
0300000000
0000000000
ENDCHAR
STARTCHAR 232c
ENCODING 9004
SWIDTH 903 0
DWIDTH 40 0
BBX 40 40 0 -6
BITMAP
0000000000
0000000018
000000003c
00003ffffe
601800001e
703c000038
7ffe000070
701e0000e0
701c0001c0
701c000380
701c000700
701c000e00
701c001c00
701c003800
701c007000
701c00e000
701c01c000
701c038000
7ffc038000
701c070000
701c0e0000
701c0e0000
701c1c0000
701c1c0000
701c380000
701c380000
701c380000
701c700000
701c700000
701c700000
7ffc700001
701c700001
7018700003
6000700003
0000780006
00003c000e
00001fffff
00000fffff
000003fffe
0000000000
ENDCHAR
STARTCHAR 232d
ENCODING 9005
SWIDTH 903 0
DWIDTH 40 0
BBX 40 40 0 -6
BITMAP
0006000000
0007800000
0007000000
000e000000
000c000180
06180003c0
07ffffffe0
07000001e0
07000001c0
07000001c0
07000001c0
07000001c0
07000001c0
07000001c0
07000001c0
07ffffffc0
07000001c0
07000001c0
07000001c0
07000001c0
07000001c0
07000001c0
07000001c0
07000001c0
07ffffffc0
07000001c0
07000001c0
07000001c0
07000001c0
07000001c0
07000001c0
07000001c0
07000001c0
07000001c0
07000001c0
07000003c0
070001ffc0
0700001f80
0700000700
0600000600
ENDCHAR
STARTCHAR 232e
ENCODING 9006
SWIDTH 903 0
DWIDTH 40 0
BBX 40 40 0 -6
BITMAP
0000000000
0000000018
000000003c
7ffffffffe
0000e00000
0000e00000
0000e00000
0000e00000
0000e00000
0000e00000
0000e00000
0000e00000
0000e00000
0000e03000
0000e03e00
0000e03c00
0000e03800
0000e03800
0000e03800
0000e03800
1fffe03800
0000e03800
0000e03800
0000e03800
0000e03800
0000e03800
0000e03800
0000e03800
0000e03800
0000e03800
0000e03800
0000e03800
0000e03800
0000e03800
0000e03800
0000e0380c
0000e0381e
ffffffffff
0000000000
0000000000
ENDCHAR
STARTCHAR 232f
ENCODING 9007
SWIDTH 903 0
DWIDTH 40 0
BBX 40 40 0 -6
BITMAP
0000300000
00003e0000
00003c0000
0000380000
0000380000
00003800c0
06003800f0
03003801e0
01803801c0
01c0380380
00e0380300
00f0380600
0070380c00
0070741800
0030743000
0000760000
0000e20000
0000e30000
0001c18000
000380c000
000380e000
0007007000
000e003800
001c001c00
0038000f00
00700007c0
00e00003f0
01c00001ff
070000007f
0e0000003e
380000000e
e000000000
0000000000
0000000000
000000000c
000000001e
ffffffffff
0000000000
0000000000
0000000000
ENDCHAR
STARTCHAR 2330
ENCODING 9008
SWIDTH 903 0
DWIDTH 40 0
BBX 40 40 0 -6
BITMAP
0001800000
000fc00000
307fe00018
3fe380003c
38e387fffe
38e380001e
38e3800038
38e3800070
38e38000e0
38e38001c0
38e3800380
38e3800700
38e3800e00
38e3801c00
38e3803800
38e3807000
38e380e000
38e381c000
38e3838000
38e3838001
38e3870001
38e3870003
38e1c70003
38e1c78006
38e1c7ffff
38e1c3ffff
38e0e1fffe
38e0e00000
30e0700000
30e0700000
30e0380000
30e03c0000
30e01e0000
60e00f0000
60e007c000
60e003f800
c0e000ffff
c0e0003ffe
80c0000ffc
0000000000
ENDCHAR
STARTCHAR 2331
ENCODING 9009
SWIDTH 903 0
DWIDTH 40 0
BBX 40 40 0 -6
BITMAP
0000000000
0000000000
000000000c
301800001e
3e1fffffff
3c1c000000
381c000000
381c000000
381c000000
381c000000
381c000000
381c000000
381c000000
381c000000
381c000000
381c000000
7ffc000000
301c000000
001c000000
001c000000
001c000000
301c000000
3ffc000000
381c000000
381c000000
381c000000
381c000000
381c000000
381c000000
381c000000
381c000000
3818000000
3838000000
3038000000
7030000000
6070000000
6060000000
c0c0000000
8180000000
0300000000
ENDCHAR
STARTCHAR 2332
ENCODING 9010
SWIDTH 903 0
DWIDTH 40 0
BBX 40 40 0 -6
BITMAP
0000000000
6030000030
303c000078
1878fffffc
0c701c003c
06e01c0038
03c01c0038
03801c0038
03c01c0038
06c01c0038
0ce01c0038
18601c0038
30701c0038
60701c0038
c0301c0078
00381c3ff8
00781c03f0
00781c00e0
00f81c00c0
00fc1c000c
01dc1c001e
039c3fffff
031c18000f
061c00000e
0c1c00000e
181c00000e
301c00000e
601c00000e
c01c00000e
001c00000e
001c00000e
001c00001e
003c00001c
003800003c
0078000038
00f00000f0
7ff007ffe0
07e0003fc0
01c0000780
0180000700
ENDCHAR
STARTCHAR 2333
ENCODING 9011
SWIDTH 903 0
DWIDTH 40 0
BBX 40 40 0 -6
BITMAP
0000000000
0000000030
0000000078
3ffffffffc
0000380000
0000380000
0000380000
0000380000
0000380180
00003803c0
07ffffffe0
0000380000
0000380000
0000380000
0000380000
000038000c
000038001e
ffffffffff
0003800000
0003800000
0007000000
0007000000
000e000060
001c0000f0
003ffffff8
0018000078
0000000070
0000000070
0000000070
0000000070
0000000070
00000000f0
00000000e0
00000001e0
00000003c0
0000000780
00007fff00
000001fe00
0000003c00
0000003800
ENDCHAR
STARTCHAR 2334
ENCODING 9012
SWIDTH 903 0
DWIDTH 40 0
BBX 40 40 0 -6
BITMAP
0180000600
01f00007c0
01e0000780
01c0000700
01c0000700
01c0000700
01c0000700
01ffffff00
01c0000700
01c0000700
01c0000700
01c0000700
01c0000700
01c0000700
01c0000700
01c0000700
01c0000700
01c0000700
01c0000700
01c0010700
01c0038700
01ffffc700
01c0000700
01c0000700
01c0000700
01c0000700
01c0000700
01c0000700
01c0000700
01c0000700
01c0000700
01c0000700
01c0000700
01c0000700
01c0000700
01c0000700
01ffffff00
01c0000700
01c0000600
0180000000
ENDCHAR
STARTCHAR 2335
ENCODING 9013
SWIDTH 903 0
DWIDTH 40 0
BBX 40 40 0 -6
BITMAP
0000300000
00003e0000
0c003c00c0
0f803800f8
0f003800f0
0e003800e0
0e003800e0
0e003800e0
0e003800e0
0e003800e0
0e003800e0
0e003800e0
1fffffffe0
0c003800e0
00003800c0
0000380000
0000380000
0000380000
0000380000
0000380000
0000380060
00003800f0
1ffffffff8
0000380000
0000380000
0000380000
0000380000
0000380000
0000380000
0000380000
0000380000
0000380000
0000380000
0000380000
0000380000
000038000c
000038001e
ffffffffff
0000000000
0000000000
ENDCHAR
STARTCHAR 2336
ENCODING 9014
SWIDTH 903 0
DWIDTH 40 0
BBX 40 40 0 -6
BITMAP
0000000000
0000000030
0000000078
3ffffffffc
00001c0000
00001c0000
00001c0000
00001c0000
00001c0000
00001c0000
00001c0000
00001c0000
01801c0000
01f01c0000
01e01c0000
01c01c0000
01c01c0000
01c01c00c0
01c01c01e0
01c01ffff0
01c01c0000
01c01c0000
01c01c0000
01c01c0000
01c01c0000
01c01c0000
01c01c0000
03e01c0000
03a01c0000
03b01c0000
03181c0000
071c1c0000
060e1c0000
0e071c0000
0c03dc0000
1c01fc0000
1800ffffff
30003ffffe
60000ffffc
c000000000
ENDCHAR
STARTCHAR 2337
ENCODING 9015
SWIDTH 903 0
DWIDTH 40 0
BBX 40 40 0 -6
BITMAP
000c000000
000f000000
000e000000
001c000000
0018000000
0030000060
18600000f0
1ffffffff8
1c0701c078
1c0701c070
1c0701c070
1c0701c070
1c0701c070
1c0701c070
1c0701c070
1c0e01c070
1c0e01c070
1c0c01c070
1c1c01c070
1c1801e070
1c3001fff0
1c6000fff0
1cc0007ff0
1d80000070
1f00000070
1c00000070
1c00000070
1c00000070
1c00000070
1c00000070
1c00000070
1c00000070
1c00000070
1c00000070
1c00000070
1c000000f0
1c0000fff0
1c000007e0
1c000001c0
1800000180
ENDCHAR
STARTCHAR 2338
ENCODING 9016
SWIDTH 903 0
DWIDTH 40 0
BBX 40 40 0 -6
BITMAP
0060001800
007c001f00
0078001e00
0070801c04
0071c01c0e
ffffe7ffff
0070001c00
0070001c00
0070001c00
0060001800
0000000000
0000000600
0000000f00
1fffffff80
0000000780
0000000700
0000000700
0000000700
0000000700
0000000700
0000000700
0000000700
0000000700
0000000700
0000000700
0000000700
0000000700
0000000700
0000000380
0000000380
0000000384
0000000384
00000001cc
00000001cc
00000000ec
00000000f8
0000000078
000000003c
000000001c
000000000c
ENDCHAR
STARTCHAR 2339
ENCODING 9017
SWIDTH 903 0
DWIDTH 40 0
BBX 40 40 0 -6
BITMAP
0000600000
0000700000
0000e00000
0001c00c00
0033001e00
003fffff00
0038000f00
0038000e00
0038000e00
0038000e00
0038c00e00
0038600e00
0038380e00
00381c0e00
00381e0e00
00380f0e00
00380f0e00
0038070e00
0038070e00
0038030e00
0038000e00
0038000e00
0038000e00
0038000e00
00383ffe00
003ffe0e00
3fff800e00
3fe0000e00
1e00000e00
0e00000e00
0000000e00
0000000e00
0000000e00
0000000e00
0000000e00
0000001e00
00001ffe00
000000fc00
0000003800
0000003000
ENDCHAR
STARTCHAR 233a
ENCODING 9018
SWIDTH 903 0
DWIDTH 40 0
BBX 40 40 0 -6
BITMAP
0000600000
0000700000
0000e00000
0001c00c00
0033001e00
003fffff00
0038000f00
0038000e00
0038000e00
0038000e00
0038000e00
0038000e00
0038000e00
0038000e00
0038000e00
0038000e00
0038000e00
0038000e00
0038000e0c
0038000e1f
0038000e3e
0038000e78
0038000ef0
0038000fe0
00383fff80
003ffe1f00
3fff803e00
3fe0007e00
1e0001ee00
0e0003ce00
00000f0e00
00003c0e00
0000f00e00
0003c00e00
000f000e00
007c001e00
01e01ffe00
0f0000fc00
f800003800
0000003000
ENDCHAR
STARTCHAR 233b
ENCODING 9019
SWIDTH 903 0
DWIDTH 40 0
BBX 40 40 0 -6
BITMAP
0000038000
003000e000
003c007000
0078001c00
0070000e00
00e0000780
01c00003e0
03800000f8
070000007f
0e0000003f
3800c0000e
e003e00006
001ff00000
00fc000000
0fc0000000
0e00000000
0e00000000
0e00000000
0e00000000
0e00000000
0e00000000
0e00000000
0e00000000
0e00000000
0e00000000
0e00000000
0e00000000
0e00000000
0e00000000
0e00000000
0e00000000
0e00000000
0e00000000
0e00000000
1f80000000
39f0000000
f07fffffff
e01ffffffe
c007fffffc
0000000000
ENDCHAR
STARTCHAR 233c
ENCODING 9020
SWIDTH 903 0
DWIDTH 40 0
BBX 40 40 0 -6
BITMAP
0000000400
0030000e00
003bffff00
0038070000
0038070000
0038070000
0038070000
0038070400
0038070e00
003bffff00
0038070000
0038070000
0038070000
0038070000
0038070400
0038070e00
003bffff00
0038000000
0038000000
0038000000
0038000000
0038000000
0038000000
0038000000
0038000000
0038000000
0038000000
0038000000
0038000000
0038000000
0038000000
0038000000
0038000000
0038000000
0038000000
0038000000
0038000000
0038000000
0038000000
0030000000
ENDCHAR
STARTCHAR 233d
ENCODING 9021
SWIDTH 903 0
DWIDTH 40 0
BBX 40 40 0 -6
BITMAP
0000021800
0000071f00
007fff9e00
0001c01c00
0001c01c00
0001c01c00
0001c01c00
0001c21c00
0001c71c00
007fff9c00
0001c01c00
0001c01c00
0001c01c00
0001c01c00
0001c21c00
0001c71c00
007fff9c00
0000001c00
0000001c00
0000001c00
0000001c00
0000001c00
0000001c00
0000001c00
0000001c00
0000001c00
0000001c00
0000001c00
0000001c00
0000001c00
0000001c00
0000001c00
0000001c00
0000001c00
0000001c00
0000001c00
0000001c00
0000001c00
0000001c00
0000001800
ENDCHAR
STARTCHAR 233e
ENCODING 9022
SWIDTH 903 0
DWIDTH 40 0
BBX 40 40 0 -6
BITMAP
0000000000
000300000c
000780001e
ffffc3ffff
0000000000
0000000000
0000000000
0000000000
0000000000
0000000000
0000000000
3006018030
380f01c078
3fff81fffc
380781c03c
380701c038
380701c038
380701c038
380701c038
380701c038
380701c038
380701c038
380701c038
380701c038
380701c038
380701c038
380701c038
380701c038
380701c038
380701c038
380701c038
380701c038
380701c038
380701c038
380701c038
380701c038
387f01c3f8
380f01c078
380e01c070
300c018060
ENDCHAR
STARTCHAR 233f
ENCODING 9023
SWIDTH 903 0
DWIDTH 40 0
BBX 40 40 0 -6
BITMAP
0000000000
0000000018
000000003c
7ffffffffe
0000c00000
0000f00000
0001e00000
0001c00000
0003800000
0007000000
000e000000
001c003000
0038001800
0070000e00
00e0000700
01c0000380
03800001c0
07001fffe0
1ffff800f0
1ff8380070
0e00380070
0600380030
0000380000
00c0383000
00f8381800
00f0380e00
00e0380700
01e0380380
01c03801c0
03803801e0
03803800e0
0700380070
0e00380078
1c00380038
3800380038
7000780018
c03ff80000
0003f00000
0000e00000
0000c00000
ENDCHAR
STARTCHAR 2340
ENCODING 9024
SWIDTH 903 0
DWIDTH 40 0
BBX 40 40 0 -6
BITMAP
0000000000
000000000c
000000001e
ffffffffff
000e00e000
000e00e000
000e00e000
000e00e000
001c00e000
001c00e000
003800e001
007000e003
00e000e006
01c000f00e
038000ffff
0700007fff
0e00003ffe
3800000000
e000000000
000000000c
000000001e
ffffffffff
000e00e000
000e00e000
000e00e000
000e00e000
000e00e000
001c00e000
001c00e000
003800e000
003800e000
007000e001
007000e003
00e000e003
01c000e006
038000f00e
070000ffff
0e00007fff
3800003ffe
e000000000
ENDCHAR
STARTCHAR 2341
ENCODING 9025
SWIDTH 903 0
DWIDTH 40 0
BBX 40 40 0 -6
BITMAP
0000300000
00003e0000
00003c0000
0000380000
0000380000
0000380000
0000380000
1800380060
1c003800f0
1ffffffff8
1c00380078
1c00380070
1c00380070
1c00380070
1c00380070
1c00380070
1c00380070
1ffffffff0
1c00380060
1800380000
0000380000
0000380100
0000380380
00003fffc0
0000380000
0000380000
0000380000
0000380000
0000380100
0000380380
00003fffc0
0000380000
0000380000
0000380000
0000380000
0000380000
0000380000
0000380000
0000380000
0000300000
ENDCHAR
STARTCHAR 2342
ENCODING 9026
SWIDTH 903 0
DWIDTH 40 0
BBX 40 40 0 -6
BITMAP
0000c00000
0000700000
0000380000
00001c0000
00001c0018
30000c003c
3ffffffffe
380000001e
380000001c
380000001c
380000001c
380000001c
380000001c
381800001c
383c00601c
3ffe007ffc
301e007018
001c007000
001c007000
001c007000
001c007000
001c00700c
001c00701e
ffffffffff
001c007000
001c007000
001c007000
001c007000
0038007000
0038007000
0070007000
0070007000
00e0007000
01c0007000
0380007000
0700007000
0e00007000
1c00007000
3800007000
6000006000
ENDCHAR
STARTCHAR 2343
ENCODING 9027
SWIDTH 903 0
DWIDTH 40 0
BBX 40 40 0 -6
BITMAP
0001800000
0001e00000
0001c00000
0003800000
0003000000
00060000c0
060c0001e0
07fffffff0
070381c0f0
070381c0e0
070381c0e0
070381c0e0
070381c0e0
070381c0e0
070381c0e0
070381c0e0
070381c0e0
070381c0e0
070381c0e0
070381c0e0
070381c0e6
ffffffffff
070381c0e0
070381c0e0
070381c0e0
070381c0e0
070381c0e0
070381c0e0
070381c0e0
070381c0e0
070381c0e0
070381c0e0
070381c0e0
070381c0e0
070381c0e0
070381c0e0
070381c0e0
070381dfe0
07030181c0
0600000180
ENDCHAR
STARTCHAR 2344
ENCODING 9028
SWIDTH 903 0
DWIDTH 40 0
BBX 40 40 0 -6
BITMAP
0000000000
0000000300
0000000780
7fffffffc0
00000003c0
0003000380
0003e00380
0003c00380
0003800380
0003800380
0003800380
0003810380
0003838380
03ffffc380
0003800380
0003800380
0003800380
0003800380
0003800380
0003800380
0003804380
000380e380
1ffffff380
0007800380
000fc00380
000fe00380
001fa00380
003bb00380
003b980380
00739c01c0
00e38e01c1
01c38781c1
038383e1c3
070381fce3
0e0380fce6
1c03807076
380380307e
e00380003e
000380001c
000300000c
ENDCHAR
STARTCHAR 2345
ENCODING 9029
SWIDTH 903 0
DWIDTH 40 0
BBX 40 40 0 -6
BITMAP
0000003000
0000007800
7ffffffc30
0000003c3c
0000003878
00000038e0
0000003b80
0000003e00
0000003b80
00000039e0
00000038f0
0000003870
0000001c31
0000001c01
0000000e03
0000000f03
0000000786
00000003e6
00000061fe
000000f07f
fffffff81f
00000078c6
00000070f0
00000071e0
0000007380
0000007600
0000007c00
0000007600
0000007380
00000039e0
00000038f0
0000001c71
0000001c31
0000000e03
0000000f03
0000000786
00000003e6
00000001ff
00000000ff
000000003e
ENDCHAR
STARTCHAR 2346
ENCODING 9030
SWIDTH 903 0
DWIDTH 40 0
BBX 40 40 0 -6
BITMAP
0000000f00
0000007f80
01800fffc0
01c1ff8000
01ffc00000
01c0000000
01c0000000
01c0000000
01c0000040
01c00000e0
01fffffff0
01c0000000
01c0000000
01c0000000
01c0000000
01c0000000
01e0000000
01fffffff0
00fffffff8
003ffffff8
0000000000
0000000000
0060300c00
007c3e0f80
00783c0f00
0070380e00
0070380e00
0070380e00
0070380e00
0070380e00
00e0380e00
00e0380e00
01c0380e00
01c0380e00
0380380e00
0700380f00
0e00380ffe
1c003807ff
38003801ff
e000300000
ENDCHAR
STARTCHAR 2347
ENCODING 9031
SWIDTH 903 0
DWIDTH 40 0
BBX 40 40 0 -6
BITMAP
0000000180
00000003c0
07ffffffe0
00000007e0
0000001c00
000000e000
0000070000
00001c0000
00001c0000
00001c0000
00001c0000
00001c0000
00001c0000
00001c0000
00001c0000
001ffc0000
0001fc0000
0000380000
0000300000
0000000000
0000000000
000300000c
000780001e
ffffc7ffff
0003c0001f
0007000038
001c0000e0
0030000380
00e0000e00
00e0000e00
00e0000e00
00e0000e00
00e0000e00
00e0000e00
00e0000e00
01e0001e00
3fe003fe00
07e0007e00
01c0001c00
0180001800
ENDCHAR
STARTCHAR 2348
ENCODING 9032
SWIDTH 903 0
DWIDTH 40 0
BBX 40 40 0 -6
BITMAP
0000000000
0000000018
000000003c
7ffffffffe
001c000000
001c000000
001c000000
001c000000
001c000000
001c000000
001c000c00
001c001e00
001fffff00
0038000f00
00380c0e00
00380f0e00
00381e0e00
00383c0e00
0038780e00
0070e00e00
0071c18e00
007701ee00
007003ce00
0070071c00
00e00e1c00
00e01c1c00
00e0381c00
00e0e01c00
01c3801c00
01ce001c00
01c0001c00
0180003800
0000003800
0000003800
0000003800
0000003800
000000380c
000000381e
ffffffffff
0000000000
ENDCHAR
STARTCHAR 2349
ENCODING 9033
SWIDTH 903 0
DWIDTH 40 0
BBX 40 40 0 -6
BITMAP
0000300000
00003e0000
00003c0000
00003807e0
000039fff0
000ffffff8
1ffe380000
0000380000
0000380000
0600380180
07c03801f0
07803801e0
07003801c0
07003801c0
07003801c0
07003801c0
0fffffffc0
06003801c0
0000380184
0000380004
000038000c
000038000c
00003c0018
00003ffffc
00001ffffc
00000ffff8
0000000000
0000000000
0000000040
00000000e0
0ffffffff0
0000000000
0000000000
0000000000
0000000000
0000000000
000000000c
000000001e
ffffffffff
0000000000
ENDCHAR
STARTCHAR 234a
ENCODING 9034
SWIDTH 903 0
DWIDTH 40 0
BBX 40 40 0 -6
BITMAP
0003000000
0001c00000
0000e00000
0000700000
0000780000
0000380000
000038000c
000018001e
ffffffffff
0000000000
0000000000
0060003000
007c003e00
0078003c00
0070003800
0070003800
0070003800
0070003800
0070003800
0070003800
0070003800
0070003800
0070003800
0078007400
00e8007400
00ec007600
00c600e600
01c700e300
01c381c300
038381c380
0381c38180
0701c381c0
0701c700e0
0e00ce00f0
0c001c0078
1c0038003c
380070003f
3000e0001f
6001c0000e
c007000006
ENDCHAR
STARTCHAR 234b
ENCODING 9035
SWIDTH 903 0
DWIDTH 40 0
BBX 40 40 0 -6
BITMAP
0000300000
00003c0000
0000380000
00007c0000
0000e60000
0001c30000
000381c000
000700e000
000e007000
001c003c00
0038001f00
00e00007e0
01cc0603ff
070f07c0ff
0e0e07803c
380e07000c
e01c070000
001c070000
0038070000
0038070000
0070070030
0070070078
00f007fffc
01f0070000
01f0070000
0370070000
0670070000
0c70070000
1870070000
3070070000
0070070002
0070070002
0070070006
0070070006
007007000c
007007801c
007007fffe
007003fffe
007001fffc
0060000000
ENDCHAR
STARTCHAR 234c
ENCODING 9036
SWIDTH 903 0
DWIDTH 40 0
BBX 40 40 0 -6
BITMAP
0030030000
003e01c000
003c00e000
0078007000
007000700c
007000301e
00e7ffffff
00e0000000
01c0000000
01c0000000
03c0000060
03c00000f0
07c0fffff8
07c00000f8
0fc00001e0
0fc0000380
1dc0000700
39c0000c00
31c0001800
61c0007000
c1c0007000
01c0007000
01c0007000
01c0007000
01c0007000
01c0007000
01c0007000
01c0007000
01c0007000
01c0007000
01c0007000
01c0007000
01c0007000
01c0007000
01c0007000
01c000f000
01c03ff000
01c007e000
01c001c000
0180018000
ENDCHAR
STARTCHAR 234d
ENCODING 9037
SWIDTH 903 0
DWIDTH 40 0
BBX 40 40 0 -6
BITMAP
0030000000
003e000000
003c000030
0078000078
0073fffffc
00701c0380
00e01c0380
00e01c0380
01c01c0380
01c01c0380
03c01c0380
03c01c0380
07c01c0380
07c01c0380
0fc01c0380
0fc01c0380
1dc01c0384
39c01c038e
31cfffffff
61c01c0380
c1c01c0380
01c01c0380
01c01c0380
01c01c0380
01c01c0380
01c01c0380
01c0380380
01c0380380
01c0380380
01c0700380
01c0700380
01c0700380
01c0e00380
01c0e00380
01c1c00380
01c1c00380
01c3800380
01c3000380
01c6000380
018c000300
ENDCHAR
STARTCHAR 234e
ENCODING 9038
SWIDTH 903 0
DWIDTH 40 0
BBX 40 40 0 -6
BITMAP
0030060000
003e07c000
003c078000
0078070000
0070070000
0070070000
00e0070000
00e007000c
01c00e001e
01c00fffff
03c00e381f
03c00c381c
07c01c3838
07c0183830
0fc0383860
0fc0303840
1dc0603800
39c0403800
31c0003800
61c0007c00
c1c0007400
01c0007400
01c0007600
01c000e600
01c000e200
01c000e300
01c001c300
01c001c180
01c0038180
01c00381c0
01c00700e0
01c00e00e0
01c00e0070
01c01c0078
01c038003c
01c070001f
01c0e0001f
01c1c0000e
01c3800006
018e000000
ENDCHAR
STARTCHAR 234f
ENCODING 9039
SWIDTH 903 0
DWIDTH 40 0
BBX 40 40 0 -6
BITMAP
0600001800
07c0001e00
0780001c00
0700003c00
0700003a00
0700007300
0700006180
070000e1c0
070001c0e0
070c01c070
071e03803c
ffff07001f
070f0e000f
070e1d8186
070e39e1e0
070e61c1c0
070e01c1c0
070e01c1c0
070e01c1c0
070e01c1c0
070e01c1c0
070e01c1c0
070e01c1c0
070e01c1c0
070e01c1c0
060e0381c0
0e0e0381c0
0e0e0381c0
0e0e0701c0
0e0e0601c0
0c0e0c01c1
1c0e1801c1
1c0e300183
180e000003
380e000006
300f00000e
700fffffff
6007ffffff
c003fffffe
8000000000
ENDCHAR
STARTCHAR 2350
ENCODING 9040
SWIDTH 903 0
DWIDTH 40 0
BBX 40 40 0 -6
BITMAP
0000300000
00003e0000
00003c0000
0000780000
00007c0000
0000f60000
0001e30000
0003c1c000
000780e000
000e003800
001c001e00
0038000f80
00f00003e0
01e00001ff
078000007f
0e6000383c
387c00fc0c
e07803e000
00700f0000
0070780000
0073c00e00
007e001f00
0070007800
007003c000
00700f0000
0070780380
0073c00fc0
007e003f00
007000f000
00700f8000
00707c0004
0073c00004
007e00000c
007000000c
0070000018
0078000038
007ffffffc
003ffffffc
000ffffff8
0000000000
ENDCHAR
STARTCHAR 2351
ENCODING 9041
SWIDTH 903 0
DWIDTH 40 0
BBX 40 40 0 -6
BITMAP
0000300000
00003c0000
0000780000
0000fc0000
0001c60000
0003830000
000701c000
000e00e000
001c007800
0038003e00
0070001f80
00e03007f0
01c03c03ff
07007800ff
0e00fc003e
3801e6000e
e003c38000
000781e000
000f00f800
001e003e00
0038001fc0
007000c7ff
01efffe1ff
038000007e
0e0000000e
3800000000
e000001800
0000003c00
00fffffe00
0000003e00
0000003800
0000007000
0000007000
000000e000
000000c000
0000018000
0000030000
0000060000
00000c0000
0000180000
ENDCHAR
STARTCHAR 2352
ENCODING 9042
SWIDTH 903 0
DWIDTH 40 0
BBX 40 40 0 -6
BITMAP
0001800000
0000e00000
0000700000
0000380000
00003c0000
00001c0000
00000c000c
000000001e
ffffffffff
0001c00000
0001c00000
0003800000
0003800000
0007001800
000e000e00
001c000700
0038000380
00700001c0
00c01fffe0
03ffffe0f0
03fff0c070
01f600f870
00c7c0f030
000780e000
000700e000
000700e000
000700e000
000700e000
000e00e000
000e00e000
001c00e001
001c00e001
003800e003
003800e003
007000e006
00e000f00e
01c000ffff
0380007fff
0e00001ffe
3800000000
ENDCHAR
STARTCHAR 2353
ENCODING 9043
SWIDTH 903 0
DWIDTH 40 0
BBX 40 40 0 -6
BITMAP
0000000000
0000000018
000000003c
7ffffffffe
0000000000
0000000000
0000c00000
0000700000
0000380000
08001c0000
08001c000c
08000c001e
1fffffffff
180000001f
380000001c
7000000018
f01800c030
e01f00f820
c01e00f000
001c00e000
001c00e000
001c00e000
001c00e000
001c00e000
001c00e000
001c00e000
001c00e000
001c00e000
001c00e000
003800e000
003800e001
007000e001
007000e003
00e000e003
01c000e006
038000f00e
070000ffff
0e00007fff
3800001ffe
e000000000
ENDCHAR
STARTCHAR 2354
ENCODING 9044
SWIDTH 903 0
DWIDTH 40 0
BBX 40 40 0 -6
BITMAP
0000000000
0000000180
00000003c0
03ffffffe0
00000001e0
00000001c0
00000001c0
00000001c0
00000001c0
00000001c0
00000001c0
07ffffffc0
00000001c0
0000c00180
0000700000
0000380000
00001c0000
00001c000c
00000c001e
ffffffffff
0000000000
001800c000
001f00f800
001e00f000
001c00e000
001c00e000
001c00e000
001c00e000
001c00e000
003800e000
003800e001
007000e001
007000e003
00e000e003
01c000e006
038000f00e
070000ffff
0e00007fff
3800001ffe
e000000000
ENDCHAR
STARTCHAR 2355
ENCODING 9045
SWIDTH 903 0
DWIDTH 40 0
BBX 40 40 0 -6
BITMAP
0000e00000
0000380000
00001c0000
0000370000
0000738000
0000e1c000
0001c0e000
0003807800
0007003e00
001c000f80
00380007e0
00e00001ff
03800000ff
0e00000038
3800000418
e000000e00
00ffffff00
0000000000
0000000000
0000000000
0000000000
0000000030
0000000078
3ffffffffc
000e00e000
000e00e000
000e00e000
000e00e000
000e00e000
000e00e000
001c00e000
001c00e000
003800e000
007000e000
00e000e000
01c000e000
038000e000
070000e000
1c0000e000
700000c000
ENDCHAR
STARTCHAR 2356
ENCODING 9046
SWIDTH 903 0
DWIDTH 40 0
BBX 40 40 0 -6
BITMAP
0000e00000
0000380000
00003c0000
0000770000
0000e38000
0001c1c000
000380e000
0007007800
000e003e00
001c000f80
00380007e0
00e03001ff
03803e00ff
0e003c0038
3800380018
e000380100
0000380380
00003fffc0
0000380000
0000380000
0000380000
0000380600
0000380f00
07ffffff80
0020000f80
0018001f00
000c003c00
0006007800
000300f000
0001c1c000
0000e70000
00007e0000
0000ff0000
0003e7c000
000f81f800
003e007f00
00f8000fff
03c00003ff
1f000000fc
f80000001c
ENDCHAR
STARTCHAR 2357
ENCODING 9047
SWIDTH 903 0
DWIDTH 40 0
BBX 40 40 0 -6
BITMAP
0000300000
00003e0000
00603c3000
0078381c00
00f0380700
00e03803c0
01c03801e0
03803800e0
0700380060
0e00380000
1800380000
0000380040
00003800e0
0ffffffff0
0000380000
0000380000
0000380000
0000380000
0000700000
0000700000
000070000c
000070001e
ffffffffff
0000e20000
0000e30000
0001c10000
0001c18000
000380c000
000380e000
0007007000
000e003800
001c001e00
0038000f00
0070000780
00e00003e0
01c00001ff
03800000ff
0e00000078
3800000038
e000000000
ENDCHAR
STARTCHAR 2358
ENCODING 9048
SWIDTH 903 0
DWIDTH 40 0
BBX 40 40 0 -6
BITMAP
0001800000
0001e00000
0003c00000
0003800000
0007000000
0006000000
180c000060
1c180000f0
1ffffffff8
1c00000078
1c00000070
1c00000070
1c03030070
1c03e3e070
1c03c3c070
1c03838070
1c03838070
1c03838070
1c03838470
1c03838e70
1dffffff70
1c03838070
1c03838070
1c03838070
1c03838070
1c07038070
1c07038070
1c0e038070
1c0e03c070
1c1c03fe70
1c3801ff70
1c70007f70
1ce0000070
1d80000070
1c00000070
1c000000f0
1c00007ff0
1c000007e0
1c000001c0
1800000180
ENDCHAR
STARTCHAR 2359
ENCODING 9049
SWIDTH 903 0
DWIDTH 40 0
BBX 40 40 0 -6
BITMAP
0000000000
0003000300
0307830780
03ffc3ffc0
0383c383c0
0383838380
0383838380
0383838380
0383838380
0383838380
0383838380
0383838380
0383838390
03838383b8
7ffffffffc
0383838380
0383838380
0383838380
0383838380
0383838380
0383838380
0383838384
038383838e
ffffffffff
0383838380
0383838380
0383838380
0383838380
0383838380
0383838380
0383838380
0383838380
0383838380
0383838380
0383838380
0383838380
03bf83bf80
038f838f80
0387038700
0306030600
ENDCHAR
STARTCHAR 235a
ENCODING 9050
SWIDTH 903 0
DWIDTH 40 0
BBX 40 40 0 -6
BITMAP
0000000000
0c000000c0
0e000001e0
0ffffffff0
0e0701c0f0
0e0701c0e0
0e0701c0e0
0e0701c0e0
0e0701c0e0
0e0701c0e0
0e0701c0e0
0e0701c0e0
0e0701c0e0
0e0701c0e6
ffffffffff
0e0701c0e0
0e0701c0e0
0e0701c0e0
0e0701c0e0
0e0701c0e0
0e0701c0e0
0e0701c0e0
0e0701c0e6
ffffffffff
0e0701c0e0
0e0701c0e0
0e0701c0e0
0e0701c0e0
0e0701c0e0
0e0701c0e0
0e0701c0e0
0e0701c0e0
0e0701c0e0
0e0701c0e0
0e0701c0e0
0e0701c1e0
0e0701dfe0
0e0701cfc0
0e06018380
0c00000300
ENDCHAR
STARTCHAR 235b
ENCODING 9051
SWIDTH 903 0
DWIDTH 40 0
BBX 40 40 0 -6
BITMAP
0000000000
0800000000
080000000c
180000001e
1fffffffff
380000001f
700000001c
f000000018
e000000030
c000000020
0000000300
0000000780
07ffffffc0
0000380000
0000380000
0000380000
0000380000
0000380000
0000380000
0000380000
0000380018
000038003c
7ffffffffe
0000700000
0000740000
0000e60000
0000e30000
0001c38000
0001c1c000
000380e000
0007007000
000e003c00
001c001e00
0038000f80
00700007e0
00e00003ff
01c00000ff
070000003c
1c0000000c
f000000000
ENDCHAR
STARTCHAR 235c
ENCODING 9052
SWIDTH 903 0
DWIDTH 40 0
BBX 40 40 0 -6
BITMAP
0000000000
0000000030
0000000078
6001fffffc
3800701c00
1c00701c00
0e00701c00
0f00701c00
0700e01c00
0300e01c00
0020e01c00
0020e01c00
0061c01c00
0041c01c00
00c1c01c0c
00c1c01c1e
0183ffffff
0181801c00
0380001c00
0300001c00
0300001c00
0700001c00
0600031c00
0e0000dc00
0e00007c00
1c00003c00
fc00001e00
7c00001f00
3800001f80
3800001dc0
1c00001ce0
1c00001cf0
1c00001c70
1e00001c30
1e00001c00
1e00001c00
1e00001c00
0c00001c00
0000001c00
0000001800
ENDCHAR
STARTCHAR 235d
ENCODING 9053
SWIDTH 903 0
DWIDTH 40 0
BBX 40 40 0 -6
BITMAP
0000000000
0000000018
000000003c
7ffffffffe
00000f0000
00001e0000
00003c0000
0000780000
0000f80000
0001f87000
0003b81c00
0007380780
001e3801e0
003c380078
00f038003c
03c038001c
1e0038000c
f000380000
0000300000
0018003000
001c007800
001ffffc00
001c003c00
001c003800
001c003800
001c003800
001c003800
001c003800
001c003800
001c003800
0038003801
0038003801
0070003803
00e0003803
01c0003806
0380003c0e
0700003fff
0e00001fff
38000007fe
e000000000
ENDCHAR
STARTCHAR 235e
ENCODING 9054
SWIDTH 903 0
DWIDTH 40 0
BBX 40 40 0 -6
BITMAP
0000000000
0600000300
0700000780
07ffffffc0
07000003c0
0700000380
0700018380
073001e380
071c01c380
070e038380
0707030380
0707063380
07030c7b80
07ffffff80
0701c00380
0701c00380
0701c00380
0703800380
0703800380
070700c380
070701e380
070ffff380
070600f380
070000e380
070000e380
070000e380
070000e380
070000e381
070000e381
070000e381
070000e1c3
0e0001e1c3
0e0001c0e3
0e0003c0e6
1c07ff8076
18003f003e
38000e001f
30000c000f
6000000006
c000000000
ENDCHAR
STARTCHAR 235f
ENCODING 9055
SWIDTH 903 0
DWIDTH 40 0
BBX 40 40 0 -6
BITMAP
00c0000000
00f0000060
00e00000f0
01fffffff8
01c0000078
0380000070
070000e070
0e3ffff070
18000000f0
00000000e0
000000ffe0
00000003c0
0000000380
0000000300
0000000000
0300000380
03ffffffc0
03800003c0
0380000380
0380018380
038003c380
038fffe380
038003e380
0380078380
03800f0380
03801e0380
03803c0380
0380700380
0380e00380
0383c01380
0707001381
070e0031c1
071c0031c3
0e1c0060c3
0e1e00e0e6
1c1ffff076
180ffff03e
3003ffe01f
600000000f
c000000006
ENDCHAR
STARTCHAR 2360
ENCODING 9056
SWIDTH 903 0
DWIDTH 40 0
BBX 40 40 0 -6
BITMAP
0000300000
00003e0000
00003c0780
0000387fe0
00003ffff0
1ffff80000
0000380000
0600380180
07803801e0
07003801c0
07003801c0
07003801c0
0fffffffc4
0600380184
0000380004
0000380004
00003c0006
00001ffffe
00000ffffc
0000000000
0018003000
001c007800
001ffffc00
001c003c00
001c003800
001c003800
001c003800
001c003800
001c003800
001c003800
0038003801
0038003801
0070003803
00e0003803
01c0003806
0380003c0e
0700003fff
0e00001fff
38000007fe
e000000000
ENDCHAR
STARTCHAR 2361
ENCODING 9057
SWIDTH 903 0
DWIDTH 40 0
BBX 40 40 0 -6
BITMAP
0000000000
0000000000
000601800c
000f01c01e
ffff81ffff
000781c000
000701c000
000701c000
000701c000
180701c060
1f0701c07c
1e0701c078
1c0701c070
1c0701c070
1c0701c070
1c0701c070
1c0701c070
1c0701c070
1c07ffc070
1c0701c070
1c06018070
1c00000070
1c00000070
1c00000070
1c00000070
1c00000070
1c00000c70
1c00001e70
1dffffff70
1c00000070
1c00000070
1c00000070
1c00000070
1c00000070
1c00000070
1c00000070
3ffffffff0
1800000070
0000000060
0000000000
ENDCHAR
STARTCHAR 2362
ENCODING 9058
SWIDTH 903 0
DWIDTH 40 0
BBX 40 40 0 -6
BITMAP
0000300000
00003e0000
00003c0000
0000380000
0000380000
0000380000
0000380000
00003800c0
00003801e0
1ffffffff0
0000380000
0000380000
3000380030
3e0038003e
3c003c003c
3800740038
3800760038
3800660038
3800e30038
3800e30038
3801c18038
3801c1c038
380380e038
380760f038
3807307838
380e383c38
381c1c1f38
38380e0ff8
38700e07f8
38e00603b8
39c00001b8
3b00000038
3800000038
3800000038
3800000038
3800000038
3800000038
7ffffffff8
3000000038
0000000030
ENDCHAR
STARTCHAR 2363
ENCODING 9059
SWIDTH 903 0
DWIDTH 40 0
BBX 40 40 0 -6
BITMAP
0006000000
0007830000
000700c000
000e007000
000c003800
001c001e00
0038000f00
0030000780
0060000380
00c000c180
018400f800
000400f000
300600e030
3e0600e03e
3c0201c03c
380301c038
3801838038
3801838038
3800c70038
3800ee0038
38007e0038
38003c0038
38003c0038
38007e0038
3800e70038
3801c3c038
380381e038
380700f838
380e007fb8
381c003fb8
3838001c38
38e0000c38
3b80000038
3800000038
3800000038
3800000038
3800000038
7ffffffff8
3000000038
0000000030
ENDCHAR
STARTCHAR 2364
ENCODING 9060
SWIDTH 903 0
DWIDTH 40 0
BBX 40 40 0 -6
BITMAP
0000000000
0000600000
0000f00000
0001f80000
0007800000
001e000030
3078000078
39e0007ffc
3f0000003c
3800000038
3800000038
3800000038
3800003038
3800003e38
3800003c38
3870007838
381c007038
380700e038
380381e038
3800e3c038
3800778038
38003f0038
38003f8038
38007bc038
3800f1e038
3801e0f038
3803c07838
380f003c38
383c001c38
38f0000c38
3bc0000038
3800000038
3800000038
3800000038
3800000038
3800000038
3ffffffff8
3800000038
3800000038
3000000030
ENDCHAR
STARTCHAR 2365
ENCODING 9061
SWIDTH 903 0
DWIDTH 40 0
BBX 40 40 0 -6
BITMAP
0000000000
0000300000
00003e0000
00003c0000
0000380000
0000380000
0000387000
000039fc00
00003ffe00
00fff80000
0000380000
0000380000
3000380030
3e0038003e
3c0038103c
3800383838
387ffffc38
3800380038
3800380038
3800380038
3800380038
3800380038
3800380438
3800380e38
39ffffff38
3800380038
3800380038
3800380038
3800380038
3800380038
3800380038
3800380038
3800380038
3800380038
3800300038
3800000038
3800000038
7ffffffff8
3000000038
0000000030
ENDCHAR
STARTCHAR 2366
ENCODING 9062
SWIDTH 903 0
DWIDTH 40 0
BBX 40 40 0 -6
BITMAP
0000000018
030000001f
018000001e
00c000001c
00e000001c
007000301c
0070603e1c
0030f03c1c
fffff8381c
038000381c
038000381c
038000381c
038000381c
038000381c
0380c0381c
0381e0381c
03fff0381c
0380f0381c
0380e0381c
0380e0381c
0380e0381c
0380e0381c
0380e0381c
0380e0381c
0380e0381c
0700e0381c
0700e0381c
0700e0381c
0700e0381c
0e00e0301c
0e00e0001c
0c00e0001c
1c01e0001c
1801c0001c
3803c0001c
31ff80003c
703f000ffc
600e0001f8
c00c000070
8000000060
ENDCHAR
STARTCHAR 2367
ENCODING 9063
SWIDTH 903 0
DWIDTH 40 0
BBX 40 40 0 -6
BITMAP
0000000018
0000c0001f
0001e0001e
1ffff0001c
0000f0001c
0c01e0301c
0701c03e1c
0383803c1c
01c700381c
00ee00381c
007c00381c
003c00381c
007f00381c
00e780381c
01c3c0381c
0381e0381c
0700e0381c
1c0060381c
700000381c
000000381c
000000381c
000060381c
0000f0381c
3ffff8381c
0800f8381c
0601e0381c
0301c0381c
018380381c
00c700381c
00ee00301c
007c00001c
003c00001c
007e00001c
00ef00001c
01c780001c
0383c0003c
0701e00ffc
0e00e001f8
3800600070
e000000060
ENDCHAR
STARTCHAR 2368
ENCODING 9064
SWIDTH 903 0
DWIDTH 40 0
BBX 40 40 0 -6
BITMAP
0000000018
0c0004001f
0e000e001e
0fffff001c
0e01c0001c
0e01c0301c
0e01c03e1c
0e01c03c1c
0e01c0381c
0e01c0381c
1c01c0381c
1c01c0381c
1c01c0381c
1c01c0381c
1c01c0381c
1c01c0381c
3fffc0381c
1803c0381c
0007c0381c
0007c0381c
000fc0381c
001dc0381c
001dc0381c
0039c0381c
0039c0381c
0071c0381c
00e1c0381c
00e1c0381c
01c1c0381c
0381c0301c
0701c0001c
0e01c0001c
1c01c0001c
3801c0001c
7001c0001c
c003c0003c
01ffc00ffc
001f8001f8
0007000070
0006000060
ENDCHAR
STARTCHAR 2369
ENCODING 9065
SWIDTH 903 0
DWIDTH 40 0
BBX 40 40 0 -6
BITMAP
0000000018
0000c0001f
0001e0001e
fffff0001c
01c0f0001c
01c0e0181c
01c0e01f1c
01c0e01e1c
01c0e01c1c
01c0e01c1c
01c0e01c1c
01c0e01c1c
01c0e01c1c
01c0e01c1c
01c0e01c1c
01c0e01c1c
19c0e01c1c
1fc0f01c1c
1dc0f81c1c
1dc0ec1c1c
19c0e61c1c
39c0e71c1c
31c0e39c1c
31c0e39c1c
61c0e19c1c
61c0e01c1c
c1c0e01c1c
81c0e01c1c
0380e01c1c
0380e0181c
0380e0001c
0700e0001c
0701c0001c
0e01c0001c
0c03c0001c
1cff80003c
183f000ffc
300e0001f8
600c000070
c000000060
ENDCHAR
STARTCHAR 236a
ENCODING 9066
SWIDTH 903 0
DWIDTH 40 0
BBX 40 40 0 -6
BITMAP
0600000018
07c000001f
078000001e
070000001c
070000001c
070018181c
0e003c1f1c
0ffffe1e1c
0c001e1c1c
1c001c1c1c
18001c1c1c
38001c1c1c
30001c1c1c
61801c1c1c
c1f01c1c1c
81e01c1c1c
01c01c1c1c
01c01c1c1c
03801c1c1c
03801c1c1c
07181c1c1c
070c1c1c1c
0e061c1c1c
1c7f1c1c1c
3fe71c1c1c
3f071c1c1c
1c031c1c1c
0c001c1c1c
00001c1c1c
00001c181c
00003c001c
000038001c
000038001c
000078001c
000070001c
0000f0003c
00ffe00ffc
000fc001f8
0003800070
0003000060
ENDCHAR
STARTCHAR 236b
ENCODING 9067
SWIDTH 903 0
DWIDTH 40 0
BBX 40 40 0 -6
BITMAP
1800600018
1f007c001f
1e0078001e
1c0070001c
1c0070001c
1c0070181c
1c00701f1c
1c00701e1c
1c00701c1c
1c00701c1c
1c00701c1c
1c00701c1c
1ffff01c1c
1c00701c1c
1c00601c1c
1c00001c1c
1c00001c1c
1c00001c1c
1c00001c1c
1c00301c1c
1c00781c1c
1ffffc1c1c
1c003c1c1c
1c00381c1c
1c00381c1c
1c00381c1c
1c00381c1c
1c00381c1c
1c00381c1c
1c0038181c
380038001c
380038001c
380038001c
380038001c
300038001c
700038003c
6000380ffc
60003801f8
c000380070
8000300060
ENDCHAR
STARTCHAR 236c
ENCODING 9068
SWIDTH 903 0
DWIDTH 40 0
BBX 40 40 0 -6
BITMAP
0300000000
03e0006000
03c0007c00
0380007800
0380007000
0380007000
0380007000
0384007000
038e007030
ffff007078
03803ffffc
038000703c
0380007038
0380007038
0380007038
0380007038
038c007038
039e007038
ffff007038
200f00e038
200e00e038
200e00e038
301c00e038
101c01c038
181c01c038
0c38038038
0c38038078
0670070070
03600e00f0
03e01c7ff0
01c03807e0
03e07001c0
03f1c00180
07bc000000
070f000000
0e07c00000
1c03ffffff
3800ffffff
70003ffffc
c000000000
ENDCHAR
STARTCHAR 236d
ENCODING 9069
SWIDTH 903 0
DWIDTH 40 0
BBX 40 40 0 -6
BITMAP
0000000000
3000000018
380000003c
3ffffffffe
3800000000
3800000000
3800060000
380007c000
3800078000
3800070000
3800070180
38000703c0
383fffffe0
3800070000
3800070000
3800070000
3800070000
3800070000
3800070030
3800070078
39fffffffc
38000e8000
38000ec000
38001c6000
38001c7000
3800383800
3800701c00
3800e00f00
3801c007c0
38038003fe
38070000fe
381c000038
3870000018
39c0000000
3800000000
3800000000
3800000006
7fffffffff
3000000000
0000000000
ENDCHAR
STARTCHAR 236e
ENCODING 9070
SWIDTH 903 0
DWIDTH 40 0
BBX 40 40 0 -6
BITMAP
0000000000
3000000018
380000003c
3ffffffffe
3800000000
3800000000
3800000060
38000000f0
38fffffff8
380001c000
380001c000
3800038000
3800038000
3800070000
3800070000
38000e0000
38001e0000
38003e0000
38007e7000
3800ee1e00
3801ce0780
38038e01e0
38070e00f0
381c0e0070
38700e0030
39c00e0000
38000e0000
38000e0000
38000e0000
38000e0000
38000e0000
38000e0000
38000e0000
38000e0000
38000c0000
380000000c
380000001e
7fffffffff
3000000000
0000000000
ENDCHAR
STARTCHAR 236f
ENCODING 9071
SWIDTH 903 0
DWIDTH 40 0
BBX 40 40 0 -6
BITMAP
0000000000
0000000018
000000003c
fffffffffe
3800000000
3800000000
3800000780
3800007fc0
38300fffe0
3839ffe000
383fe38000
3838038000
3838038000
3838038000
3838038030
3838038078
383ffffffc
383801c000
383801c000
383800e000
383800e000
3838007000
3838007002
3838003802
3838071c06
38383c0e06
3839f0070c
383fc0038c
383f0001d8
383e0000f8
383800007c
381800003c
3800000018
3c00000000
3e00000000
1ffffffffe
0fffffffff
07ffffffff
0000000000
0000000000
ENDCHAR
STARTCHAR 2370
ENCODING 9072
SWIDTH 903 0
DWIDTH 40 0
BBX 40 40 0 -6
BITMAP
0000000000
0000300000
00003e0000
00003c0000
0000380000
0000380000
0000380180
0e003803e0
03803807c0
00e0380f00
0078381c00
0038383800
001838e000
0000380000
0000380000
0003b8e000
001e383c00
00f0380f00
07c03803c0
7f003801e0
7c003800f0
3800380070
1800380030
0000380000
000038000c
000038001e
ffffffffff
0000380000
0000380000
0000380000
0000380000
0000380000
0000380000
0000380000
0000380000
0000380000
0000380000
0000380000
0000380000
0000300000
ENDCHAR
STARTCHAR 2371
ENCODING 9073
SWIDTH 903 0
DWIDTH 40 0
BBX 40 40 0 -6
BITMAP
0000000000
0000300000
00003e0000
00003c0000
0000380000
0000380000
0000380060
00003800f0
3ffffffff8
0000380000
0000380000
0000380000
0000380000
00c0380c00
00f8380f80
00f0380f00
00e0380e00
00e0300e00
00e0000e00
00e0000e08
00e3000e1c
ffff83fffe
00e0000e00
00e0000e00
00e0000e00
00e0000e00
00e0000e00
00e0000e00
00e0000e00
00e0000e00
00e0000e01
00e0000c01
00e0000003
00e0000003
00e0000006
00f000000e
00ffffffff
007fffffff
001ffffffe
0000000000
ENDCHAR
STARTCHAR 2372
ENCODING 9074
SWIDTH 903 0
DWIDTH 40 0
BBX 40 40 0 -6
BITMAP
0000003000
0000003e00
0000803c00
0001c03800
ffffe03800
00e0003800
00e0003800
01c0003800
01c0003800
03e0003800
0770003800
0e30003800
1c38003800
3838003800
701c00380c
c01c00381e
001c7fffff
001e003800
003e003800
003e003800
006e003800
00ee003800
01ce003800
038e003800
070e003800
0e0e003800
1c0e003800
380e003800
600e003800
c00e003800
000e003800
000e003800
000e003800
001e003800
001c003800
003c003800
3ff8003800
03f0003800
00e0003800
00c0003000
ENDCHAR
STARTCHAR 2373
ENCODING 9075
SWIDTH 903 0
DWIDTH 40 0
BBX 40 40 0 -6
BITMAP
0000300000
00003e0000
00003c0000
0000380000
0000380000
0000380300
0300380780
03ffffffc0
03803803c0
0380380380
0380380380
0380380380
0380380380
0380380380
0380380380
03ffffff80
0380380380
0380380380
0380380380
0380380380
0380380380
0380380380
0380380380
03ffffff80
0380380380
0300380300
0000380000
0000380000
000038000c
000038001e
ffffffffff
0000380000
0000380000
0000380000
0000380000
0000380000
0000380000
0000380000
0000380000
0000300000
ENDCHAR
STARTCHAR 2374
ENCODING 9076
SWIDTH 903 0
DWIDTH 40 0
BBX 40 40 0 -6
BITMAP
0000600000
00007c0000
0000780000
0000700000
0000ec0000
0001c70000
000381c000
0007007800
000e001e00
003c000780
00706001e0
01c07c007c
070078003e
3c0070000e
e000ec0000
0001e60000
0003c38000
000781e000
000e007800
001c001f00
0070000fff
01e03003ff
07803e00fc
1c003c001c
f000380000
0000380000
0000380000
0000380030
0000380078
3ffffffffc
0000380000
0000380000
0000380000
0000380000
0000380000
0000380000
0000380000
0000380000
0000380000
0000300000
ENDCHAR
STARTCHAR 2375
ENCODING 9077
SWIDTH 903 0
DWIDTH 40 0
BBX 40 40 0 -6
BITMAP
0000000000
0000300000
00003e0000
00003c0000
0000380000
0000380000
0000380000
0000380000
0000380030
0000380078
3ffffffffc
0000380000
0000380000
0000380000
0000380000
0180380600
01f03807c0
01e0380780
01c0380700
01c0380700
01c0380700
01c0380700
01c438070c
01ce38071e
ffff39ffff
01c0380700
01c0380700
01c0380700
01c0380700
01c0380700
01c0380700
01c0380700
01c0380700
01c0380700
01c0380700
01c0380700
01ffffff00
01c0000700
0180000600
0000000000
ENDCHAR
STARTCHAR 2376
ENCODING 9078
SWIDTH 903 0
DWIDTH 40 0
BBX 40 40 0 -6
BITMAP
0000600000
00007c0000
0000780000
0000700000
0000700000
0000700040
00007000e0
00007ffff0
0000700000
0000700000
0000700000
0000700000
0000700010
0000700038
3ffffffffc
0000000000
0000000000
0000000000
000000000c
000000001e
ffffffffff
0000700000
0000700000
0000700000
00007e0000
0000738000
000070e000
0000703800
0000701e00
0000700780
00007003c0
00007001e0
00007000e0
0000700060
0000700000
0000700000
0000700000
0000700000
0000700000
0000600000
ENDCHAR
STARTCHAR 2377
ENCODING 9079
SWIDTH 903 0
DWIDTH 40 0
BBX 40 40 0 -6
BITMAP
0000600000
00007c0000
0000780000
0000700000
0000700000
0000700000
0000700040
00007000e0
00007ffff0
0000700000
0000700000
0000700000
0000700000
0000700000
0000700000
000070000c
000070001e
ffffffffff
0006000000
0007c00000
0007800000
0007001800
000e003c00
000ffffe00
001c003e00
0038003c00
0070007800
00ec00f000
01c701e000
0381c3c000
0700778000
1c003f0000
30007f8000
0000f3f000
0003c0fc00
000f003fc0
007c000fff
01f00003ff
1f800000f8
fc00000038
ENDCHAR
STARTCHAR 2378
ENCODING 9080
SWIDTH 903 0
DWIDTH 40 0
BBX 40 40 0 -6
BITMAP
00000c0000
00000f8000
00000f0000
00000e0000
00000e0030
00000e0078
00000ffffc
00000e0000
00000e0000
00000e0000
00000e0000
00000e0000
06000e000c
07000e001e
07ffffffff
070000000f
070000000e
070000000c
0700000018
0700000310
0700000780
077fffffc0
07020007c0
0703000780
0701000f00
0700c00e00
0700c01c00
0700603800
0700307000
07001de000
0e000fc000
0e001fe000
0e003df800
1c00787e00
1c01e01fc0
3803c007ff
700f0001ff
603c00007c
c1e000001c
8f00000000
ENDCHAR
STARTCHAR 2379
ENCODING 9081
SWIDTH 903 0
DWIDTH 40 0
BBX 40 40 0 -6
BITMAP
0000000000
6003030018
700783803c
7fffc3fffe
7003c3801e
700383801c
700383801c
700383801c
700383801c
760383b01c
730383981c
7183838c1c
71c3838e1c
70e383871c
70f383871c
707383839c
707383839c
703383819c
700383801c
700383801c
700383801c
700383801c
700383801c
700383801c
700383801c
700783803c
77ff83bffc
707f0383f8
700e038070
700c038060
7000038000
7000038000
7000038000
7000038000
7000038000
7000038000
7000038000
7000038000
7000038000
6000030000
ENDCHAR
STARTCHAR 237a
ENCODING 9082
SWIDTH 903 0
DWIDTH 40 0
BBX 40 40 0 -6
BITMAP
0000000000
0000400000
0000e00018
fffff0003c
1c0707fffe
1c0700001e
1c0700001c
1c0700001c
1c0700001c
1c0700001c
1c0700001c
1c0700001c
1c0700001c
1c0700001c
1c0700001c
1c0700001c
1c0700001c
1c0700001c
1c0700001c
1c0703fffc
1c0700001c
1c0700001c
1c0700001c
1c0700001c
1c0700001c
1c0700001c
1c0700001c
1c0700001c
1c0700001c
1c7f00001c
1fc700001c
ff0700001c
fc0700001c
700700001c
300707fffc
000700001c
000700001c
0007000018
0007000000
0006000000
ENDCHAR
STARTCHAR 237b
ENCODING 9083
SWIDTH 903 0
DWIDTH 40 0
BBX 40 40 0 -6
BITMAP
0000000000
180000000c
1c0000001e
1fffffffff
1c00000000
1c00000000
1c00000000
1c01800000
1c01f00000
1c01e00000
1c01c00000
1c01c00000
1c03800000
1c03800000
1c07000000
1c07000000
1c0e018000
1c0e03c000
1c1fffe000
1c0c01e000
1c0001c000
1c0001c000
1c00038000
1c00038000
1c0007000c
1c0007001e
1dffffffff
1c000e0000
1c000e0000
38001c0000
38001c7000
3800381c00
3000700f00
3000e003c0
6001c001e0
60038000f0
4007000078
c01e00003c
807800001c
01e000000c
ENDCHAR
STARTCHAR 237c
ENCODING 9084
SWIDTH 903 0
DWIDTH 40 0
BBX 40 40 0 -6
BITMAP
0000000000
180000000c
1c0000001e
1fffffffff
1c00000000
1c00000000
1c00030000
1c0003e000
1c0003c000
1c00038000
1c00038000
1c00038000
1c000380c0
1c000381e0
1c1ffffff0
1c00038000
1c00038000
1c00038000
1c00038000
1c00038000
1c00038000
1c00038018
1c0003803c
1cfffffffe
1c00074000
1c00074000
1c00076000
1c000e6000
1c000e3000
38001c3800
38001c1c00
3800380e00
3000700700
3000e00380
6001c001e0
60038000ff
400700007f
c01e00001e
8078000006
03c0000000
ENDCHAR
STARTCHAR 237d
ENCODING 9085
SWIDTH 903 0
DWIDTH 40 0
BBX 40 40 0 -6
BITMAP
0000000000
180000000c
1c0000001e
1fffffffff
1c00000000
1c00000000
1c00000000
1c00000030
1c00000078
1cfffffffc
1c000e0000
1c000e0000
1c000e0000
1c000e0000
1c000e0000
1c000e0000
1c000e0000
1c180e0300
1c1f0e0780
1c1e0fffc0
1c1c0e03c0
1c1c0e0380
1c1c0e0380
1c1c0e0380
1c1c0e0380
1c1c0e0380
1c1c0e0380
1c1c0e0380
1c1c0e01c0
381c0e01c0
381c0e01c0
381c0e00e1
301c0e00e1
301c0e0071
601c0e0c73
603ffffe3b
401800003e
c00000001e
800000001e
000000000c
ENDCHAR
STARTCHAR 237e
ENCODING 9086
SWIDTH 903 0
DWIDTH 40 0
BBX 40 40 0 -6
BITMAP
0000600000
00007c0000
0000780000
0000700000
0000700000
0000e0000c
0000e0001e
ffffffffff
0001c00000
0003800000
0007000000
000e001800
001c000e00
0038000700
0070000380
00e00001c0
01c007ffe0
07fffe00f0
07ffc00078
03f8000038
01c0000018
00c0000000
0000000000
0180180180
01f01f01f0
01e01e01e0
03c03c03c0
0380380380
0700700700
0600600600
0e00e00e00
1c01c01c00
0e00e00e00
0700700700
0380380380
01c01c01c0
01c01c01c0
00e00e00e0
00e00e00e0
0060060060
ENDCHAR
STARTCHAR 2421
ENCODING 9249
SWIDTH 903 0
DWIDTH 40 0
BBX 40 40 0 -6
BITMAP
0003000000
0003e00000
0003c00000
0007800000
0007000000
000e000000
001c003000
0038001c00
0070000e00
00e0000700
01c00fff80
07fffc03c0
07fe0001c0
03c00001c0
01c00000c0
0000000000
0000000000
1818060300
1c3c070780
1ffe07ffc0
1c1e0703c0
1c1c070380
1c1c070380
1c1c070380
1c1c070380
1c1c070380
1c1c070380
1c1c070380
1c1c070380
1c1c770380
1c1cc70380
1c1f870381
181f0e0381
381e0e0383
381c0c0383
300c1c03c6
70001803ff
60003001ff
c0006000fe
8000c00000
ENDCHAR
STARTCHAR 2422
ENCODING 9250
SWIDTH 903 0
DWIDTH 40 0
BBX 40 40 0 -6
BITMAP
0006000000
000781c000
000f006000
000e003800
001c001c00
0038000f00
0070000780
00e00003c0
01c03001e0
03803c00e0
0700780060
0e00780000
3800ec0000
0001c60000
0003830000
0007018000
000e00e000
001c007000
0038003c00
0070001e00
00e0000f80
01c00003e0
03818001ff
0701f0007f
0e01e0001e
3803c00006
e003800000
0007000000
0007000000
000e000000
001c003000
0038001c00
0070000e00
00e0000700
01c00fff80
07fffe03c0
07ff8001c0
03f80001c0
01c00000c0
00c0000000
ENDCHAR
STARTCHAR 2423
ENCODING 9251
SWIDTH 903 0
DWIDTH 40 0
BBX 40 40 0 -6
BITMAP
00c0000000
00f8000000
00f0000000
00e0000000
00e0000000
01c0000060
01c00000f0
03fffffff8
03801c0000
07001c0000
07001c0000
0e001c0000
1c001c0000
18001c0000
30001c0000
60001c0000
c0001c0000
00001c0000
00001c000c
00001c001e
7fffffffff
0000000000
0001800000
0001f00000
0001e00000
0003c00000
0003800000
0007000000
0007000000
000e003000
001c001c00
0038000e00
0070000700
00e0000380
01c00fffc0
07fffe01e0
07ff8000e0
03f80000e0
01c0000060
00c0000000
ENDCHAR
STARTCHAR 2424
ENCODING 9252
SWIDTH 903 0
DWIDTH 40 0
BBX 40 40 0 -6
BITMAP
1800000000
1f00000018
1e0000003c
1c0007fffe
1c0000001e
1c0000001c
1c0000001c
1c0000001c
1c0000001c
1c0300001c
1c0780001c
ffffc0001c
1c03c7fffc
1c0380001c
1c03800018
1c03800000
1c03800000
1c03800000
1c03800018
1c0380003c
1c038ffffe
1c0781003e
1cff81003c
1c3f018038
1c0e008070
1c0c00c070
1c000040e0
1c000060e0
1c000031c0
1c00003b80
1c00801f00
1c00801f00
1c01803f80
1c01807bc0
1c0300f1e0
1e0701e0f8
1fff83c07f
0fff87003f
03ff1c001c
000070000c
ENDCHAR
STARTCHAR 2425
ENCODING 9253
SWIDTH 903 0
DWIDTH 40 0
BBX 40 40 0 -6
BITMAP
0000000000
0c00000060
0e000000f0
0ffffffff8
0e001c0078
0e001c0070
0e001c0070
0e001c0070
0e001c0070
0e001c0070
0e001c0070
0ffffffff0
0e00000070
0e00000060
0e00000000
0e00000180
0e000003c0
0e1fffffe0
0e010003e0
0e01000380
0e01800380
0e00800700
0e00c00700
0e00600e00
0e00601c00
0e00301c00
0e00183800
0e001c7000
0e000ee000
1c0007c000
1c0007c000
18000fe000
38001cf000
3000383c00
3000701f00
6001c00fe0
60038003ff
c00f0000ff
803c00003e
01f000000e
ENDCHAR
STARTCHAR 2426
ENCODING 9254
SWIDTH 903 0
DWIDTH 40 0
BBX 40 40 0 -6
BITMAP
0000000300
0000000780
03ffffffc0
0060000fc0
0030000f00
0018001e00
000c003c00
0007007800
000380f000
0001e3c000
0000ff8000
00007f0000
0000ffc000
0001f3f800
0007c0ff80
001f803ffe
007c000ffe
03f06001f8
1f807c6038
fc00783800
0000701e00
0000700e00
0000700600
0000700018
000070003c
7ffffffffe
0000e00000
0000e60000
0001c7c000
0001c78000
0003870000
0007070001
000e070001
001c070003
0038070003
0070078006
01c007ffff
070003ffff
1c0000fffe
f000000000
ENDCHAR
STARTCHAR 2427
ENCODING 9255
SWIDTH 903 0
DWIDTH 40 0
BBX 40 40 0 -6
BITMAP
0000000300
0000000780
03ffffffc0
0060000fc0
0030000f00
0018001e00
000c003c00
0007007800
000380f000
0001e3c000
0000ff8000
00007f0000
0000ffc000
0001f3f800
0007c0ff80
001f803ffe
007c000ffe
03f0c001f8
1f80f00038
fc01e00000
0003818000
000703c000
000e078000
00380f0000
003ffc0000
0000781800
0001e00e00
0003c00700
000f000380
003c07ffc0
03ffff01e0
03fe1c00e0
01c01c0060
00c01c0000
00001c0000
00001c0000
00001c0000
00001c0000
00001c0000
0000180000
ENDCHAR
STARTCHAR 2428
ENCODING 9256
SWIDTH 903 0
DWIDTH 40 0
BBX 40 40 0 -6
BITMAP
0000300000
00003e0000
00003c0000
0000380000
0000380000
0000380000
0000380000
00003800c0
00003801e0
0ffffffff0
0000380000
0000380000
0000380000
0000380000
0000380000
0000380000
000038000c
000038001e
ffffffffff
0000000000
0000000000
0000000000
0000000000
0180000300
01c0000780
01ffffffc0
01c00003c0
01c0000380
01c0000380
01c0000380
01c0000380
01c0000380
01c0000380
01c0000380
01c0000380
01c0000380
01ffffff80
01c0000380
01c0000300
0180000000
ENDCHAR
STARTCHAR 2429
ENCODING 9257
SWIDTH 903 0
DWIDTH 40 0
BBX 40 40 0 -6
BITMAP
0000000000
00000000c0
00000001e0
3ffffffff0
0001c000f0
0001c000e0
0001c000e0
0001c000e0
00038000e0
00038000e0
00070000e0
00070000e0
000e0001e0
001c03ffc0
0038001f80
0070000700
00e0000600
01c0000000
0700000180
1cc00003c0
00ffffffe0
00e00001e0
00e00001c0
00e00001c0
00e00001c0
00e00001c0
00e00001c0
00e00001c0
00e00001c0
00e00001c0
00e00001c0
00ffffffc0
00e00001c0
00c0000180
0000000000
000000000c
000000001e
ffffffffff
0000000000
0000000000
ENDCHAR
STARTCHAR 242a
ENCODING 9258
SWIDTH 903 0
DWIDTH 40 0
BBX 40 40 0 -6
BITMAP
0000000000
0180000600
01c0000f00
01ffffff80
01c0000780
01c0000700
01c0000700
01c0000700
01c0000700
01c0000700
01c0000700
01c0000700
01c0000700
01c0000700
01c0000700
01ffffff00
01c0000600
0180000000
0000000000
0000000300
00000003c0
0380000780
00e0000700
0070000e00
0038001c00
001c003800
000e007000
000f006000
000700c000
0003018000
0000030000
0000060000
03c0000000
1ff0000000
fc7e000000
f00fc00000
6003ffffff
00007fffff
00001ffffc
0000000000
ENDCHAR
STARTCHAR 242b
ENCODING 9259
SWIDTH 903 0
DWIDTH 40 0
BBX 40 40 0 -6
BITMAP
0180000600
01c0000f00
01ffffff80
01c0000780
01c0000700
01c0000700
01c0000700
01c0000700
01c0000700
01c0000700
01ffffff00
01c0000700
0180000600
0000000000
0000000000
00000000c0
00000001e0
0ffffffff0
00001c0000
00001c0000
00001c0000
00001c0000
00001c0000
00001c000c
00001c001e
ffffffffff
00001c0000
00001c0000
00001c0000
00001c0000
00001c0000
00001c0000
00001c0000
00001c0000
00001c0000
00003c0000
001ffc0000
0001f80000
0000700000
0000600000
ENDCHAR
STARTCHAR 242c
ENCODING 9260
SWIDTH 903 0
DWIDTH 40 0
BBX 40 40 0 -6
BITMAP
0000000600
0180000f00
01ffffff80
01c0000780
01c0000700
01c0000700
01c0000700
01c0000700
01c0000700
01ffffff00
0180000000
0000000000
0000000300
0000000780
07ffffffc0
0003800000
0003800000
0003800000
000700000c
000700001e
ffffffffff
001c000000
001c000000
0038000000
0038000180
00700003c0
00ffffffe0
00600001e0
00000001c0
00000001c0
00000001c0
00000001c0
00000003c0
0000000380
0000000780
0000000f00
00000fff00
000000fe00
0000001c00
0000001800
ENDCHAR
STARTCHAR 242d
ENCODING 9261
SWIDTH 903 0
DWIDTH 40 0
BBX 40 40 0 -6
BITMAP
00000c0000
00000f8000
00000f0000
00000e0000
00000e0000
60600e0000
70f00e0000
7ff80e0000
70780e0000
70700e0300
70700e0780
7073ffffc0
70700e03c0
70700e0380
70700e0380
70700e0380
70700e0380
7071ce0380
70707e0380
70701e0380
70700f0380
70700fc380
70700fe380
70701cf380
70701c7380
70701c3380
70701c0380
7070380380
7ff0380380
7070380380
7060700380
7000700381
6000e00381
0000e00383
0001c00383
00018003c6
00030003ff
00060001ff
000c00007e
0018000000
ENDCHAR
STARTCHAR 242e
ENCODING 9262
SWIDTH 903 0
DWIDTH 40 0
BBX 40 40 0 -6
BITMAP
0000000000
0000001e00
0000007f80
00000fffc0
0000ffc000
003ff00000
1ff8e00000
0000e00000
0000e00000
0000e00000
0000e00000
0001c00000
0001c0000c
0001c0001e
ffffffffff
0003800000
0003800000
0007000000
0007000000
000e000000
000e000000
001c000180
001c0003c0
003fffffe0
007c0001e0
00fc0001c0
01dc0001c0
039c0001c0
071c0001c0
0e1c0001c0
1c1c0001c0
381c0001c0
e01c0001c0
001c0001c0
001c0001c0
001c0001c0
001fffffc0
001c0001c0
001c000180
0018000000
ENDCHAR
STARTCHAR 242f
ENCODING 9263
SWIDTH 903 0
DWIDTH 40 0
BBX 40 40 0 -6
BITMAP
0000000000
3000000030
3800000078
3ffffffffc
380000003c
3800000038
3800000038
3800c00038
3800700038
3800380038
38001c0038
38001c0638
38000c0f38
3bffffffb8
381c000038
381c000038
381c000038
381c000038
381c000038
381c000038
381c000038
381c000038
381c000038
381c000038
381c000038
381c000038
381c000038
381e000038
381ffff838
380ffffc38
3803fffc38
3800000038
3800000038
3800000038
3800000038
3800000038
3ffffffff8
3800000038
3800000030
3000000000
ENDCHAR
STARTCHAR 2430
ENCODING 9264
SWIDTH 903 0
DWIDTH 40 0
BBX 40 40 0 -6
BITMAP
0000000000
3000000030
3800000078
3ffffffffc
380000003c
3800000038
3800000038
3800000038
3800001038
3800003838
387ffffc38
3800000038
3800000038
3800000038
3800000038
3800000038
3800000038
3800000c38
3800001e38
39ffffff38
3800000038
3800000038
3800000038
3800000038
3800000038
3800000038
3800000038
3800001038
3800003838
387ffffc38
3800000038
3800000038
3800000038
3800000038
3800000038
3800000038
3ffffffff8
3800000038
3800000030
3000000000
ENDCHAR
STARTCHAR 2431
ENCODING 9265
SWIDTH 903 0
DWIDTH 40 0
BBX 40 40 0 -6
BITMAP
0000000000
3000000030
3800000078
3ffffffffc
380000003c
3800c00038
3800f80038
3800f00038
3800e00038
3800e00038
3800e01038
3800e03838
38fffffc38
3800e00038
3800e00038
3800e00038
3800e00038
3800e00238
3800e00738
3bffffffb8
3800e00038
3800e00038
3800e00038
3800e00038
3800e00238
3800e00638
3800e00638
3800e00c38
3800f01c38
3800fffe38
38007ffe38
38001ffc38
3800000038
3800000038
3800000038
3800000038
3ffffffff8
3800000038
3800000030
3000000000
ENDCHAR
STARTCHAR 2432
ENCODING 9266
SWIDTH 903 0
DWIDTH 40 0
BBX 40 40 0 -6
BITMAP
0000000000
3000000030
3800000078
3ffffffffc
380000003c
3800000038
3800300038
38003e0038
38003c0038
3800380038
3800380038
3800380038
3800380038
3800380038
3818380038
381f398038
381e38c038
381c386038
381c383038
3838383838
3838381c38
3830381c38
3870380e38
3860380e38
38e0380738
38c0380738
3980380338
3980380038
3b00380038
3a00380038
3800380038
3800380038
3800380038
3800300038
3800000038
3800000038
3ffffffff8
3800000038
3800000030
3000000000
ENDCHAR
STARTCHAR 2433
ENCODING 9267
SWIDTH 903 0
DWIDTH 40 0
BBX 40 40 0 -6
BITMAP
0030003000
003e003e00
003c003c00
0038003800
0038003800
3038003800
1838003800
0c38003800
0e38003800
0738003800
07b8003800
03b8003800
03b8003800
01b8003800
0038003800
0038003810
0038003838
00387ffffc
0038003800
0038003800
0038003800
0038003800
0038003800
0038003800
0038003800
00f8003800
03b8003800
0f38003800
1e38003800
fc38003800
f838003800
7038003800
3038003800
0038003800
0038003800
003800380c
003800381e
0039ffffff
0038000000
0030000000
ENDCHAR
STARTCHAR 2434
ENCODING 9268
SWIDTH 903 0
DWIDTH 40 0
BBX 40 40 0 -6
BITMAP
0000018000
030001f000
03e001e000
03c001c000
038001c000
038001c000
038001c0e0
038001c3f0
038001dff8
038001ff00
038c03f000
fffe1fc000
0380f9c000
038001c000
038001c000
038001c000
038001c000
038001c000
038001c000
038001c00c
038001c01e
0383ffffff
038001c000
038001c000
038001c000
038001c000
038001c000
038001c000
038e01c000
03f801c000
03e001c001
0f8001c001
fe0001c003
fc0001c003
700001c006
300001e00e
000001ffff
000000ffff
0000003ffe
0000000000
ENDCHAR
STARTCHAR 2435
ENCODING 9269
SWIDTH 903 0
DWIDTH 40 0
BBX 40 40 0 -6
BITMAP
0000000000
000000000c
000000001e
ffffffffff
0000000000
0000000000
00000c0000
0000060000
0018030000
001f038000
001e01c000
001c00c000
001c006000
0038007000
0038003800
0070001c00
0070000e00
00e0300f00
00e03e0780
01c03c03c0
03803801e0
03003800f8
060038007f
0c0038083f
1800381c1c
30fffffe0c
6000380000
0000380000
0000380000
0000380000
0000380000
0000380000
0000380000
0000380000
0000380000
0000380030
0000380078
3ffffffffc
0000000000
0000000000
ENDCHAR
STARTCHAR 2436
ENCODING 9270
SWIDTH 903 0
DWIDTH 40 0
BBX 40 40 0 -6
BITMAP
0006000000
0007c00000
0007800000
000f000000
000e001800
001e003c00
001ffffe00
0038003e00
0070007c00
00f800f800
01ce01e000
038383c000
0701ef8000
1c007f0000
7000ffc000
0003e7fc00
000f80ffff
007e001fff
03f03003f8
1f003e0078
f8003c0000
0000380000
0000380200
0000380700
03ffffff80
0000380000
0000380000
0000380000
0000380000
00003800c0
00003801e0
1ffffffff0
0000380000
0000380000
0000380000
0000380000
0000380000
0000380000
0000380000
0000300000
ENDCHAR
STARTCHAR 2437
ENCODING 9271
SWIDTH 903 0
DWIDTH 40 0
BBX 40 40 0 -6
BITMAP
0006000000
0007c00000
0007800000
000f000000
000e001800
001e003c00
001ffffe00
0038003e00
0070007c00
00f800f800
01ce01e000
038383c000
0701ef8000
1c007f0000
7000ffc000
0003e7fc00
000f80ffff
007e001fff
03f00003f8
1f00000078
f800003800
00fffffc00
0000007c00
000000f000
000001c000
0000060000
00001c0000
00001c0030
00001c0078
7ffffffffc
00001c0000
00001c0000
00001c0000
00001c0000
00001c0000
00003c0000
000ffc0000
0001f80000
0000700000
0000600000
ENDCHAR
STARTCHAR 2438
ENCODING 9272
SWIDTH 903 0
DWIDTH 40 0
BBX 40 40 0 -6
BITMAP
0000300000
00003e0000
00003c0000
0000380000
00003800c0
00003801e0
1ffffffff0
0000380000
0000380000
0000380000
0000380000
000038000c
000038001e
ffffffffff
0003000000
0003e00000
0003c00000
0003800000
0003800600
0007000f00
0007ffff80
1c0e000f80
071c001e00
01f8001c00
00f8003800
00f8007000
01ce00e000
038701c000
0e01c38000
3800f70000
00003e0000
00003f0000
000077c000
0001c1f000
0007007e00
001c001fe0
00700007ff
03c00001ff
1e0000007e
f00000000e
ENDCHAR
STARTCHAR 2439
ENCODING 9273
SWIDTH 903 0
DWIDTH 40 0
BBX 40 40 0 -6
BITMAP
000c000000
000f800000
000f000000
000e000c00
000e001e00
3fffffff00
000e000f00
000e000e00
001c000e00
001d800e00
0038e00e01
0070780e01
00e03c0e03
01c01e0e03
03800e0f06
0700060fff
0e030007ff
3803e003fe
e003c00000
0003800600
0007000f00
0007ffff80
1c0e000f80
071c001e00
01f8001c00
0070003800
00f8007000
01ce00e000
038381c000
0e01e38000
38007f0000
00003f0000
00007fc000
0001e3f000
000780fe00
001e003fc0
0078000fff
01c00003ff
0f0000007e
f80000000e
ENDCHAR
STARTCHAR 243a
ENCODING 9274
SWIDTH 903 0
DWIDTH 40 0
BBX 40 40 0 -6
BITMAP
0000000000
00000000c0
00000001e0
0ffffffff0
00007000f0
00007000e0
00007000e0
00007000e0
00007000e0
00007000e0
00007000e0
00007000e0
00007000e0
00007000e0
00007000e0
00007000e0
0fffffffe0
00000000e0
00000000c0
0000000000
0000000000
0000000000
00000000c0
00000001e0
0ffffffff0
00007000f0
00007000e0
00007000e0
00007000e0
00007000e0
00007000e0
00007000e0
00007000e0
00007000e0
00007000e0
00007000e0
00007000e0
0fffffffe0
00000000e0
00000000c0
ENDCHAR
STARTCHAR 243b
ENCODING 9275
SWIDTH 903 0
DWIDTH 40 0
BBX 40 40 0 -6
BITMAP
0000000000
0000000000
0060000000
007c000000
0078000000
0070060000
00e00f0000
00ffff8000
01c00f8000
01c01e0000
03801c0000
0700380000
0ec0700000
1c70e00000
3839c00000
e01b818000
000701f000
000e01e000
001c03c000
0038038018
007007003c
01c007fffe
07000e003e
1c001c003c
7000380078
0000700070
0000ec00f0
0001c701e0
000701c3c0
001c00e780
0070006f00
0000003e00
0000007c00
000000f000
000003c000
00000f0000
00003c0000
0000f00000
0007800000
007c000000
ENDCHAR
STARTCHAR 243c
ENCODING 9276
SWIDTH 903 0
DWIDTH 40 0
BBX 40 40 0 -6
BITMAP
0000600000
0000780000
0000700000
0000e00000
0000e00018
0001c0003c
7ffffffffe
0003806000
0007003000
000e001800
001c000c00
0038000700
0070000380
00e00001e0
01c00000f8
0380000e7f
07ffffff3f
0e00000e1e
3800000e06
e000000e00
0180000e00
01fffffe00
01c0000c00
01c0000000
0380000180
03800003c0
07ffffffe0
03000001e0
00000001c0
00000001c0
00000001c0
00000001c0
00000001c0
00000003c0
0000000380
0000000780
00001fff00
000000fe00
0000003c00
0000003800
ENDCHAR
STARTCHAR 243d
ENCODING 9277
SWIDTH 903 0
DWIDTH 40 0
BBX 40 40 0 -6
BITMAP
0000600000
0000780000
0000700000
0000e00000
0000e00018
0001c0003c
7ffffffffe
0003806000
0007003000
000e001800
001c000c00
0038000700
0070000380
00e03001e0
01c03e00f8
03803c007f
070038003f
0e0038001e
3800380106
e600380380
07ffffffc0
0700380000
0700380000
0700380000
0700380000
0700380000
0700380000
0700380000
0700380030
0700380078
0ffffffffc
0600380000
0000380000
0000380000
0000380000
0000380000
0000380000
0000380000
0000380000
0000300000
ENDCHAR
STARTCHAR 243e
ENCODING 9278
SWIDTH 903 0
DWIDTH 40 0
BBX 40 40 0 -6
BITMAP
0000600000
0000780000
0000700000
0000e00000
0000e00018
0001c0003c
7ffffffffe
0003806000
0007003000
000e001800
001c000c00
0038000700
0070000380
00e00001e0
01c03000f8
03803e007f
07003c003f
0e0038001e
3b00380306
e3e03803e0
03c03803c0
0380380380
0380380380
0380380380
0380380380
0380380380
0380380380
07ffffff80
0300380380
0000700300
0000700000
0000e00000
0001c00000
0003800000
0007000000
000e000000
001c000000
0078000000
01e0000000
0f00000000
ENDCHAR
STARTCHAR 243f
ENCODING 9279
SWIDTH 903 0
DWIDTH 40 0
BBX 40 40 0 -6
BITMAP
0000300000
00003e0000
00003c0000
0000380000
0000380018
000070003c
7ffffffffe
0000e60000
0001c30000
0003818000
000700e000
000e007800
001c003e00
0038300fc0
00703c07ff
01c07801ff
038074007c
0e00e6001c
3801c38000
e00381c000
000700f000
000e303800
001c3e1e00
00783c07c0
00e03803ff
03803800ff
0e0038003e
380038000e
e000380000
0000380000
0000380000
0000380000
0000380000
0000380000
0000380000
0000380000
0000380000
0000380000
0000380000
0000300000
ENDCHAR
STARTCHAR 2440
ENCODING 9280
SWIDTH 903 0
DWIDTH 40 0
BBX 40 40 0 -6
BITMAP
0001800000
0001e00000
0003c00000
0003800000
0007000000
0006000000
180c000060
1c180000f0
1ffffffff8
1c00000078
1c00000070
1c00300070
1c003e0070
1c003c0070
1c00380070
1c00380070
1c00380870
1c00381c70
1cfffffe70
1c00740070
1c00740070
1c00760070
1c00e20070
1c00e30070
1c01c38070
1c01c18070
1c0381c070
1c0380e070
1c07007870
1c0e003f70
1c1c001f70
1c38000e70
1c70000670
1dc0000070
1c00000070
1c00000070
1c00000070
1c00000070
1c00000070
1800000060
ENDCHAR
STARTCHAR 2441
ENCODING 9281
SWIDTH 903 0
DWIDTH 40 0
BBX 40 40 0 -6
BITMAP
0000000000
0c00000018
0f8000003c
0f007ffffe
0e0000e000
0e0000e000
0e0000e000
0e1800e000
0e1c01c000
0e1c01c000
0e3f01c004
fffc01c00e
fe1cffffff
6e1c038000
0e1c038000
0e1c038000
0e1c070000
1c1c070000
1c1c070018
1c1c07003c
1c1c0ffffe
383806001e
383800001c
383800001c
707000001c
707000001c
7ce000001c
0fe000001c
03c000001c
01e000001c
03f800003c
073c000038
061e000078
0c0f000070
18070000f0
30030001e0
600003ffc0
c000001f80
0000000700
0000000600
ENDCHAR
STARTCHAR 2442
ENCODING 9282
SWIDTH 903 0
DWIDTH 40 0
BBX 40 40 0 -6
BITMAP
0000000000
0c00300030
0f80380078
0f003ffffc
0e0038003c
0e00380038
0e00380038
0e18380038
0e1c380038
0e1c380038
0e3f380038
fffc380038
fe1c380038
6e1c380038
0e1c380038
0e1c380038
0e1c380038
1c1c3ffff8
1c1c380038
1c1c380038
1c1c380030
3838380000
3838380000
3838380000
7070380000
7070380000
7ce0380000
0fe0380000
03c0380000
01e0380000
03f8380001
073c380001
061e380003
0c0f380003
1807380006
30033c000e
60003fffff
c0001fffff
000007fffe
0000000000
ENDCHAR
STARTCHAR 2443
ENCODING 9283
SWIDTH 903 0
DWIDTH 40 0
BBX 40 40 0 -6
BITMAP
0000060000
0c0007c000
0f80078000
0f00070000
0e00070000
0e00070000
0e00070000
0e30070000
0e38070000
0e38070180
0efe0703c0
fff9ffffe0
ff380701e0
6e380701c0
0e380701c0
0e380701c0
0e380701c0
1c380701c0
1c380701c0
1c380781c0
1c3807c1c0
38700761c0
38700771c0
38700e71c0
70700e39c0
70e00e39c0
7ce00e39c0
0fc01c19c0
03c01c01c0
03e01c01c0
07f03801c0
07783801c1
0e3c7001c1
0c1c7001c3
180ce001c3
3001c001e6
60018001ff
c0030000ff
000600003e
000c000000
ENDCHAR
STARTCHAR 2444
ENCODING 9284
SWIDTH 903 0
DWIDTH 40 0
BBX 40 40 0 -6
BITMAP
0300000000
03e0000030
03c0000078
03803ffffc
038000007c
03800000f0
03800001c0
0380000380
0380000700
0398000c00
fffc003800
0380003800
0380003800
0380003800
0380003800
0380003800
0380003800
038000380c
039c00381e
03f1ffffff
03c0003800
0f80003800
ff80003800
ff80003800
7380003800
3380003800
0380003800
0380003800
0380003800
0380003800
0380003800
0380003800
0380003800
0380003800
0380003800
0780007800
ff801ff800
0f0003f000
0e0000e000
0c0000c000
ENDCHAR
STARTCHAR 2445
ENCODING 9285
SWIDTH 903 0
DWIDTH 40 0
BBX 40 40 0 -6
BITMAP
0000030000
000603e000
000f03c000
7fff838000
000f838000
000e038000
001c038000
0018038000
0030070300
01e00703e0
01c00703c0
01c0070384
01c007038e
01c3ffffff
01c00e0380
01c00e0380
01c00e0380
01cf1c0380
01fc1c0380
07f01c0380
ffc0380700
fdc0380700
71c0380700
31c0700700
01c0700e00
01c0e00e00
01c0f00e00
01c1fe1c00
01c0c7fc00
01c000f800
01c0007c00
01c000fe00
01c001c780
01c00381c0
01c00700f0
03c01c0078
ffc038003c
1f80e0001e
070380000e
061e000006
ENDCHAR
STARTCHAR 2446
ENCODING 9286
SWIDTH 903 0
DWIDTH 40 0
BBX 40 40 0 -6
BITMAP
0000c00000
0000700000
0000380000
08001c0000
08001c000c
18000c001e
1fffffffff
380000001f
700000001c
f000000018
e000000030
c000000020
0000600000
0000380000
00001c0000
00000e0000
00000e000c
000006001e
ffffffffff
00e0000000
00e0000000
00e0000000
00e0000000
00e0000000
00e0000000
00e0000000
00e0000000
00e0000000
00e0000000
00e0000000
00e0000000
00e0000000
00e0000000
00e0000000
00e0000000
00f0000000
00fffffff0
007ffffff8
001ffffff8
0000000000
ENDCHAR
STARTCHAR 2447
ENCODING 9287
SWIDTH 903 0
DWIDTH 40 0
BBX 40 40 0 -6
BITMAP
0000c00000
0000700000
0000380000
08001c0000
08001c000c
18000c001e
1fffffffff
380000001f
700000001c
f000000018
e000000330
c0000007a0
07ffffffc0
0001c00000
0001c00000
0001c00000
0003800018
000380003c
7ffffffffe
0007000000
0007000000
0007000000
000e000300
000e000780
001fffffc0
000c0003c0
0000000380
0000000380
0000000380
0000000380
0000000380
0000000380
0000000380
0000000780
0000000700
0000000f00
00007ffe00
000001fc00
0000003800
0000003000
ENDCHAR
STARTCHAR 2448
ENCODING 9288
SWIDTH 903 0
DWIDTH 40 0
BBX 40 40 0 -6
BITMAP
0000c00000
0000700000
0000380000
08001c0000
08001c000c
18000c001e
1fffffffff
380000001f
700000001c
f000000018
e000000330
c0000007a0
07ffffffc0
0000000000
0000000000
0000000000
0000000018
000000003c
7ffffffffe
0003800000
0003800000
0007000000
0007000300
000e000780
001fffffc0
000c0003c0
0000000380
0000000380
0000000380
0000000380
0000000380
0000000380
0000000380
0000000780
0000000700
0000000f00
00007ffe00
000001fc00
0000003800
0000003000
ENDCHAR
STARTCHAR 2449
ENCODING 9289
SWIDTH 903 0
DWIDTH 40 0
BBX 40 40 0 -6
BITMAP
0000c00000
0000700000
0000380000
08001c0000
08001c000c
18000c001e
1fffffffff
380000001f
700000001c
f000300018
e0003e0030
c0603c1820
007c381f00
0078381e00
0070381c00
0070381c00
0070381c00
0070381c00
0070381c00
0070381c00
0070381c00
0070381c00
0070381c00
0070381c00
0070381c00
0070381c00
0070381c00
00e0381c00
00e0381c00
01c0381c00
01c0381c00
0380381e00
0700381ffe
0e00380fff
1c003803ff
3000380000
6000380000
c000380000
0000380000
0000300000
ENDCHAR
STARTCHAR 244a
ENCODING 9290
SWIDTH 903 0
DWIDTH 40 0
BBX 40 40 0 -6
BITMAP
0000c00000
0000700000
0000380000
08001c0000
08001c000c
18000c001e
1fffffffff
380000001f
700000001c
f000000018
e000000030
c01800c020
001c01e000
001ffff000
001c00f000
001c00e000
001c00e000
001c00e000
001c00e000
001c00e000
001c00e030
001c00e078
7ffffffffc
001c00e000
001c00e000
001c00e000
001c00e000
001c00e000
003800e001
003800e001
003800e001
007000e003
007000e003
00e000e006
01c000e006
038000f00e
070000ffff
0e00007fff
3800001ffe
e000000000
ENDCHAR
STARTCHAR 244b
ENCODING 9291
SWIDTH 903 0
DWIDTH 40 0
BBX 40 40 0 -6
BITMAP
0000300000
00003e0000
00003c0000
0000380000
0060380000
007c387000
0078381c00
00f0380700
00e03803c0
01c03801e0
03803800f0
0700380078
0e00380038
1c00380018
7000380000
0000380000
0000380000
0000380000
00003000c0
00000001e0
1ffffffff0
00000000f0
00000000e0
00000000e0
00000000e0
00000000e0
00000000e0
00000000e0
03ffffffe0
00000000e0
00000000e0
00000000e0
00000000e0
00000000e0
00000000e0
00000000e0
00000000e0
1fffffffe0
00000000e0
00000000c0
ENDCHAR
STARTCHAR 244c
ENCODING 9292
SWIDTH 903 0
DWIDTH 40 0
BBX 40 40 0 -6
BITMAP
0000300000
00003e0000
00003c0000
0000380000
0060380000
007c387000
0078381c00
00f0380700
00e03803c0
01c03801e0
03803800f0
0700380078
0e00380038
1c00380018
7000380000
0000380000
0000380000
0000380000
0c003000c0
0e000001e0
0ffffffff0
0e000000f0
0e000000e0
0e000000e0
0e000000e0
0e000000e0
0e000030e0
0e000078e0
0e7ffffce0
0e000000e0
0e000000e0
0e000000e0
0e000000e0
0e000000e0
0e000000e0
0e000001e0
0e0001ffe0
0e00000fc0
0e00000380
0c00000300
ENDCHAR
STARTCHAR 244d
ENCODING 9293
SWIDTH 903 0
DWIDTH 40 0
BBX 40 40 0 -6
BITMAP
0000000000
0c00000030
0e00000078
0ffffffffc
0e0000003c
0e00000038
0e00000038
0e00000038
0e00000038
0e00000038
0e00000038
0e00000038
0e00000038
0ffffffff8
0e00000038
0e00000030
0e00000000
0e00000000
0e00000060
0e000000f0
0e1ffffff8
0e00000078
0e00000070
0e00000070
0e00000070
0e00000070
0e00000070
0e00000070
1c00000070
1c0ffffff0
1c00000070
1c00000070
3800000070
3800000070
3000000070
7000000070
6000000070
c000000076
80ffffffff
0000000000
ENDCHAR
STARTCHAR 244e
ENCODING 9294
SWIDTH 903 0
DWIDTH 40 0
BBX 40 40 0 -6
BITMAP
0000000000
0c00000030
0e00000078
0ffffffffc
0e0000003c
0e00000038
0e00000038
0e00000038
0e00000038
0e00000038
0ffffffff8
0e00000030
0e00000000
0e00000000
0e00000060
0e000000f0
0e0ffffff8
0e00000078
0e00000070
0e00000070
0e00000070
0e06000070
0e07fffff0
0e07000060
0e07000000
0e0e000018
0e0e00003c
0e1ffffffe
1c0c00001e
1c0000001c
1c0000001c
1c0000001c
380000001c
380000003c
3000000038
7000000078
6000007ff0
c0000007e0
80000001c0
0000000180
ENDCHAR
STARTCHAR 244f
ENCODING 9295
SWIDTH 903 0
DWIDTH 40 0
BBX 40 40 0 -6
BITMAP
0000000000
1800000030
1c00000078
1ffffffffc
1c0000003c
1c00000038
1c00000038
1c00000038
1c00000038
1c00000038
1c00000038
1ffffffff8
1c00000038
1c00018030
1c0001f000
1c0001e000
1c0001c000
1c0001c000
1c1801c018
1c1c01c03c
1c1ffffffe
1c1c01c01e
1c1c01c01c
1c1c01c01c
1c1c01c01c
1c1c01c01c
1c1c01c01c
1c1c01c01c
1c1c01c01c
381c01c01c
381c01c03c
381c01dffc
301c01c1f8
701c01c070
601c01c060
601801c000
c00001c000
c00001c000
800001c000
0000018000
ENDCHAR
STARTCHAR 2450
ENCODING 9296
SWIDTH 903 0
DWIDTH 40 0
BBX 40 40 0 -6
BITMAP
0000000000
1800000030
1c00000078
1ffffffffc
1c0000003c
1c00000038
1c00000038
1c00000038
1c00000038
1c00000038
1c00000038
1c00000038
1ffffffff8
1c00000038
1c00000030
1c00000000
1c0c0c0c00
1c0f8f8f80
1c0f0f0f00
1c0e0e0e00
1c0e0e0e00
1c0e0e0e00
1c0e0e0e00
1c0e0e0e00
1c0e0e0e00
1c0e0e0e00
1c0e0e0e00
1c0e0e0e00
1c0e0e0e00
380e0e0e00
380e0e0e01
381c0e0e01
301c0e0e03
70380e0e03
60380e0e06
60700e0f0e
c0600e0fff
c0c00e07ff
81800c01fc
0300000000
ENDCHAR
STARTCHAR 2451
ENCODING 9297
SWIDTH 903 0
DWIDTH 40 0
BBX 40 40 0 -6
BITMAP
0c000000c0
0f800000f8
0f000000f0
0e000000e0
0e000000e0
0fffffffe0
0e000000e0
0e000000e0
0e000000e0
0e000000e0
0c000000c0
0000000000
0000000000
1800000060
1c000000f0
1ffffffff8
1c00000078
1c00000070
1c00000070
1c00000070
1c00000070
1c00000070
1ffffffff0
1c00000070
1c00000060
1c00000000
1c00000000
1c00000000
1c00000000
1c00000000
3800000000
3800000000
3800000000
3000000000
7000000000
6000000000
6000000000
c000000000
c000000000
8000000000
ENDCHAR
STARTCHAR 2452
ENCODING 9298
SWIDTH 903 0
DWIDTH 40 0
BBX 40 40 0 -6
BITMAP
0000300000
00003e0000
0c003c00c0
0f803800f8
0f003800f0
0e003800e0
0e003800e0
0e003800e0
1fffffffe0
0c007000e0
0000e000c0
0001c00000
0003800000
080e000000
083800000c
180000001e
1fffffffff
380000001f
700000001c
f000003018
e000007830
c1fffffc20
000000fc00
000001e000
0000078000
00001e0000
0000780000
0001e00000
0007800000
001e000000
0038000004
0070000004
00e000000c
01c000000c
01c0000018
01e0000038
01fffffffc
00fffffffc
003ffffff8
0000000000
ENDCHAR
STARTCHAR 2453
ENCODING 9299
SWIDTH 903 0
DWIDTH 40 0
BBX 40 40 0 -6
BITMAP
0000000000
00c0003000
00f8003e00
00f0003c00
00e0003800
00e0003800
00e0003800
60e18c3860
78e1ce3878
70e18c3870
70e18c3870
70e18c3870
70e18c3870
70e18c3870
70e18c3870
70e18c3870
70e18c3870
70e18c3870
70e18c3870
70e18c3870
70e18c3870
70e18c3870
ffff9ffff0
60e18c3870
00e1803860
00e0003800
00e0003800
00e0003800
00e0003800
01c0003801
01c0003801
01c0003801
0380003803
0380003803
0700003806
0600003c0e
0c00003fff
1800001fff
30000007fe
6000000000
ENDCHAR
STARTCHAR 2454
ENCODING 9300
SWIDTH 903 0
DWIDTH 40 0
BBX 40 40 0 -6
BITMAP
0000300000
00003e0000
0c003c00c0
0f803800f8
0f003800f0
0e003800e0
0e003800e0
0e003800e0
1fffffffe0
0c007000e0
0000e000c0
0001c00000
0003800000
000e300000
00383c0000
01e0780000
0000e00000
0001c06000
0003807800
000700f000
000e01e000
003803c000
0038078000
000e0f0000
00031e0000
0001bc0000
0000f80000
0000f03000
0001e01c00
0003c00e00
0007000700
000e000380
001c0001c0
007001ffe0
01c07f80f0
0fffe00070
0ffc000070
0780000030
0380000000
0000000000
ENDCHAR
STARTCHAR 2455
ENCODING 9301
SWIDTH 903 0
DWIDTH 40 0
BBX 40 40 0 -6
BITMAP
0000000000
030000c000
03e0007000
03c0003800
0380003c00
0380001c00
0380001c00
0380000c04
038000000e
638c7fffff
738f0e0000
638e0e0000
638e0e0000
638e0e0000
638e0e0000
638e0e0000
638e0e0000
638e0e0000
638e0e0000
638e0e0000
638e0e0000
638e0e0000
638e0e0000
638e0e0000
638e0e0000
638e0e0000
638e0e0000
638e0e0000
638e0e0000
638e0e0000
fffe0e0000
600e0e0000
000c0e0000
00000e0000
00000f0000
00000ffffc
000007fffe
000003fffe
0000000000
0000000000
ENDCHAR
STARTCHAR 2456
ENCODING 9302
SWIDTH 903 0
DWIDTH 40 0
BBX 40 40 0 -6
BITMAP
0000003000
0300003e00
03e0003c00
03c0003800
0380003800
0380003804
038000380e
0380003fff
0380003800
638c003800
738f003800
638e003800
638e003800
638e003818
638e00383c
638e3ffffe
638e00003e
638e000038
638e000070
638e0000e0
638e0001c0
638e000380
638e000700
638e000e00
638e003c00
638e007000
638e00e000
638e01c000
638e038000
638e070000
fffe0e0001
600e1c0001
000c380003
0000700003
0000700006
000078000e
00007fffff
00003fffff
00000ffffe
0000000000
ENDCHAR
STARTCHAR 2457
ENCODING 9303
SWIDTH 903 0
DWIDTH 40 0
BBX 40 40 0 -6
BITMAP
0000060000
030007c000
03e0078000
03c0070000
0380070000
0380070000
0380070000
0380070000
0380070000
638c070180
738e0703c0
638cffffe0
638c0701e0
638c0701c0
638c0701c0
638c0701c0
638c0701c0
638ce701c0
638c3f01c0
638c0f01c0
638c0781c0
638c07e1c0
638c07f1c0
638c0e79c0
638c0e39c0
638c0e19c0
638c0e01c0
638c1c01c0
638c1c01c0
638c1c01c0
fffc3801c0
600c3801c1
000c7001c1
00007001c3
0000e001c3
0000c001e6
00018001ff
00030000ff
000600007e
000c000000
ENDCHAR
STARTCHAR 2458
ENCODING 9304
SWIDTH 903 0
DWIDTH 40 0
BBX 40 40 0 -6
BITMAP
0000300000
00003e0000
0c003c00c0
0f803800f8
0f003800f0
0e003800e0
0e003800e0
0e003800e0
0e003800e0
0e003800e0
1fffffffe0
0c000000e0
0000c000c0
0000f80000
0000f00000
0001e00000
0001c00000
0003806000
0007007800
000e00f000
001c01e000
003803c000
003c078000
000f0f0000
0003de0000
0000fc0000
0000780000
0000f00000
0001e01800
0003c00e00
0007000700
000e000380
003c0001c0
007000ffe0
01c07fc0f0
0ffff80070
0fff000070
07c0000030
03c0000000
0000000000
ENDCHAR
STARTCHAR 2459
ENCODING 9305
SWIDTH 903 0
DWIDTH 40 0
BBX 40 40 0 -6
BITMAP
0000000000
0018000000
001f000000
001e000000
001c000000
001c000c00
0038001e00
003fffff00
0078001f00
0070003c00
00e0003800
00e0007000
01c0e0e000
03803dc000
03000f8000
060003e000
0c0000f800
1800003c00
3000001e00
0000300600
00003e0000
00003c0000
0000380000
0000380000
0c003800c0
0f803800f8
0f003800f0
0e003800e0
0e003800e0
0e003800e0
0e003800e0
0e003800e0
0e003800e0
0e003800e0
0e003800e0
0e003800e0
1fffffffe0
0c000000e0
00000000c0
0000000000
ENDCHAR
STARTCHAR 245a
ENCODING 9306
SWIDTH 903 0
DWIDTH 40 0
BBX 40 40 0 -6
BITMAP
0000000c00
0c00000f80
0f80000f00
0f00000e00
0e00000e00
0e00000e00
0e00000e00
0e00000e00
0e00000e00
0e0c000e00
0e1e000e00
ffff060e18
0e0f07ce1f
0e0e078e1e
0e0e070e1c
0e0e070e1c
0e0e070e1c
0e0e070e1c
ce0e070e1c
7e0e070e1c
3e0e070e1c
1e0e070e1c
0f0e070e1c
0f8e070e1c
0fce070e1c
0eee070e1c
0eee070e1c
0e6e070e1c
0e0e370e1c
0c0e670e1c
1c0ec70e1c
1c0f870e1c
180f070e1c
180e070e1c
3006070e1c
3000070e1c
60000ffffc
600006001c
c000000018
8000000000
ENDCHAR
STARTCHAR 245b
ENCODING 9307
SWIDTH 903 0
DWIDTH 40 0
BBX 40 40 0 -6
BITMAP
0000600000
0000380000
00001c0000
00001c000c
00000c001e
ffffffffff
0380000000
0380000000
0380000000
0380000000
0380000000
0380000000
0380000000
0380000000
03c0000000
03ffffffe0
01fffffff0
00fffffff0
0000000000
0000000000
0000000000
0180180180
01f01f01f0
01e01e01e0
01c01c01c0
01c01c01c0
01c01c01c0
01c01c01c0
01c01c01c0
01c01c01c0
01c01c01c0
01c01c01c0
03801c01c0
03801c01c0
07001c01c0
07001c01c0
0e001c01c0
1c001c01c0
38001801c0
e000000180
ENDCHAR
STARTCHAR 245c
ENCODING 9308
SWIDTH 903 0
DWIDTH 40 0
BBX 40 40 0 -6
BITMAP
0000000000
0300060000
03e007c000
03c0078000
0380070000
0380070000
03800e0000
03800f8000
03801ce000
0380383800
0380701e00
0380e00f00
0381c00780
03838003c0
038e0001c0
03b80000c0
0380000010
0380000038
07fffffffc
0300000000
0000000000
01800c0060
01e00f0078
01c00e0070
03801c00e0
03001800c0
0600300180
0c00600300
1800c00600
3001800c00
1800c00600
0c00600300
0600300180
03001800c0
01800c0060
00c0060030
00e0070038
007003801c
007003801c
003001800c
ENDCHAR
STARTCHAR 245d
ENCODING 9309
SWIDTH 903 0
DWIDTH 40 0
BBX 40 40 0 -6
BITMAP
00000007e0
000007fff0
0c07fffff8
0fffe00000
0e00000000
0e00000000
0e00000000
0e00000000
0e00000060
0e180000f0
0e1ffffff8
0e1c038078
0e1c038070
0e1c038070
0e1c038070
0e1c038070
0e1c038070
0e1c038070
0e1c038070
0e1c038070
0e1c038070
0e1c038070
0e1ffffff0
0e1c000060
0e1c000000
0e1c000000
0e1c000000
0e1c000000
0e1c000000
1c1c000000
1c1c000004
1c1c000004
181c00000c
381c00000c
301c000018
301e000038
601ffffffc
c00ffffffc
8007fffff8
0000000000
ENDCHAR
STARTCHAR 245e
ENCODING 9310
SWIDTH 903 0
DWIDTH 40 0
BBX 40 40 0 -6
BITMAP
0001800000
0001f00000
0001e00000
0001c00000
0001c00000
000380000c
000380001e
ffffffffff
0007006000
000f00f800
000e01f000
001c03c000
001c078000
00381f8000
007079f000
00e1e1e000
01c781c000
039c01c000
070001c030
0e0c01c078
380ffffffc
e00e01c03c
000e01c038
000e01c038
000e01c038
000e01c038
000e01c038
000e01c038
000e01c038
000e01c038
000e01c038
000e01c078
000e01cff8
000e01c3f0
000e01c0e0
000c01c0c0
000001c000
000001c000
000001c000
0000018000
ENDCHAR
STARTCHAR 245f
ENCODING 9311
SWIDTH 903 0
DWIDTH 40 0
BBX 40 40 0 -6
BITMAP
0300000000
03e000c000
03c0007000
0380003800
0380003c00
0380001c00
038c001c00
639e000c04
7fff00000e
638f3fffff
638e070000
638e070000
638e070000
638e070000
638e070000
638e070000
638e070000
638e070000
638e070000
638e070000
638e070000
638e070000
638e070000
638e070000
638e070000
638e070000
638e070000
638e070000
63fe070000
639c070000
6398070000
0380070000
0380070000
0380070000
0380078000
038007fffc
038003fffe
038000fffe
0380000000
0300000000
ENDCHAR
STARTCHAR 2460
ENCODING 9312
SWIDTH 903 0
DWIDTH 40 0
BBX 40 40 0 -6
BITMAP
0300000000
03e0000000
03c0000000
0380000010
0380000038
03801ffffc
038c000000
639e000000
7fff000000
638f000000
638e000000
638e000000
638e000000
638e000000
638e000000
638e000000
638e000000
638e000000
638e000020
638e000070
638e07fff8
638e000000
638e000000
638e000000
638e000000
638e000000
638e000000
638e000000
63fe000000
639c000000
6398000000
0380000000
0380000000
0380000000
038000000c
038000001e
03807fffff
0380000000
0380000000
0300000000
ENDCHAR
STARTCHAR 2461
ENCODING 9313
SWIDTH 903 0
DWIDTH 40 0
BBX 40 40 0 -6
BITMAP
0006000000
0007800000
000f000000
000e000c00
001c001e00
003fffff00
0038001f00
0074003c00
00e6007800
01c300f000
038181e000
0e00e78000
38007f0000
0000ff8000
0001f7f000
0007c1fe00
001f007fff
007c000fff
01f03001fc
0f803e007c
fc003c0000
0000380000
0000380300
0300380780
03ffffffc0
03803803c0
0380380380
0380380380
0380380380
0380380380
0380380380
0380380380
0380380780
038039ff80
0380383f00
0380380e00
0300380c00
0000380000
0000380000
0000300000
ENDCHAR
STARTCHAR 2462
ENCODING 9314
SWIDTH 903 0
DWIDTH 40 0
BBX 40 40 0 -6
BITMAP
0000300000
00001c0000
00000e0000
00000e000c
180006001e
1fffffffff
1c00000000
1c00000000
1c00180000
1c000e0000
1c00070000
1c00038000
1c0003c000
1c0001c018
1c0000c03c
1cfffffffe
1c07000000
1c07000000
1c07000000
1c07000000
1c07000000
1c07000000
1c07000000
1c07000000
1c07000000
1c07000000
1c07000000
1c07000000
3807000000
3807000000
3807000000
3807000000
3007000000
3007000000
7007800000
6007fffff0
6003fffff8
c000fffff8
8000000000
0000000000
ENDCHAR
STARTCHAR 2463
ENCODING 9315
SWIDTH 903 0
DWIDTH 40 0
BBX 40 40 0 -6
BITMAP
0000300000
00001c0000
00000e0000
00000e000c
180006001e
1fffffffff
1c00000000
1c00000000
1c00000000
1c00000000
1c000000c0
1c000001e0
1c3ffffff0
1c00070000
1c00070000
1c00070000
1c00070000
1c00070000
1c00070000
1c00070000
1c00070018
1c0007003c
1dfffffffe
1c00070000
1c00070000
1c00070000
1c00070000
1c00070000
3800070000
3800070000
3800070000
3800070000
3000070000
3000070000
7000070000
6000070000
6000070000
c000070000
8000070000
0000060000
ENDCHAR
STARTCHAR 2464
ENCODING 9316
SWIDTH 903 0
DWIDTH 40 0
BBX 40 40 0 -6
BITMAP
0000300000
00001c0000
00000e0000
00000e000c
180006001e
1fffffffff
1c00000000
1c00000000
1c000c0000
1c000f8c00
1c000f0700
1c000e0380
1c000e01c0
1c000e01c0
1c000e00c0
1c000e0000
1c000e0018
1c000e003c
1cfffffffe
1c000e0000
1c000e0000
1c000e0000
1c00070000
1c00070000
1c00070000
1c00038000
1c00038000
1c0001c000
380001c000
380000e002
3800007002
3800003802
3000001c06
3000000e06
700000078c
60000003dc
60000001fc
c0000000fe
800000003e
000000000c
ENDCHAR
STARTCHAR 2465
ENCODING 9317
SWIDTH 903 0
DWIDTH 40 0
BBX 40 40 0 -6
BITMAP
0000300000
00001c0000
00000e0000
18000e000c
1c0006001e
1fffffffff
1c00000000
1c00000000
1c000c0000
1c000f8000
1c000f0000
1c000e0000
1c000e01c0
1c000e0fe0
1c000e7ff0
1c000fe000
1c01fe0000
1c7f0e0000
1c000e0000
1c000e0000
1c000e0000
1c000e0000
1c000e0018
1c000e003c
1cfffffffe
1c000e0000
1c000e0000
1c000e0000
38000e0000
38000e0000
38000e0002
38000e0002
30000e0006
30000e0006
70000e000c
60000f001c
60000ffffe
c00007fffe
800001fffc
0000000000
ENDCHAR
STARTCHAR 2466
ENCODING 9318
SWIDTH 903 0
DWIDTH 40 0
BBX 40 40 0 -6
BITMAP
0000300000
00001c0000
00000e0000
00000e000c
180006001e
1fffffffff
1c00000000
1c00000000
1c00060000
1c0007c000
1c00078000
1c000f0000
1c000e0000
1c001c0000
1c00380000
1c00700000
1c00e00c00
1c01c00f00
1c03801e00
1c07001c00
1c07803800
1c01f07000
1c003ce000
1c0007c000
1c00038000
1c00070000
1c000e0000
1c001c0600
3800380300
38007001c0
3800e000e0
3803c00070
3007000038
301c00fffc
703fffe01e
603fff001e
601fe0000e
c00e00000e
8006000006
0000000000
ENDCHAR
STARTCHAR 2467
ENCODING 9319
SWIDTH 903 0
DWIDTH 40 0
BBX 40 40 0 -6
BITMAP
0000000000
00c0000c00
00f8000f80
00f0000f00
00e0000e00
00e0000e00
00e0000e00
00e0000e00
00e0000e00
00e0000e00
00e0000e0c
00e0000e1e
ffffffffff
00e0000e00
00e0000e00
00e0018e00
00e001ee00
00e601ce00
00e301ce00
00e1c38e00
00e0e38e00
00e0770e00
00e03f0e00
00e03e0e00
00e03e0e00
00e0770e00
00e0e38e00
00e1c1ce00
00e381ce00
00e700ce00
00ec000e00
00e0000e00
00e0000e00
00e0000e00
00e0000e00
00e0000e00
00fffffe00
00e0000e00
00e0000e00
00c0000c00
ENDCHAR
STARTCHAR 2468
ENCODING 9320
SWIDTH 903 0
DWIDTH 40 0
BBX 40 40 0 -6
BITMAP
0000000000
0030000000
0078000030
fffc000078
003c3ffffc
003800e000
003800e000
003800e000
003800e000
003800e000
003800e000
303800e00c
3ff800e01e
3831ffffff
380001c000
380001c000
380001c000
7000038000
7018038000
703c038000
fffe070030
601e070078
001c0ffffc
001c06003c
001c000038
001c000038
001c000038
001c000038
001c000038
001c000038
001c000078
001c000070
003c000070
00380000f0
00780000e0
00f00003e0
ffe001ffc0
0fc0001f80
0380000700
0300000600
ENDCHAR
STARTCHAR 2469
ENCODING 9321
SWIDTH 903 0
DWIDTH 40 0
BBX 40 40 0 -6
BITMAP
0000000000
0000000180
00000003c0
3fffffffe0
00003801e0
00003801c0
00003801c0
00003801c0
00003801c0
00003801c0
00003801c0
18003801c0
1fffffffc0
1c000001c0
1c00000180
1c00000000
3800000000
3800000000
3800000018
380000003c
7ffffffffe
300078001e
0000f8001c
0001f8001c
0001b8001c
0003b8001c
000738001c
000e38001c
001c38003c
0038380038
0070380078
00e0387ff0
01c03807e0
03803801c0
0700380180
0e00380000
3800380000
e000380000
0000380000
0000300000
ENDCHAR
STARTCHAR 246a
ENCODING 9322
SWIDTH 903 0
DWIDTH 40 0
BBX 40 40 0 -6
BITMAP
0000000000
0030003000
0078001800
fffc001800
003c000c00
0038000c00
0038030c00
003803e600
003803c600
0038038600
0038038600
3038038700
3ff8038300
3830038300
3800038380
3800038380
3800038380
7000070180
70180701c0
703c0701c0
fffe0701c0
601e0e00e0
001c0e00e0
001c0e0070
001c1c0070
001c1c0070
001c180038
001c380038
001c30001c
001c70001e
001ce0000f
001cc0000f
003d800006
0039000000
0078000000
00f000000c
ffe000001e
0fc3ffffff
0380000000
0300000000
ENDCHAR
STARTCHAR 246b
ENCODING 9323
SWIDTH 903 0
DWIDTH 40 0
BBX 40 40 0 -6
BITMAP
0000300000
00003e0000
00003c0000
0000380000
0000380180
00003803c0
0fffffffe0
00003801e0
00003801c0
00003801c0
00003801c0
06003801c0
07ffffffc0
0700380180
0700380000
0e00380030
0e00380078
1ffffffffc
0c0038003c
00007c0038
0000740038
0000e60038
0000e30078
0001c19ff8
000380c0f0
00070060e0
000e003000
001c001c00
0038000f00
00700003c0
01e00001ff
038000007f
0e0000003c
380000000c
e000000000
0000000000
0000000006
ffffffffff
0000000000
0000000000
ENDCHAR
STARTCHAR 246c
ENCODING 9324
SWIDTH 903 0
DWIDTH 40 0
BBX 40 40 0 -6
BITMAP
0000000300
0000000780
07ffffffc0
00000003c0
0000000380
0000000380
0000000380
0000000380
0000000380
01ffffff80
0000000380
0000000380
0000000380
0000000380
0000000380
0000000380
07ffffff80
0000000380
0000000300
0000000000
00000000c0
00000001e0
07fffffff0
00000000f0
00000000e0
00000000e0
00000000e0
00000000e0
00000000e0
03ffffffe0
00000000e0
00000000e0
00000000e0
00000000e0
00000000e0
00000000e0
00000000e0
0fffffffe0
00000000e0
00000000c0
ENDCHAR
STARTCHAR 246d
ENCODING 9325
SWIDTH 903 0
DWIDTH 40 0
BBX 40 40 0 -6
BITMAP
0000018000
000001f000
000001e000
000001c000
000001c000
000001c000
001801c000
003c01c000
fffe01c180
001e0381f0
001c0381e0
001c0381c4
001c0381ce
001dffffff
001c0701c0
001c0701c0
001c0701c0
001c0701c0
001c0601c0
001c0e01c0
3ffc0e0380
001c0e0380
001c0e0380
001c1c0380
001c1c0700
001c380700
001c380700
001c7f0e00
001c33fe00
001c007c00
001c003e00
001c007f00
fffc00e3c0
001c01c1e0
0018038078
000007003c
00000c001e
000038000f
0000e00007
0003800003
ENDCHAR
STARTCHAR 246e
ENCODING 9326
SWIDTH 903 0
DWIDTH 40 0
BBX 40 40 0 -6
BITMAP
0000000000
0000300000
00003e0000
00303c0000
003c383800
0078380e00
0070380780
00e03801e0
01c03800f0
0380380078
070038003c
0e0038001c
1c0038000c
7000380000
0000380000
0000380300
0000300780
0fffffffc0
00000003c0
0000000380
0000000380
0000000380
0000000380
0000000380
000000038c
000000039e
ffffffffff
0000000380
0000000380
0000000380
0000000380
0000000380
0000000380
0000000380
0000000380
0000000380
0fffffff80
0000000380
0000000380
0000000300
ENDCHAR
STARTCHAR 246f
ENCODING 9327
SWIDTH 903 0
DWIDTH 40 0
BBX 40 40 0 -6
BITMAP
0000000000
0000000000
0000000060
00000000f0
1ffffffff8
0001c00000
0001c00000
0001c00180
0001c003e0
0001c007c0
0001c00f00
0001c01c00
0001c07000
0001c1c000
0001cf0000
0001c00060
0001c000f8
0001c001f0
0001c003c0
0001c00700
0001c01c00
0001c07000
0001c1c000
0001cf0030
0001c0003e
0001c0007c
0001c000f0
0001c001e0
0001c00780
0001c01e00
0001c07800
0001c3c000
0001de0000
0001c00000
0001c0000c
0001c0001e
ffffffffff
0000000000
0000000000
0000000000
ENDCHAR
STARTCHAR 2470
ENCODING 9328
SWIDTH 903 0
DWIDTH 40 0
BBX 40 40 0 -6
BITMAP
0000000000
0000000030
000000007c
0000000078
00000000f0
00006001e0
0000f003c0
7ffff80780
0070000f00
0070001c00
0070003800
007000e000
0070038000
0070000018
007000003e
007000003c
0070000078
00700000f0
00700001e0
00700003c0
0070000780
0070000e00
0070001c00
0070007000
007001c000
007007000c
007000001f
007000001e
007000003c
0070000078
0071fc00f0
007f0001e0
03f00003c0
ff80000780
fc00000f00
7000001c00
3000003800
000000e000
0000038000
00000e0000
ENDCHAR
STARTCHAR 2471
ENCODING 9329
SWIDTH 903 0
DWIDTH 40 0
BBX 40 40 0 -6
BITMAP
0000300000
00003c0000
0000780000
0000780000
0000fc0000
0000e60000
0001c30000
0003818000
000700c000
000e007000
001c003800
0038001c00
0070000f00
00e00007c0
01c00003f8
03800000ff
070000007f
0ec000061e
38f8000f86
e0f0001e00
00e0003800
00e0007000
00e000e000
00e001c300
00e00703c0
00e00e0700
00e0380e00
00e0e01c00
00e0007000
00e000e000
00e0038180
00e00e03e0
00e0380780
00e0e00e00
00e0003800
00e0007000
00e001c000
00e0070000
00e03c0000
00c1e00000
ENDCHAR
STARTCHAR 2472
ENCODING 9330
SWIDTH 903 0
DWIDTH 40 0
BBX 40 40 0 -6
BITMAP
0300000000
03e0000020
03c0000070
03803ffff8
0380000000
0380000000
0380000000
0380000000
0380000000
03c0000000
13e0000004
13b000000e
33b9ffffff
339c070000
739c070000
738c070000
e3800e0000
e3800e0000
c3801c0018
03801c003c
03803ffffe
038018001e
038000001c
038000001c
038000001c
038000001c
038000001c
038000001c
038000001c
038000001c
038000003c
0380000038
0380000038
0380000078
0380000070
03800001f0
038003ffe0
0380001fc0
0380000780
0300000700
ENDCHAR
STARTCHAR 2473
ENCODING 9331
SWIDTH 903 0
DWIDTH 40 0
BBX 40 40 0 -6
BITMAP
0300000000
03e0000018
03c000003c
03807ffffe
038000001e
038000001c
038000001c
038000001c
038000001c
03c000001c
13e000001c
13b018001c
33b81ffffc
339c1c0018
739c1c0000
738c1c0000
e3801c0000
e380380000
c38038000c
038038001e
03807fffff
038030000f
038000000e
038000000e
038000000e
038000000e
038000000e
038000000e
038000000e
038000000e
038000000e
038000001e
038000001c
038000003c
0380000078
03800000f0
03800fffe0
0380003fc0
0380000780
0300000700
ENDCHAR
STARTCHAR 2474
ENCODING 9332
SWIDTH 903 0
DWIDTH 40 0
BBX 40 40 0 -6
BITMAP
0300003000
03e0003e00
03c0003c00
0380003800
0380003800
0380003800
0380003800
0380003800
0380003800
03c0003800
13e0003800
13b0183800
33b81f3980
339c1e38c0
739c1c3860
738c1c3860
e3801c3830
e3801c3830
c380383838
0380383818
038038381c
038070381c
038070380e
0380e0380e
0380e0380e
0381c03807
0381803807
0383003807
0386003803
038c003800
0380003800
0380003800
0380003800
0380003800
0380003800
0380007800
03801ff800
038003f000
038000e000
030000c000
ENDCHAR
STARTCHAR 2475
ENCODING 9333
SWIDTH 903 0
DWIDTH 40 0
BBX 40 40 0 -6
BITMAP
03000000e0
03e00003f0
03c0001ff8
0380007f00
038001f000
03800fc000
038079c000
038001c000
038001c000
03c001c000
13e001c000
13b001c000
33b801c000
339c01c000
739c01c000
738c01c000
e38001c018
e38001c03c
c383fffffe
038001c000
038001c000
038001c000
038001c000
038001c000
038001c000
038001c000
038001c000
038001c000
038001c000
038001c000
038001c001
038001c001
038001c003
038001c003
038001c006
038001e00e
038001ffff
038000ffff
0380007ffe
0300000000
ENDCHAR
STARTCHAR 2476
ENCODING 9334
SWIDTH 903 0
DWIDTH 40 0
BBX 40 40 0 -6
BITMAP
0000018000
000001f000
000001e000
000001c600
000181c380
0003c1c1c0
1fffe1c0e0
0001e1c070
0001c1c070
0001c1c030
0001c1c000
0001c1c000
0001c1c00c
0001c1c01e
ffffffffff
0001c1c000
0001c1c000
0001c1c000
0001c1c000
0001c1c060
0001c1c07c
0001c1c078
1fffc0e0f0
0001c0e0e0
0001c0e1e0
00018071c0
0000007380
0000007700
0000003e00
0000003c01
0000003c01
0000007e01
000000ef03
000001c783
00000383c6
00000f01ee
00001c00fe
000070007f
0001c0003f
000f00000e
ENDCHAR
STARTCHAR 2477
ENCODING 9335
SWIDTH 903 0
DWIDTH 40 0
BBX 40 40 0 -6
BITMAP
0000000f80
000000ffc0
0c001fffe0
0e03ff0000
0fffc00000
0e00000000
0e00000060
0e000000f0
0ffffffff8
0e00000078
0e00000070
0e00000070
0e00000070
0e00000070
0e00000070
0ffffffff0
0e00000070
0e00030060
0e0003e000
0e0003c000
0e00038000
0e00038000
0e00038000
0e00038000
0e00038030
0e00038078
0e7ffffffc
0e00038000
1c00038000
1c00038000
1c00038000
1800038000
3800038000
3000038000
3000038000
6000038000
6000038000
c000038000
8000038000
0000030000
ENDCHAR
STARTCHAR 2478
ENCODING 9336
SWIDTH 903 0
DWIDTH 40 0
BBX 40 40 0 -6
BITMAP
0000000f80
000000ffc0
0c001fffe0
0e03ff0000
0fffc00000
0e00000000
0e00000060
0e000000f0
0ffffffff8
0e00000078
0e00000070
0e00000070
0e00000070
0e00000070
0e00000070
0ffffffff0
0e00000070
0e00000060
0e00000000
0e06000000
0e07c00000
0e07800000
0e070001c0
0e070007e0
0e07003ff0
0e0703e000
0e07fe0000
0e07000000
1c07000000
1c07000000
1c07000002
1807000002
3807000006
3007000006
300700000c
600780001c
6007fffffe
c003fffffe
8000fffffc
0000000000
ENDCHAR
STARTCHAR 2479
ENCODING 9337
SWIDTH 903 0
DWIDTH 40 0
BBX 40 40 0 -6
BITMAP
018000c000
01f000f800
01e000f000
01c000e180
01c000e0e0
01c000e070
01c000e038
01c000e038
01c000e018
01c600e000
ffff00e004
01c000e00e
01c0ffffff
01c000e000
01c000e000
01c000e000
01c000e000
01c000e000
01c700e000
01fc00e000
03f0007000
1fc0007000
ffc0007000
fdc0007000
71c0003800
31c0003800
01c0003800
01c0001c00
01c0001c00
01c0000e00
01c0000e01
01c0000701
01c0000783
01c00003c3
01c00001e6
03c00000fe
ffc000007e
1f8000003f
070000001f
0600000006
ENDCHAR
STARTCHAR 247a
ENCODING 9338
SWIDTH 903 0
DWIDTH 40 0
BBX 40 40 0 -6
BITMAP
0001800000
0000e00000
0000700000
0000380000
000038000c
000018001e
ffffffffff
0000000000
0000000000
0000000000
0000000000
0300000180
03800003c0
03ffffffe0
03800001e0
03800001c0
03800001c0
03800001c0
03800001c0
03800001c0
03800001c0
03800001c0
03800001c0
03800001c0
03ffffffc0
03800001c0
03800001c0
03800001c0
03800001c0
03800001c0
03800001c0
03800001c0
03800001c0
03800001c0
03800001c0
03800001c0
03ffffffc0
03800001c0
0380000180
0300000000
ENDCHAR
STARTCHAR 247b
ENCODING 9339
SWIDTH 903 0
DWIDTH 40 0
BBX 40 40 0 -6
BITMAP
0000000000
0300000300
0380000780
03ffffffc0
03800003c0
0380000380
0380000380
0380000380
0380000380
0380000380
0380000380
0380000380
03ffffff80
0380000380
0380000380
0380000380
0380000380
0380000380
0380000380
0380000380
0380000380
03ffffff80
0300000300
0000000000
0000000000
0000000000
000000000c
000000001e
ffffffffff
0000000000
0000000000
0000000000
0000000000
0000000000
0000000000
0000000060
00000000f0
1ffffffff8
0000000000
0000000000
ENDCHAR
STARTCHAR 247c
ENCODING 9340
SWIDTH 903 0
DWIDTH 40 0
BBX 40 40 0 -6
BITMAP
0000006000
0000007c00
0000007800
0000007000
6018007000
703c007000
7ffe007000
701e007000
701c007000
701c007000
701c007000
701c007000
701c007000
701c007000
701c007000
701c007000
701c00f800
701c00e800
7ffc00e800
701c00e800
701c01cc00
701c01cc00
701c01c400
701c038600
701c038600
701c038600
701c070300
701c070300
701c0e0380
701c0e0180
7ffc1c01c0
701c1c00c0
70183800e0
6000700070
0000e00078
0001c0003c
000380003f
000700001f
000e00000e
0038000006
ENDCHAR
STARTCHAR 247d
ENCODING 9341
SWIDTH 903 0
DWIDTH 40 0
BBX 40 40 0 -6
BITMAP
0000003000
3018003e00
383c003c00
3ffe003800
381e003800
381c003800
381c003800
381c003800
381c003800
381c003800
381c003800
381c003800
381c003800
3ffc003800
381c003800
381c003800
381c007c00
381c007400
381c007400
381c007400
381c007600
381c00e600
3ffc00e200
381c00e300
381c01c300
381c01c300
381c01c180
381c038180
381c0381c0
381c0700c0
381c0700e0
301c0e00f0
701c0e0070
701c1c0078
701c38003c
603c70003e
67fce0001f
c079c0001f
c07380000e
806e000006
ENDCHAR
STARTCHAR 247e
ENCODING 9342
SWIDTH 903 0
DWIDTH 40 0
BBX 40 40 0 -6
BITMAP
0000000000
0000000180
06000003c0
07ffffffe0
07000001e0
07000001c0
07000001c0
07000001c0
07000001c0
07000001c0
07000001c0
07000001c0
07000001c0
07000001c0
07000001c0
07000001c0
07000001c0
07000001c0
07000001c0
07003001c0
06003e0180
00003c0000
0000380000
000038000c
000038001e
ffffffffff
0000380000
0000380000
0000380000
0030380000
007c381c00
00f0380700
01c03801c0
03803800f0
0700380078
1c0038003c
380038001c
e00038000c
0000380000
0000300000
ENDCHAR
STARTCHAR 2521
ENCODING 9505
SWIDTH 903 0
DWIDTH 40 0
BBX 40 40 0 -6
BITMAP
0000000000
00000000c0
00000001e0
0ffffffff0
00000003f0
0000000780
0000001e00
0000003800
000000e000
001e038000
00038e0000
0000f80000
00003c0000
00001f0000
000007c000
000003e000
000001f000
000000f000
0000307000
00003e0000
00003c0000
0000380000
000038000c
000038001e
ffffffffff
0000380000
0000380000
0000380000
0030380000
007c381c00
00f0380700
01c03801c0
03803800f0
0700380078
1c0038003c
380038001c
e00038000c
0000380000
0000380000
0000300000
ENDCHAR
STARTCHAR 2522
ENCODING 9506
SWIDTH 903 0
DWIDTH 40 0
BBX 40 40 0 -6
BITMAP
0180000c00
01f0000f80
01e0000f00
01c0000e00
01c0180e00
01c01f0e00
01c01e0e00
01c41c0e00
01ce1c0e00
ffff1c0e00
01c01c0e00
01c01c0e00
01c01c0e00
03c01c0e00
03c01c0e00
03e01c0e00
07f01c0e00
07d81c0e00
07dc1c0e00
0fce1c0e00
0fce1c0e00
0dc61c0e00
1dc01c0e04
19c01c0e0e
39c03fffff
31c0180e00
71c0000e00
61c0000e00
c1c0000e00
81c0000e00
01c0000e00
01c0000e01
01c0000e01
01c0000e03
01c0000e03
01c0000f06
01c0000fff
01c00007ff
01c00003fe
0180000000
ENDCHAR
STARTCHAR 2523
ENCODING 9507
SWIDTH 903 0
DWIDTH 40 0
BBX 40 40 0 -6
BITMAP
0000300000
00003e0000
00003c0000
6000380000
3800380000
1c00380000
0e00380000
0f0038000c
070070001e
03007fffff
001070701f
001060701c
0030e07038
0020c07030
0061c07060
0061807040
00c3007000
00c6007000
0180007000
018000f800
038000e800
030000ec00
070000ec00
060001c400
0e0001c600
1c00038600
fc00038300
7c00070300
3800070380
38000e01c0
1c001c01c0
1c003800e0
1c007000f0
1e00e00078
1e01c0007c
1e0380003e
1e0700003f
0c0e00001f
003800000e
00e0000006
ENDCHAR
STARTCHAR 2524
ENCODING 9508
SWIDTH 903 0
DWIDTH 40 0
BBX 40 40 0 -6
BITMAP
0000060000
601807c000
703c078000
7ffe070000
701e070000
701c070000
701c070000
701c070000
701c0e000c
701c0e001e
701c0fffff
701c0c381f
701c1c381c
701c183818
701c303830
701c603820
701c403800
701c003800
701c003800
701c003800
701c007c00
701c007400
701c007400
701c00e600
701c00e200
701c00e300
701c01c300
701c01c180
703c038180
7ffc0381c0
71f80700c0
70700700e0
70600e0070
70001c0078
700038003c
700070003e
7000e0001f
7001c0001f
700380000e
600e000006
ENDCHAR
ENDFONT
